simple-print_regular.sfdir

StartChar: exclam
Encoding: 33 33 58
Width: 202
Flags: W
LayerCount: 2
Fore
SplineSet
52 41 m 256,0,1
 52 16 52 16 66.5 -1 c 128,-1,2
 81 -18 81 -18 102 -18 c 256,3,4
 123 -18 123 -18 138 -1 c 128,-1,5
 153 16 153 16 153 41 c 256,6,7
 153 66 153 66 138 83.5 c 128,-1,8
 123 101 123 101 102 101 c 256,9,10
 81 101 81 101 66.5 83.5 c 128,-1,11
 52 66 52 66 52 41 c 256,0,1
120 978 m 2,12,-1
 120 201 l 2,13,14
 120 179 120 179 97 179 c 0,15,16
 75 179 75 179 75 201 c 2,17,-1
 75 978 l 2,18,19
 75 1001 75 1001 97 1001 c 0,20,21
 120 1001 120 1001 120 978 c 2,12,-1
EndSplineSet
EndChar
StartChar: quotedbl
Encoding: 34 34 187
Width: 268
Flags: W
LayerCount: 2
Back
Fore
SplineSet
208 979 m 2,0,-1
 208 852 l 2,1,2
 208 830 208 830 185 830 c 0,3,4
 163 830 163 830 163 852 c 2,5,-1
 163 979 l 2,6,7
 163 1001 163 1001 185 1001 c 0,8,9
 208 1001 208 1001 208 979 c 2,0,-1
113 979 m 2,10,-1
 113 852 l 2,11,12
 113 830 113 830 90 830 c 0,13,14
 68 830 68 830 68 852 c 2,15,-1
 68 979 l 2,16,17
 68 1001 68 1001 90 1001 c 0,18,19
 113 1001 113 1001 113 979 c 2,10,-1
EndSplineSet
EndChar

StartChar: numbersign
Encoding: 35 35 148
Width: 541
Flags: W
LayerCount: 2
Fore
SplineSet
326 605 m 2,0,-1
 269 474 l 1,1,-1
 341 474 l 1,2,-1
 406 623 l 2,3,4
 415 644 415 644 436 635 c 0,5,6
 458 626 458 626 449 605 c 2,7,-1
 392 474 l 1,8,-1
 421 474 l 1,9,10
 444 473 444 473 444 450 c 0,11,12
 444 426 444 426 421 426 c 2,13,-1
 371 426 l 1,14,-1
 320 308 l 1,15,-1
 396 308 l 2,16,17
 419 308 419 308 419 284 c 0,18,19
 419 261 419 261 396 261 c 2,20,-1
 301 261 l 1,21,-1
 251 144 l 2,22,23
 241 122 241 122 220 133 c 1,24,25
 199 141 199 141 208 162 c 2,26,-1
 251 262 l 1,27,-1
 178 262 l 1,28,-1
 128 144 l 2,29,30
 119 122 119 122 97 133 c 1,31,32
 76 141 76 141 85 162 c 2,33,-1
 129 262 l 1,34,-1
 113 262 l 2,35,36
 89 262 89 262 89 286 c 0,37,38
 89 308 89 308 113 308 c 2,39,-1
 148 308 l 1,40,-1
 199 427 l 1,41,-1
 138 428 l 2,42,43
 114 428 114 428 115 451 c 1,44,45
 114 474 114 474 138 474 c 2,46,-1
 219 474 l 1,47,-1
 284 623 l 1,48,49
 292 644 292 644 314 635 c 0,50,51
 335 626 335 626 326 605 c 2,0,-1
198 308 m 1,52,-1
 271 308 l 1,53,-1
 321 426 l 1,54,-1
 250 427 l 1,55,-1
 198 308 l 1,52,-1
EndSplineSet
EndChar

StartChar: dollar
Encoding: 36 36 171
Width: 524
Flags: W
LayerCount: 2
Fore
SplineSet
278 770 m 2,0,-1
 278 619 l 1,1,2
 337 617 337 617 383 594 c 1,3,4
 431 568 431 568 461 518 c 0,5,6
 473 498 473 498 453 488 c 0,7,8
 433 477 433 477 423 496 c 0,9,10
 401 534 401 534 362 554 c 0,11,12
 327 572 327 572 278 574 c 1,13,-1
 278 389 l 1,14,15
 347 367 347 367 407 336 c 0,16,17
 474 301 474 301 460 215 c 1,18,19
 450 161 450 161 391 131 c 0,20,21
 342 106 342 106 278 102 c 1,22,-1
 278 0 l 2,23,24
 278 -22 278 -22 255 -22 c 0,25,26
 233 -22 233 -22 233 0 c 2,27,-1
 233 102 l 1,28,29
 179 106 179 106 138 127 c 0,30,31
 88 152 88 152 59 204 c 1,32,33
 50 224 50 224 69 234 c 256,34,35
 88 244 88 244 98 225 c 0,36,37
 120 186 120 186 159 167 c 1,38,39
 189 150 189 150 233 146 c 1,40,-1
 233 356 l 1,41,42
 165 378 165 378 111 405 c 0,43,44
 52 435 52 435 64 507 c 1,45,46
 74 559 74 559 133 590 c 0,47,48
 177 612 177 612 233 617 c 1,49,-1
 233 770 l 2,50,51
 233 792 233 792 255 792 c 0,52,53
 278 792 278 792 278 770 c 2,0,-1
371 170 m 1,54,55
 411 192 411 192 416 223 c 0,56,57
 426 279 426 279 370 305 c 0,58,59
 327 326 327 326 278 342 c 1,60,-1
 278 146 l 1,61,62
 331 150 331 150 371 170 c 1,54,55
153 551 m 1,63,64
 113 528 113 528 108 500 c 0,65,66
 100 457 100 457 148 434 c 1,67,68
 186 417 186 417 233 402 c 1,69,-1
 233 572 l 1,70,71
 187 568 187 568 153 551 c 1,63,64
EndSplineSet
EndChar
StartChar: percent
Encoding: 37 37 176
Width: 540
Flags: W
LayerCount: 2
Back
Fore
SplineSet
520 968 m 2,0,-1
 58 14 l 2,1,2
 49 -6 49 -6 28 4 c 0,3,4
 8 13 8 13 18 33 c 2,5,-1
 479 988 l 2,6,7
 489 1008 489 1008 509 998 c 256,8,9
 529 988 529 988 520 968 c 2,0,-1
529 166 m 256,10,11
 529 132 529 132 519.5 102 c 128,-1,12
 510 72 510 72 493 49.5 c 128,-1,13
 476 27 476 27 453.5 14 c 128,-1,14
 431 1 431 1 405 1 c 256,15,16
 379 1 379 1 356.5 14 c 128,-1,17
 334 27 334 27 317 49.5 c 128,-1,18
 300 72 300 72 290 102 c 128,-1,19
 280 132 280 132 280 166 c 256,20,21
 280 200 280 200 290 230 c 128,-1,22
 300 260 300 260 317 282.5 c 128,-1,23
 334 305 334 305 356.5 318 c 128,-1,24
 379 331 379 331 405 331 c 256,25,26
 431 331 431 331 453.5 318 c 128,-1,27
 476 305 476 305 493 282.5 c 128,-1,28
 510 260 510 260 519.5 230 c 128,-1,29
 529 200 529 200 529 166 c 256,10,11
322 165 m 256,30,31
 322 140 322 140 328.5 117.5 c 128,-1,32
 335 95 335 95 346 78.5 c 128,-1,33
 357 62 357 62 372 52.5 c 128,-1,34
 387 43 387 43 405 43 c 256,35,36
 423 43 423 43 438 52.5 c 128,-1,37
 453 62 453 62 464.5 78.5 c 128,-1,38
 476 95 476 95 482.5 117.5 c 128,-1,39
 489 140 489 140 489 165 c 256,40,41
 489 190 489 190 482.5 212.5 c 128,-1,42
 476 235 476 235 464.5 252 c 128,-1,43
 453 269 453 269 438 278.5 c 128,-1,44
 423 288 423 288 405 288 c 256,45,46
 387 288 387 288 372 278.5 c 128,-1,47
 357 269 357 269 346 252 c 128,-1,48
 335 235 335 235 328.5 212.5 c 128,-1,49
 322 190 322 190 322 165 c 256,30,31
273 825 m 256,50,51
 273 791 273 791 263.5 761 c 128,-1,52
 254 731 254 731 237 708.5 c 128,-1,53
 220 686 220 686 197.5 673 c 128,-1,54
 175 660 175 660 149 660 c 256,55,56
 123 660 123 660 100.5 673 c 128,-1,57
 78 686 78 686 61 708.5 c 128,-1,58
 44 731 44 731 34 761 c 128,-1,59
 24 791 24 791 24 825 c 256,60,61
 24 859 24 859 34 889 c 128,-1,62
 44 919 44 919 61 941.5 c 128,-1,63
 78 964 78 964 100.5 977 c 128,-1,64
 123 990 123 990 149 990 c 256,65,66
 175 990 175 990 197.5 977 c 128,-1,67
 220 964 220 964 237 941.5 c 128,-1,68
 254 919 254 919 263.5 889 c 128,-1,69
 273 859 273 859 273 825 c 256,50,51
66 824 m 256,70,71
 66 799 66 799 72.5 776.5 c 128,-1,72
 79 754 79 754 90 737.5 c 128,-1,73
 101 721 101 721 116 711.5 c 128,-1,74
 131 702 131 702 149 702 c 256,75,76
 167 702 167 702 182 711.5 c 128,-1,77
 197 721 197 721 208.5 737.5 c 128,-1,78
 220 754 220 754 226.5 776.5 c 128,-1,79
 233 799 233 799 233 824 c 256,80,81
 233 849 233 849 226.5 871.5 c 128,-1,82
 220 894 220 894 208.5 911 c 128,-1,83
 197 928 197 928 182 937.5 c 128,-1,84
 167 947 167 947 149 947 c 256,85,86
 131 947 131 947 116 937.5 c 128,-1,87
 101 928 101 928 90 911 c 128,-1,88
 79 894 79 894 72.5 871.5 c 128,-1,89
 66 849 66 849 66 824 c 256,70,71
EndSplineSet
EndChar
StartChar: ampersand
Encoding: 38 38 183
Width: 942
VWidth: 3000
Flags: W
LayerCount: 2
Back
Fore
SplineSet
591 174 m 1,0,-1
 483 82.5 l 1,1,2
 406.5 22.5 406.5 22.5 336 9 c 128,-1,3
 265.5 -4.5 265.5 -4.5 213 18 c 1,4,5
 166.5 34.5 166.5 34.5 137.25 74.25 c 128,-1,6
 108 114 108 114 99.75 171.75 c 128,-1,7
 91.5 229.5 91.5 229.5 120 301.5 c 128,-1,8
 148.5 373.5 148.5 373.5 225 444 c 1,9,10
 360 550.5 360 550.5 366 556.5 c 1,11,12
 279 696 279 696 306 825 c 128,-1,13
 333 954 333 954 476.25 947.25 c 128,-1,14
 619.5 940.5 619.5 940.5 617.25 807.75 c 128,-1,15
 615 675 615 675 538.5 608.25 c 128,-1,16
 462 541.5 462 541.5 454.5 534 c 1,17,-1
 606 277.5 l 1,18,19
 726 390 726 390 736.5 399 c 0,20,21
 763.5 423 763.5 423 781.5 396 c 1,22,23
 804 369 804 369 778.5 346.5 c 0,24,25
 771 340.5 771 340.5 640.5 219 c 1,26,-1
 703.5 126 l 2,27,28
 733.5 84 733.5 84 742.5 79.5 c 256,29,30
 751.5 75 751.5 75 767.25 93.75 c 128,-1,31
 783 112.5 783 112.5 816 175.5 c 0,32,33
 831 205.5 831 205.5 861 189 c 1,34,35
 889.5 171 889.5 171 874.5 142.5 c 0,36,37
 823.5 43.5 823.5 43.5 785.25 21 c 128,-1,38
 747 -1.5 747 -1.5 711 19.5 c 1,39,40
 687 31.5 687 31.5 651 84 c 2,41,-1
 591 174 l 1,0,-1
555 232.5 m 1,42,43
 546 247.5 546 247.5 399 496.5 c 1,44,-1
 267 390 l 1,45,46
 205.5 336 205.5 336 182.25 279.75 c 128,-1,47
 159 223.5 159 223.5 163.5 183 c 128,-1,48
 168 142.5 168 142.5 186 117.75 c 128,-1,49
 204 93 204 93 235.5 81 c 0,50,51
 327 45 327 45 444 138 c 1,52,-1
 555 232.5 l 1,42,43
421.5 595.5 m 1,53,54
 426 598.5 426 598.5 494.25 656.25 c 128,-1,55
 562.5 714 562.5 714 557.25 797.25 c 128,-1,56
 552 880.5 552 880.5 464.25 879 c 128,-1,57
 376.5 877.5 376.5 877.5 362.25 795 c 128,-1,58
 348 712.5 348 712.5 421.5 595.5 c 1,53,54
EndSplineSet
EndChar
StartChar: quotesingle
Encoding: 39 39 186
Width: 294
VWidth: 3000
Flags: W
LayerCount: 2
Back
Fore
SplineSet
169.5 1468.5 m 2,0,-1
 169.5 1278 l 2,1,2
 169.5 1245 169.5 1245 135 1245 c 0,3,4
 102 1245 102 1245 102 1278 c 2,5,-1
 102 1468.5 l 2,6,7
 102 1501.5 102 1501.5 135 1501.5 c 0,8,9
 169.5 1501.5 169.5 1501.5 169.5 1468.5 c 2,0,-1
EndSplineSet
EndChar

StartChar: parenleft
Encoding: 40 40 184
Width: 184
Flags: W
LayerCount: 2
Fore
SplineSet
166 1033 m 0,0,1
 29 756 29 756 30 471 c 0,2,3
 31 193 31 193 166 -90 c 0,4,5
 176 -109 176 -109 156 -120 c 1,6,7
 136 -128 136 -128 126 -109 c 0,8,9
 -10 179 -10 179 -14 471 c 1,10,11
 -15 768 -15 768 127 1053 c 0,12,13
 136 1073 136 1073 156 1063 c 0,14,15
 176 1054 176 1054 166 1033 c 0,0,1
EndSplineSet
EndChar
StartChar: parenright
Encoding: 41 41 185
Width: 276
VWidth: 3000
Flags: W
LayerCount: 2
Back
Fore
SplineSet
-7.5 -132 m 0,0,1
 198 283.5 198 283.5 196.5 711 c 0,2,3
 195 1128 195 1128 -7.5 1552.5 c 0,4,5
 -22.5 1581 -22.5 1581 7.5 1597.5 c 1,6,7
 37.5 1609.5 37.5 1609.5 52.5 1581 c 0,8,9
 256.5 1149 256.5 1149 262.5 711 c 1,10,11
 264 265.5 264 265.5 51 -162 c 0,12,13
 37.5 -192 37.5 -192 7.5 -177 c 0,14,15
 -22.5 -163.5 -22.5 -163.5 -7.5 -132 c 0,0,1
EndSplineSet
EndChar

StartChar: asterisk
Encoding: 42 42 150
Width: 369
Flags: W
LayerCount: 2
Fore
SplineSet
304 837 m 1,0,-1
 223 837 l 1,1,-1
 264 767 l 2,2,3
 275 748 275 748 254 736 c 0,4,5
 234 724 234 724 224 744 c 1,6,-1
 183 815 l 1,7,-1
 142 746 l 2,8,9
 130 725 130 725 110 738 c 1,10,11
 91 749 91 749 102 769 c 2,12,-1
 142 837 l 1,13,-1
 64 838 l 2,14,15
 40 838 40 838 41 862 c 0,16,17
 41 884 41 884 64 884 c 2,18,-1
 143 884 l 1,19,-1
 104 952 l 2,20,21
 92 973 92 973 114 984 c 1,22,23
 133 995 133 995 144 975 c 2,24,-1
 183 908 l 1,25,-1
 223 977 l 1,26,27
 235 995 235 995 256 983 c 0,28,29
 276 972 276 972 264 953 c 2,30,-1
 223 884 l 1,31,-1
 304 884 l 1,32,33
 326 883 326 883 326 859 c 0,34,35
 326 836 326 836 304 837 c 1,0,-1
EndSplineSet
EndChar
StartChar: plus
Encoding: 43 43 149
Width: 951
VWidth: 3000
Flags: W
LayerCount: 2
Back
Fore
SplineSet
763.5 501 m 1,0,-1
 510 501 l 1,1,-1
 510 252 l 2,2,3
 510 216 510 216 474 217.5 c 0,4,5
 441 217.5 441 217.5 441 252 c 2,6,-1
 441 501 l 1,7,-1
 193.5 502.5 l 2,8,9
 157.5 502.5 157.5 502.5 159 538.5 c 0,10,11
 159 571.5 159 571.5 193.5 571.5 c 2,12,-1
 441 571.5 l 1,13,-1
 441 822 l 1,14,15
 442.5 855 442.5 855 478.5 855 c 0,16,17
 513 855 513 855 511.5 822 c 2,18,-1
 510 571.5 l 1,19,-1
 763.5 571.5 l 1,20,21
 796.5 570 796.5 570 796.5 534 c 0,22,23
 796.5 499.5 796.5 499.5 763.5 501 c 1,0,-1
EndSplineSet
EndChar
StartChar: comma
Encoding: 44 44 146
Width: 265
VWidth: 3000
Flags: W
LayerCount: 2
Back
Fore
SplineSet
87 124.5 m 0,0,1
 72 159 72 159 126 190.5 c 128,-1,2
 180 222 180 222 205.5 184.5 c 1,3,4
 255 120 255 120 211.5 6 c 1,5,6
 180 -84 180 -84 82.5 -226.5 c 0,7,8
 63 -253.5 63 -253.5 34.5 -234 c 0,9,10
 7.5 -214.5 7.5 -214.5 25.5 -186 c 0,11,12
 117 -52.5 117 -52.5 147 28.5 c 0,13,14
 174 103.5 174 103.5 135.75 101.25 c 128,-1,15
 97.5 99 97.5 99 87 124.5 c 0,0,1
EndSplineSet
EndChar
StartChar: period
Encoding: 46 46 59
Width: 303
VWidth: 3000
Flags: W
LayerCount: 2
Back
Fore
SplineSet
78 61.5 m 256,0,1
 78 99 78 99 99.75 125.25 c 128,-1,2
 121.5 151.5 121.5 151.5 153 151.5 c 256,3,4
 184.5 151.5 184.5 151.5 207 125.25 c 128,-1,5
 229.5 99 229.5 99 229.5 61.5 c 256,6,7
 229.5 24 229.5 24 207 -1.5 c 128,-1,8
 184.5 -27 184.5 -27 153 -27 c 256,9,10
 121.5 -27 121.5 -27 99.75 -1.5 c 128,-1,11
 78 24 78 24 78 61.5 c 256,0,1
EndSplineSet
EndChar

StartChar: slash
Encoding: 47 47 74
Width: 540
Flags: W
LayerCount: 2
Fore
SplineSet
520 968 m 2,0,-1
 58 14 l 2,1,2
 49 -6 49 -6 28 4 c 0,3,4
 8 13 8 13 18 33 c 2,5,-1
 479 988 l 2,6,7
 489 1008 489 1008 509 998 c 256,8,9
 529 988 529 988 520 968 c 2,0,-1
EndSplineSet
EndChar
StartChar: zero
Encoding: 48 48 115
Width: 1009
VWidth: 3000
Flags: W
LayerCount: 2
Back
Fore
SplineSet
504 -33 m 256,0,1
 319.5 -33 319.5 -33 196.5 199.5 c 1,2,3
 75 420 75 420 75 735 c 0,4,5
 75 1047 75 1047 196.5 1269 c 1,6,7
 319.5 1501.5 319.5 1501.5 504 1501.5 c 256,8,9
 688.5 1501.5 688.5 1501.5 813 1269 c 1,10,11
 934.5 1047 934.5 1047 934.5 735 c 0,12,13
 934.5 420 934.5 420 813 199.5 c 1,14,15
 688.5 -33 688.5 -33 504 -33 c 256,0,1
255 231 m 1,16,17
 360 33 360 33 504 33 c 256,18,19
 648 33 648 33 754.5 231 c 1,20,21
 867 435 867 435 867 735 c 0,22,23
 867 1030.5 867 1030.5 754.5 1237.5 c 0,24,25
 648 1434 648 1434 504 1434 c 256,26,27
 360 1434 360 1434 255 1237.5 c 0,28,29
 142.5 1027.5 142.5 1027.5 142.5 735 c 0,30,31
 142.5 438 142.5 438 255 231 c 1,16,17
EndSplineSet
EndChar
StartChar: two
Encoding: 50 50 117
Width: 955
VWidth: 3000
Flags: W
LayerCount: 2
Back
Fore
SplineSet
75 993 m 0,0,1
 75 1201.5 75 1201.5 190.5 1350 c 0,2,3
 307.5 1501.5 307.5 1501.5 477 1501.5 c 256,4,5
 646.5 1501.5 646.5 1501.5 765 1350 c 1,6,7
 880.5 1198.5 880.5 1198.5 880.5 993 c 0,8,9
 880.5 876 880.5 876 843 774 c 1,10,11
 801 669 801 669 733.5 598.5 c 1,12,13
 733.5 598.5 733.5 598.5 733.5 597.75 c 128,-1,14
 733.5 597 733.5 597 733.5 597 c 1,15,-1
 186 33 l 1,16,-1
 847.5 33 l 2,17,18
 880.5 33 880.5 33 880.5 0 c 256,19,20
 880.5 -33 880.5 -33 847.5 -33 c 2,21,-1
 108 -33 l 2,22,23
 75 -33 75 -33 75 0 c 0,24,25
 75 13.5 75 13.5 85.5 25.5 c 2,26,-1
 684 643.5 l 1,27,28
 684 643.5 684 643.5 684 643.5 c 129,-1,29
 684 643.5 684 643.5 684 643.5 c 1,30,31
 747 709.5 747 709.5 780 798 c 0,32,33
 814.5 889.5 814.5 889.5 814.5 993 c 0,34,35
 814.5 1176 814.5 1176 712.5 1308 c 0,36,37
 615 1434 615 1434 477 1434 c 256,38,39
 339 1434 339 1434 243 1308 c 0,40,41
 141 1176 141 1176 141 993 c 0,42,43
 141 958.5 141 958.5 108 958.5 c 256,44,45
 75 958.5 75 958.5 75 993 c 0,0,1
EndSplineSet
EndChar
StartChar: three
Encoding: 51 51 118
Width: 955
VWidth: 3000
Flags: W
LayerCount: 2
Back
Fore
SplineSet
75 1101 m 0,0,1
 75 1267.5 75 1267.5 192 1384.5 c 0,2,3
 310.5 1501.5 310.5 1501.5 477 1501.5 c 256,4,5
 643.5 1501.5 643.5 1501.5 763.5 1384.5 c 1,6,7
 880.5 1267.5 880.5 1267.5 880.5 1101 c 0,8,9
 880.5 933 880.5 933 763.5 817.5 c 0,10,11
 709.5 765 709.5 765 639 735 c 1,12,13
 712.5 699 712.5 699 763.5 649.5 c 0,14,15
 880.5 532.5 880.5 532.5 880.5 367.5 c 0,16,17
 880.5 201 880.5 201 763.5 84 c 0,18,19
 645 -33 645 -33 477 -33 c 256,20,21
 309 -33 309 -33 192 84 c 256,22,23
 75 201 75 201 75 367.5 c 0,24,25
 75 400.5 75 400.5 108 400.5 c 256,26,27
 141 400.5 141 400.5 141 367.5 c 0,28,29
 141 229.5 141 229.5 240 130.5 c 0,30,31
 339 33 339 33 477 33 c 0,32,33
 616.5 33 616.5 33 715.5 130.5 c 0,34,35
 814.5 229.5 814.5 229.5 814.5 367.5 c 256,36,37
 814.5 505.5 814.5 505.5 715.5 603 c 256,38,39
 616.5 700.5 616.5 700.5 477 700.5 c 0,40,41
 444 700.5 444 700.5 444 735 c 0,42,43
 444 768 444 768 477 768 c 0,44,45
 616.5 768 616.5 768 715.5 865.5 c 256,46,47
 814.5 963 814.5 963 814.5 1101 c 256,48,49
 814.5 1239 814.5 1239 715.5 1336.5 c 256,50,51
 616.5 1434 616.5 1434 477 1434 c 0,52,53
 339 1434 339 1434 240 1336.5 c 256,54,55
 141 1239 141 1239 141 1101 c 0,56,57
 141 1068 141 1068 108 1068 c 256,58,59
 75 1068 75 1068 75 1101 c 0,0,1
EndSplineSet
EndChar
StartChar: four
Encoding: 52 52 119
Width: 634
Flags: W
LayerCount: 2
Back
Fore
SplineSet
358 979 m 2,0,-1
 358 495 l 1,1,-1
 562 495 l 2,2,3
 584 495 584 495 584 472 c 0,4,5
 584 450 584 450 562 450 c 2,6,-1
 358 450 l 1,7,-1
 358 0 l 2,8,9
 358 -22 358 -22 337 -22 c 0,10,11
 314 -22 314 -22 314 0 c 2,12,-1
 314 450 l 1,13,-1
 75 450 l 1,14,-1
 75 450 l 1,15,-1
 75 450 l 1,16,17
 75 450 75 450 74.5 450 c 128,-1,18
 74 450 74 450 74 450 c 1,19,20
 50 451 50 451 54 474 c 1,21,-1
 75 472 l 1,22,-1
 54 474 l 1,23,-1
 89 980 l 2,24,25
 91 1002 91 1002 113 1001 c 1,26,27
 134 999 134 999 133 977 c 2,28,-1
 99 495 l 1,29,-1
 314 495 l 1,30,-1
 314 979 l 2,31,32
 314 1001 314 1001 337 1001 c 0,33,34
 358 1001 358 1001 358 979 c 2,0,-1
EndSplineSet
EndChar
StartChar: five
Encoding: 53 53 120
Width: 955
VWidth: 3000
Flags: W
LayerCount: 2
Back
Fore
SplineSet
141 475.5 m 0,0,1
 141 289.5 141 289.5 243 159 c 0,2,3
 340.5 33 340.5 33 477 33 c 256,4,5
 613.5 33 613.5 33 712.5 159 c 0,6,7
 814.5 289.5 814.5 289.5 814.5 475.5 c 0,8,9
 814.5 663 814.5 663 708 796.5 c 1,10,11
 615 919.5 615 919.5 477 919.5 c 0,12,13
 388.5 919.5 388.5 919.5 312 861 c 0,14,15
 234 801 234 801 190.5 703.5 c 0,16,17
 189 702 189 702 188.25 700.5 c 128,-1,18
 187.5 699 187.5 699 187.5 699 c 2,19,20
 186 699 186 699 185.25 696.75 c 128,-1,21
 184.5 694.5 184.5 694.5 184.5 694.5 c 1,22,23
 171 663 171 663 141 678 c 1,24,25
 118.5 687 118.5 687 121.5 712.5 c 1,26,-1
 121.5 712.5 l 1,27,-1
 181.5 1470 l 1,28,29
 181.5 1503 181.5 1503 214.5 1503 c 2,30,-1
 783 1503 l 2,31,32
 816 1503 816 1503 816 1468.5 c 0,33,34
 816 1435.5 816 1435.5 783 1435.5 c 2,35,-1
 244.5 1435.5 l 1,36,-1
 199.5 846 l 1,37,38
 229.5 882 229.5 882 271.5 913.5 c 0,39,40
 366 985.5 366 985.5 477 985.5 c 0,41,42
 646.5 985.5 646.5 985.5 762 838.5 c 0,43,44
 820.5 762 820.5 762 850.5 664.5 c 128,-1,45
 880.5 567 880.5 567 880.5 475.5 c 0,46,47
 880.5 267 880.5 267 765 120 c 1,48,49
 648 -33 648 -33 477 -33 c 256,50,51
 306 -33 306 -33 190.5 120 c 1,52,53
 75 265.5 75 265.5 75 475.5 c 0,54,55
 75 508.5 75 508.5 108 508.5 c 256,56,57
 141 508.5 141 508.5 141 475.5 c 0,0,1
EndSplineSet
EndChar
StartChar: six
Encoding: 54 54 121
Width: 955
VWidth: 3000
Flags: W
LayerCount: 2
Back
Fore
SplineSet
477 919.5 m 256,0,1
 340.5 919.5 340.5 919.5 243 792 c 0,2,3
 141 660 141 660 141 475.5 c 0,4,5
 141 289.5 141 289.5 243 159 c 0,6,7
 340.5 33 340.5 33 477 33 c 256,8,9
 613.5 33 613.5 33 712.5 159 c 0,10,11
 814.5 289.5 814.5 289.5 814.5 475.5 c 0,12,13
 814.5 660 814.5 660 712.5 792 c 0,14,15
 613.5 919.5 613.5 919.5 477 919.5 c 256,0,1
556.5 1453.5 m 1,16,-1
 301.5 934.5 l 1,17,18
 384 985.5 384 985.5 477 985.5 c 0,19,20
 648 985.5 648 985.5 765 832.5 c 0,21,22
 880.5 682.5 880.5 682.5 880.5 475.5 c 0,23,24
 880.5 267 880.5 267 765 120 c 1,25,26
 648 -33 648 -33 477 -33 c 256,27,28
 306 -33 306 -33 190.5 120 c 1,29,30
 75 265.5 75 265.5 75 475.5 c 0,31,32
 75 627 75 627 139.5 753 c 1,33,-1
 496.5 1483.5 l 2,34,35
 510 1512 510 1512 541.5 1497 c 0,36,37
 568.5 1483.5 568.5 1483.5 556.5 1453.5 c 1,16,-1
EndSplineSet
EndChar
StartChar: seven
Encoding: 55 55 122
Width: 865
VWidth: 3000
Flags: W
LayerCount: 2
Back
Fore
SplineSet
109.5 1501.5 m 2,0,-1
 756 1501.5 l 2,1,2
 790.5 1501.5 790.5 1501.5 790.5 1468.5 c 0,3,4
 790.5 1461 790.5 1461 789 1458 c 2,5,-1
 403.5 -7.5 l 1,6,7
 393 -40.5 393 -40.5 361.5 -31.5 c 0,8,9
 328.5 -21 328.5 -21 337.5 9 c 2,10,-1
 714 1434 l 1,11,-1
 109.5 1434 l 2,12,13
 75 1434 75 1434 75 1468.5 c 0,14,15
 75 1501.5 75 1501.5 109.5 1501.5 c 2,0,-1
EndSplineSet
EndChar
StartChar: eight
Encoding: 56 56 123
Width: 955
VWidth: 3000
Flags: W
LayerCount: 2
Back
Fore
SplineSet
240 603 m 1,0,1
 141 505.5 141 505.5 141 367.5 c 256,2,3
 141 229.5 141 229.5 240 130.5 c 0,4,5
 339 33 339 33 477 33 c 0,6,7
 616.5 33 616.5 33 715.5 130.5 c 0,8,9
 814.5 229.5 814.5 229.5 814.5 367.5 c 256,10,11
 814.5 505.5 814.5 505.5 715.5 603 c 1,12,13
 603 706.5 603 706.5 474 702.75 c 128,-1,14
 345 699 345 699 240 603 c 1,0,1
316.5 735 m 1,15,16
 244.5 765 244.5 765 192 817.5 c 0,17,18
 75 933 75 933 75 1101 c 0,19,20
 75 1267.5 75 1267.5 192 1384.5 c 0,21,22
 310.5 1501.5 310.5 1501.5 477 1501.5 c 256,23,24
 643.5 1501.5 643.5 1501.5 763.5 1384.5 c 1,25,26
 880.5 1267.5 880.5 1267.5 880.5 1101 c 0,27,28
 880.5 933 880.5 933 763.5 817.5 c 0,29,30
 709.5 765 709.5 765 639 735 c 1,31,32
 712.5 699 712.5 699 763.5 649.5 c 0,33,34
 880.5 532.5 880.5 532.5 880.5 367.5 c 0,35,36
 880.5 201 880.5 201 763.5 84 c 0,37,38
 645 -33 645 -33 477 -33 c 256,39,40
 309 -33 309 -33 192 84 c 256,41,42
 75 201 75 201 75 367.5 c 0,43,44
 75 532.5 75 532.5 192 649.5 c 0,45,46
 241.5 699 241.5 699 316.5 735 c 1,15,16
240 865.5 m 0,47,48
 337.5 768 337.5 768 477 768 c 128,-1,49
 616.5 768 616.5 768 715.5 865.5 c 256,50,51
 814.5 963 814.5 963 814.5 1101 c 256,52,53
 814.5 1239 814.5 1239 715.5 1336.5 c 256,54,55
 616.5 1434 616.5 1434 477 1434 c 0,56,57
 339 1434 339 1434 240 1336.5 c 256,58,59
 141 1239 141 1239 141 1101 c 256,60,61
 141 963 141 963 240 865.5 c 0,47,48
EndSplineSet
EndChar
StartChar: nine
Encoding: 57 57 124
Width: 637
Flags: W
LayerCount: 2
Back
Fore
SplineSet
318 367 m 256,0,1
 410 367 410 367 475 451 c 0,2,3
 543 538 543 538 543 662 c 0,4,5
 543 784 543 784 475 872 c 0,6,7
 410 956 410 956 318 956 c 256,8,9
 226 956 226 956 162 872 c 0,10,11
 94 784 94 784 94 662 c 0,12,13
 94 538 94 538 162 451 c 1,14,15
 226 367 226 367 318 367 c 256,0,1
266 10 m 1,16,-1
 436 355 l 1,17,18
 380 322 380 322 318 322 c 0,19,20
 205 322 205 322 127 423 c 1,21,22
 50 521 50 521 50 662 c 0,23,24
 50 801 50 801 127 900 c 0,25,26
 205 1001 205 1001 318 1001 c 256,27,28
 431 1001 431 1001 510 900 c 1,29,30
 587 799 587 799 587 662 c 0,31,32
 587 559 587 559 544 476 c 1,33,-1
 306 -9 l 2,34,35
 297 -28 297 -28 277 -19 c 0,36,37
 255 -10 255 -10 266 10 c 1,16,-1
EndSplineSet
EndChar
StartChar: colon
Encoding: 58 58 137
Width: 303
VWidth: 3000
Flags: W
LayerCount: 2
Back
Fore
SplineSet
78 670.5 m 256,0,1
 78 708 78 708 99.75 734.25 c 128,-1,2
 121.5 760.5 121.5 760.5 153 760.5 c 256,3,4
 184.5 760.5 184.5 760.5 207 734.25 c 128,-1,5
 229.5 708 229.5 708 229.5 670.5 c 256,6,7
 229.5 633 229.5 633 207 607.5 c 128,-1,8
 184.5 582 184.5 582 153 582 c 256,9,10
 121.5 582 121.5 582 99.75 607.5 c 128,-1,11
 78 633 78 633 78 670.5 c 256,0,1
78 61.5 m 256,12,13
 78 99 78 99 99.75 125.25 c 128,-1,14
 121.5 151.5 121.5 151.5 153 151.5 c 256,15,16
 184.5 151.5 184.5 151.5 207 125.25 c 128,-1,17
 229.5 99 229.5 99 229.5 61.5 c 256,18,19
 229.5 24 229.5 24 207 -1.5 c 128,-1,20
 184.5 -27 184.5 -27 153 -27 c 256,21,22
 121.5 -27 121.5 -27 99.75 -1.5 c 128,-1,23
 78 24 78 24 78 61.5 c 256,12,13
EndSplineSet
EndChar

StartChar: semicolon
Encoding: 59 59 147
Width: 177
Flags: W
LayerCount: 2
Fore
SplineSet
58 83 m 0,0,1
 48 106 48 106 84 127 c 128,-1,2
 120 148 120 148 137 123 c 1,3,4
 170 80 170 80 141 4 c 1,5,6
 120 -56 120 -56 55 -151 c 0,7,8
 42 -169 42 -169 23 -156 c 0,9,10
 5 -143 5 -143 17 -124 c 0,11,12
 78 -35 78 -35 98 19 c 0,13,14
 116 69 116 69 90.5 67.5 c 128,-1,15
 65 66 65 66 58 83 c 0,0,1
52 447 m 256,16,17
 52 472 52 472 66.5 489.5 c 128,-1,18
 81 507 81 507 102 507 c 256,19,20
 123 507 123 507 138 489.5 c 128,-1,21
 153 472 153 472 153 447 c 256,22,23
 153 422 153 422 138 405 c 128,-1,24
 123 388 123 388 102 388 c 256,25,26
 81 388 81 388 66.5 405 c 128,-1,27
 52 422 52 422 52 447 c 256,16,17
EndSplineSet
EndChar

StartChar: less
Encoding: 60 60 57
Width: 323
Flags: W
LayerCount: 2
Fore
SplineSet
242 -13 m 2,0,-1
 50 237 l 1,1,-1
 242 485 l 2,2,3
 256 503 256 503 274 490 c 1,4,5
 289 475 289 475 277 460 c 2,6,-1
 105 237 l 1,7,-1
 277 15 l 2,8,9
 289 -2 289 -2 274 -17 c 1,10,11
 256 -30 256 -30 242 -13 c 2,0,-1
EndSplineSet
EndChar
StartChar: equal
Encoding: 61 61 126
Width: 540
Flags: W
LayerCount: 2
Back
Fore
SplineSet
409 261 m 2,0,-1
 127 262 l 2,1,2
 103 262 103 262 104 286 c 1,3,4
 103 308 103 308 127 308 c 2,5,-1
 410 308 l 2,6,7
 432 308 432 308 433 284 c 0,8,9
 433 261 433 261 409 261 c 2,0,-1
409 426 m 2,10,-1
 125 428 l 2,11,12
 102 428 102 428 103 451 c 0,13,14
 103 474 103 474 125 474 c 2,15,-1
 410 474 l 1,16,17
 432 473 432 473 433 450 c 1,18,19
 433 426 433 426 409 426 c 2,10,-1
EndSplineSet
EndChar
StartChar: greater
Encoding: 62 62 56
Width: 323
Flags: W
LayerCount: 2
Back
Fore
SplineSet
97 486 m 2,0,-1
 289 236 l 1,1,-1
 97 -12 l 2,2,3
 83 -30 83 -30 65 -17 c 1,4,5
 50 -2 50 -2 62 13 c 2,6,-1
 234 236 l 1,7,-1
 62 458 l 2,8,9
 50 475 50 475 65 490 c 1,10,11
 83 503 83 503 97 486 c 2,0,-1
EndSplineSet
EndChar
StartChar: question
Encoding: 63 63 53
Width: 483
Flags: W
LayerCount: 2
Back
Fore
SplineSet
-102 802 m 0,0,1
 -67 899 -67 899 -1 950 c 0,2,3
 64 1001 64 1001 157 1001 c 0,4,5
 263 1001 263 1001 339 943 c 0,6,7
 423 880 423 880 428 770 c 128,-1,8
 433 660 433 660 392 602 c 128,-1,9
 351 544 351 544 299 500 c 0,10,11
 248 457 248 457 206.5 397.5 c 128,-1,12
 165 338 165 338 174 198 c 0,13,14
 175 175 175 175 153 175 c 1,15,16
 130 173 130 173 129 196 c 0,17,18
 119 352 119 352 166 419 c 128,-1,19
 213 486 213 486 270 534 c 0,20,21
 315 573 315 573 351.5 623 c 128,-1,22
 388 673 388 673 382 785 c 1,23,24
 372 862 372 862 312 907 c 1,25,26
 249 956 249 956 157 956 c 0,27,28
 80 956 80 956 26 915 c 1,29,30
 -28 872 -28 872 -61 786 c 0,31,32
 -69 764 -69 764 -90 774 c 1,33,34
 -110 780 -110 780 -102 802 c 0,0,1
108 41 m 256,35,36
 108 16 108 16 122.5 -1 c 128,-1,37
 137 -18 137 -18 158 -18 c 256,38,39
 179 -18 179 -18 194 -1 c 128,-1,40
 209 16 209 16 209 41 c 256,41,42
 209 66 209 66 194 83.5 c 128,-1,43
 179 101 179 101 158 101 c 256,44,45
 137 101 137 101 122.5 83.5 c 128,-1,46
 108 66 108 66 108 41 c 256,35,36
EndSplineSet
EndChar

StartChar: at
Encoding: 64 64 125
Width: 561
Flags: W
LayerCount: 2
Fore
SplineSet
385 -90 m 0,0,1
 346 -115 346 -115 305 -127 c 0,2,3
 261 -139 261 -139 217 -139 c 0,4,5
 82 -139 82 -139 -7 -46 c 1,6,7
 -101 45 -101 45 -101 178 c 0,8,9
 -101 310 -101 310 -7 403 c 1,10,11
 84 496 84 496 217 496 c 0,12,13
 218 496 218 496 220.5 496 c 128,-1,14
 223 496 223 496 228 496 c 1,15,-1
 228 496 l 1,16,17
 228 496 228 496 228.5 496 c 128,-1,18
 229 496 229 496 230 496 c 0,19,20
 354 491 354 491 444 403 c 0,21,22
 535 313 535 313 535 188 c 0,23,24
 535 186 535 186 535 183.5 c 128,-1,25
 535 181 535 181 535 178 c 0,26,27
 534 150 534 150 527 109 c 128,-1,28
 520 68 520 68 502 35 c 0,29,30
 471 -23 471 -23 417 -23 c 0,31,32
 335 -23 335 -23 316 37 c 1,33,34
 268 -23 268 -23 189 -23 c 0,35,36
 109 -23 109 -23 65 31 c 1,37,38
 23 85 23 85 23 178 c 0,39,40
 23 261 23 261 60.5 321 c 128,-1,41
 98 381 98 381 189 381 c 0,42,43
 265 381 265 381 310 329 c 1,44,-1
 310 372 l 2,45,46
 310 393 310 393 332 393 c 0,47,48
 355 393 355 393 355 372 c 2,49,-1
 355 178 l 1,50,-1
 355 111 l 1,51,52
 354 57 354 57 369 39 c 128,-1,53
 384 21 384 21 416 21 c 0,54,55
 443 21 443 21 462 56 c 0,56,57
 477 83 477 83 483 118.5 c 128,-1,58
 489 154 489 154 490 179 c 0,59,60
 491 181 491 181 491 188 c 0,61,62
 491 292 491 292 413 372 c 1,63,64
 334 447 334 447 228 452 c 0,65,66
 227 452 227 452 227 452 c 129,-1,67
 227 452 227 452 227 452 c 1,68,-1
 227 452 l 1,69,70
 224 452 224 452 221.5 452 c 128,-1,71
 219 452 219 452 217 452 c 0,72,73
 102 452 102 452 23 372 c 1,74,75
 -56 290 -56 290 -56 178 c 256,76,77
 -56 66 -56 66 23 -14 c 0,78,79
 102 -95 102 -95 217 -95 c 0,80,81
 252 -95 252 -95 292 -84 c 1,82,83
 330 -72 330 -72 362 -53 c 1,84,85
 380 -40 380 -40 393 -60 c 0,86,87
 404 -78 404 -78 385 -90 c 0,0,1
189 336 m 0,88,89
 122 336 122 336 94.5 289.5 c 128,-1,90
 67 243 67 243 67 178 c 0,91,92
 67 100 67 100 100 59 c 0,93,94
 130 21 130 21 189 21 c 256,95,96
 248 21 248 21 277 59 c 1,97,98
 310 99 310 99 310 178 c 0,99,100
 310 256 310 256 277 298 c 0,101,102
 246 336 246 336 189 336 c 0,88,89
EndSplineSet
EndChar
StartChar: A
Encoding: 65 65 3
Width: 1185
VWidth: 3000
Flags: W
LayerCount: 2
Back
Fore
SplineSet
367.5 675 m 1,0,-1
 144 -9 l 2,1,2
 135 -40.5 135 -40.5 102 -30 c 0,3,4
 75 -21 75 -21 81 10.5 c 1,5,-1
 558 1477.5 l 1,6,-1
 558 1477.5 l 1,7,-1
 558 1479 l 1,8,-1
 558 1479 l 1,9,10
 564 1494 564 1494 580.5 1500 c 0,11,12
 610.5 1509 610.5 1509 622.5 1479 c 1,13,-1
 1099.5 10.5 l 2,14,15
 1110 -19.5 1110 -19.5 1078.5 -30 c 256,16,17
 1047 -40.5 1047 -40.5 1035 -9 c 1,18,-1
 813 675 l 1,19,-1
 367.5 675 l 1,0,-1
589.5 1359 m 1,20,-1
 390 742.5 l 1,21,-1
 792 742.5 l 1,22,-1
 589.5 1359 l 1,20,-1
EndSplineSet
EndChar
StartChar: B
Encoding: 66 66 4
Width: 868
VWidth: 3000
Flags: W
LayerCount: 2
Back
Fore
SplineSet
361.5 700.5 m 2,0,-1
 142.5 700.5 l 1,1,-1
 142.5 33 l 1,2,-1
 361.5 33 l 2,3,4
 540 33 540 33 633 120 c 1,5,6
 726 202.5 726 202.5 726 367.5 c 0,7,8
 726 528 726 528 633 615 c 0,9,10
 540 700.5 540 700.5 361.5 700.5 c 2,0,-1
100.5 -31.5 m 0,11,12
 75 -24 75 -24 75 3 c 2,13,-1
 75 1468.5 l 2,14,15
 75 1501.5 75 1501.5 108 1501.5 c 2,16,17
 108 1501.5 108 1501.5 108.75 1501.5 c 128,-1,18
 109.5 1501.5 109.5 1501.5 111 1501.5 c 2,19,-1
 358.5 1501.5 l 1,20,21
 358.5 1501.5 358.5 1501.5 359.25 1501.5 c 128,-1,22
 360 1501.5 360 1501.5 361.5 1501.5 c 0,23,24
 565.5 1501.5 565.5 1501.5 679.5 1398 c 1,25,26
 793.5 1290 793.5 1290 793.5 1101 c 0,27,28
 793.5 909 793.5 909 679.5 804 c 0,29,30
 630 759 630 759 564 735 c 1,31,32
 631.5 706.5 631.5 706.5 679.5 663 c 0,33,34
 793.5 558 793.5 558 793.5 367.5 c 256,35,36
 793.5 177 793.5 177 679.5 69 c 1,37,38
 564 -33 564 -33 361.5 -33 c 2,39,-1
 108 -33 l 2,40,41
 102 -33 102 -33 100.5 -31.5 c 0,11,12
142.5 1435.5 m 1,42,-1
 142.5 768 l 1,43,-1
 361.5 768 l 2,44,45
 540 768 540 768 633 853.5 c 256,46,47
 726 939 726 939 726 1101 c 256,48,49
 726 1263 726 1263 633 1348.5 c 256,50,51
 540 1434 540 1434 361.5 1434 c 0,52,53
 358.5 1434 358.5 1434 358.5 1435.5 c 1,54,-1
 142.5 1435.5 l 1,42,-1
EndSplineSet
EndChar
StartChar: C
Encoding: 67 67 5
Width: 684
Flags: W
LayerCount: 2
Back
Fore
SplineSet
625 183 m 1,0,1
 586 81 586 81 521 31 c 0,2,3
 453 -22 453 -22 361 -22 c 0,4,5
 209 -22 209 -22 129 115 c 1,6,7
 87 184 87 184 68.5 281 c 128,-1,8
 50 378 50 378 50 490 c 0,9,10
 50 600 50 600 68.5 696.5 c 128,-1,11
 87 793 87 793 129 864 c 0,12,13
 209 1001 209 1001 361 1001 c 0,14,15
 453 1001 453 1001 521 948 c 0,16,17
 587 896 587 896 625 796 c 0,18,19
 634 774 634 774 613 767 c 0,20,21
 591 759 591 759 584 780 c 1,22,23
 549 869 549 869 494 913 c 0,24,25
 439 956 439 956 361 956 c 0,26,27
 234 956 234 956 167 842 c 0,28,29
 129 777 129 777 112 685.5 c 128,-1,30
 95 594 95 594 95 490 c 0,31,32
 95 383 95 383 112 292.5 c 128,-1,33
 129 202 129 202 167 138 c 0,34,35
 234 22 234 22 361 22 c 0,36,37
 438 22 438 22 494 66 c 0,38,39
 550 109 550 109 584 199 c 0,40,41
 591 219 591 219 613 212 c 1,42,43
 634 203 634 203 625 183 c 1,0,1
EndSplineSet
EndChar
StartChar: D
Encoding: 68 68 6
Width: 621
Flags: W
LayerCount: 2
Back
Fore
SplineSet
260 1001 m 2,0,1
 412 1001 412 1001 492 864 c 0,2,3
 534 793 534 793 552.5 696.5 c 128,-1,4
 571 600 571 600 571 490 c 0,5,6
 571 378 571 378 552.5 281 c 128,-1,7
 534 184 534 184 492 115 c 1,8,9
 412 -22 412 -22 260 -22 c 2,10,-1
 72 -22 l 2,11,12
 50 -22 50 -22 50 0 c 2,13,-1
 50 979 l 2,14,15
 50 1001 50 1001 72 1001 c 2,16,-1
 260 1001 l 2,0,1
260 22 m 2,17,18
 386 22 386 22 454 138 c 0,19,20
 492 202 492 202 509 292.5 c 128,-1,21
 526 383 526 383 526 490 c 0,22,23
 526 594 526 594 509 685.5 c 128,-1,24
 492 777 492 777 454 842 c 0,25,26
 386 956 386 956 260 956 c 2,27,-1
 95 956 l 1,28,-1
 95 22 l 1,29,-1
 260 22 l 2,17,18
EndSplineSet
EndChar
StartChar: E
Encoding: 69 69 7
Width: 823
VWidth: 3000
Flags: W
LayerCount: 2
Back
Fore
SplineSet
142.5 675 m 1,0,-1
 142.5 33 l 1,1,-1
 715.5 33 l 2,2,3
 748.5 33 748.5 33 748.5 0 c 256,4,5
 748.5 -33 748.5 -33 715.5 -33 c 2,6,-1
 108 -33 l 2,7,8
 75 -33 75 -33 75 0 c 2,9,-1
 75 708 l 1,10,-1
 75 1468.5 l 2,11,12
 75 1501.5 75 1501.5 108 1501.5 c 2,13,-1
 715.5 1501.5 l 2,14,15
 748.5 1501.5 748.5 1501.5 748.5 1468.5 c 0,16,17
 748.5 1434 748.5 1434 715.5 1434 c 2,18,-1
 142.5 1434 l 1,19,-1
 142.5 742.5 l 1,20,-1
 715.5 742.5 l 2,21,22
 748.5 742.5 748.5 742.5 748.5 708 c 0,23,24
 748.5 675 748.5 675 715.5 675 c 2,25,-1
 142.5 675 l 1,0,-1
EndSplineSet
EndChar

StartChar: F
Encoding: 70 70 8
Width: 549
Flags: W
LayerCount: 2
Fore
SplineSet
95 450 m 1,0,-1
 95 0 l 2,1,2
 95 -22 95 -22 72 -22 c 0,3,4
 50 -22 50 -22 50 0 c 2,5,-1
 50 472 l 1,6,-1
 50 979 l 2,7,8
 50 1001 50 1001 72 1001 c 2,9,-1
 477 1001 l 2,10,11
 499 1001 499 1001 499 979 c 0,12,13
 499 956 499 956 477 956 c 2,14,-1
 95 956 l 1,15,-1
 95 495 l 1,16,-1
 477 495 l 2,17,18
 499 495 499 495 499 472 c 0,19,20
 499 450 499 450 477 450 c 2,21,-1
 95 450 l 1,0,-1
EndSplineSet
EndChar
StartChar: G
Encoding: 71 71 9
Width: 1144
VWidth: 3000
Flags: W
LayerCount: 2
Back
Fore
SplineSet
1038 675 m 2,0,-1
 940.5 675 l 1,1,-1
 940.5 0 l 2,2,3
 940.5 -33 940.5 -33 906 -33 c 0,4,5
 873 -33 873 -33 873 0 c 2,6,-1
 873 145.5 l 1,7,8
 832.5 84 832.5 84 781.5 46.5 c 1,9,10
 679.5 -33 679.5 -33 541.5 -33 c 0,11,12
 313.5 -33 313.5 -33 193.5 172.5 c 1,13,14
 130.5 276 130.5 276 102.75 421.5 c 128,-1,15
 75 567 75 567 75 735 c 0,16,17
 75 900 75 900 102.75 1044.75 c 128,-1,18
 130.5 1189.5 130.5 1189.5 193.5 1296 c 0,19,20
 313.5 1501.5 313.5 1501.5 541.5 1501.5 c 0,21,22
 679.5 1501.5 679.5 1501.5 781.5 1422 c 0,23,24
 880.5 1344 880.5 1344 937.5 1194 c 0,25,26
 951 1161 951 1161 919.5 1150.5 c 0,27,28
 886.5 1138.5 886.5 1138.5 876 1170 c 1,29,30
 823.5 1303.5 823.5 1303.5 741 1369.5 c 0,31,32
 658.5 1434 658.5 1434 541.5 1434 c 0,33,34
 351 1434 351 1434 250.5 1263 c 0,35,36
 193.5 1165.5 193.5 1165.5 168 1028.25 c 128,-1,37
 142.5 891 142.5 891 142.5 735 c 0,38,39
 142.5 574.5 142.5 574.5 168 438.75 c 128,-1,40
 193.5 303 193.5 303 250.5 207 c 0,41,42
 351 33 351 33 541.5 33 c 0,43,44
 657 33 657 33 741 99 c 0,45,46
 823.5 163.5 823.5 163.5 873 292.5 c 1,47,-1
 873 675 l 1,48,-1
 687 675 l 2,49,50
 655.5 675 655.5 675 655.5 708 c 0,51,52
 655.5 742.5 655.5 742.5 687 742.5 c 2,53,-1
 906 742.5 l 1,54,-1
 1038 742.5 l 2,55,56
 1069.5 742.5 1069.5 742.5 1069.5 708 c 0,57,58
 1069.5 675 1069.5 675 1038 675 c 2,0,-1
EndSplineSet
EndChar
StartChar: H
Encoding: 72 72 10
Width: 936
VWidth: 3000
Flags: W
LayerCount: 2
Back
Fore
SplineSet
861 1468.5 m 2,0,-1
 861 0 l 2,1,2
 861 -33 861 -33 826.5 -33 c 0,3,4
 793.5 -33 793.5 -33 793.5 0 c 2,5,-1
 793.5 678 l 1,6,7
 789 675 789 675 781.5 675 c 2,8,-1
 142.5 675 l 1,9,-1
 142.5 0 l 2,10,11
 142.5 -33 142.5 -33 108 -33 c 0,12,13
 75 -33 75 -33 75 0 c 2,14,-1
 75 708 l 1,15,-1
 75 1468.5 l 2,16,17
 75 1501.5 75 1501.5 108 1501.5 c 0,18,19
 142.5 1501.5 142.5 1501.5 142.5 1468.5 c 2,20,-1
 142.5 742.5 l 1,21,-1
 781.5 742.5 l 2,22,23
 786 742.5 786 742.5 793.5 739.5 c 1,24,-1
 793.5 1468.5 l 2,25,26
 793.5 1501.5 793.5 1501.5 826.5 1501.5 c 0,27,28
 861 1501.5 861 1501.5 861 1468.5 c 2,0,-1
EndSplineSet
EndChar
StartChar: I
Encoding: 73 73 11
Width: 640
VWidth: 3000
Flags: W
LayerCount: 2
Back
Fore
SplineSet
108 33 m 2,0,-1
 286.5 33 l 1,1,-1
 286.5 1434 l 1,2,-1
 108 1434 l 2,3,4
 75 1434 75 1434 75 1468.5 c 0,5,6
 75 1501.5 75 1501.5 108 1501.5 c 2,7,-1
 321 1501.5 l 1,8,-1
 532.5 1501.5 l 2,9,10
 565.5 1501.5 565.5 1501.5 565.5 1468.5 c 0,11,12
 565.5 1434 565.5 1434 532.5 1434 c 2,13,-1
 354 1434 l 1,14,-1
 354 33 l 1,15,-1
 532.5 33 l 2,16,17
 565.5 33 565.5 33 565.5 0 c 256,18,19
 565.5 -33 565.5 -33 532.5 -33 c 2,20,-1
 321 -33 l 1,21,-1
 321 -33 l 1,22,-1
 321 -33 l 1,23,-1
 108 -33 l 2,24,25
 75 -33 75 -33 75 0 c 256,26,27
 75 33 75 33 108 33 c 2,0,-1
EndSplineSet
EndChar
StartChar: J
Encoding: 74 74 12
Width: 793
VWidth: 3000
Flags: W
LayerCount: 2
Back
Fore
SplineSet
639 354 m 2,0,-1
 639 1434 l 1,1,-1
 460.5 1434 l 2,2,3
 427.5 1434 427.5 1434 427.5 1468.5 c 0,4,5
 427.5 1501.5 427.5 1501.5 460.5 1501.5 c 2,6,-1
 672 1501.5 l 1,7,-1
 883.5 1501.5 l 2,8,9
 918 1501.5 918 1501.5 918 1468.5 c 0,10,11
 918 1434 918 1434 883.5 1434 c 2,12,-1
 706.5 1434 l 1,13,-1
 706.5 354 l 2,14,15
 706.5 172.5 706.5 172.5 625.5 70.5 c 0,16,17
 543 -33 543 -33 390 -33 c 0,18,19
 240 -33 240 -33 156 70.5 c 0,20,21
 75 171 75 171 75 354 c 0,22,23
 75 387 75 387 108 387 c 0,24,25
 142.5 387 142.5 387 142.5 354 c 0,26,27
 142.5 195 142.5 195 208.5 112.5 c 1,28,29
 270 33 270 33 390 33 c 256,30,31
 510 33 510 33 573 112.5 c 0,32,33
 639 195 639 195 639 354 c 2,0,-1
EndSplineSet
EndChar
StartChar: K
Encoding: 75 75 13
Width: 931
VWidth: 3000
Flags: W
LayerCount: 2
Back
Fore
SplineSet
834 1446 m 2,0,-1
 154.5 735 l 1,1,-1
 834 22.5 l 2,2,3
 855 0 855 0 832.5 -22.5 c 0,4,5
 808.5 -46.5 808.5 -46.5 786 -21 c 2,6,-1
 142.5 651 l 1,7,-1
 142.5 0 l 2,8,9
 142.5 -33 142.5 -33 108 -33 c 0,10,11
 75 -33 75 -33 75 0 c 2,12,-1
 75 735 l 1,13,-1
 75 1468.5 l 2,14,15
 75 1501.5 75 1501.5 108 1501.5 c 0,16,17
 142.5 1501.5 142.5 1501.5 142.5 1468.5 c 2,18,-1
 142.5 817.5 l 1,19,-1
 786 1491 l 2,20,21
 808.5 1513.5 808.5 1513.5 832.5 1492.5 c 1,22,23
 856.5 1468.5 856.5 1468.5 834 1446 c 2,0,-1
EndSplineSet
EndChar
StartChar: L
Encoding: 76 76 14
Width: 823
VWidth: 3000
Flags: W
LayerCount: 2
Back
Fore
SplineSet
142.5 1468.5 m 2,0,-1
 142.5 33 l 1,1,-1
 715.5 33 l 2,2,3
 748.5 33 748.5 33 748.5 0 c 256,4,5
 748.5 -33 748.5 -33 715.5 -33 c 2,6,-1
 108 -33 l 2,7,8
 75 -33 75 -33 75 0 c 2,9,-1
 75 1468.5 l 2,10,11
 75 1501.5 75 1501.5 108 1501.5 c 0,12,13
 142.5 1501.5 142.5 1501.5 142.5 1468.5 c 2,0,-1
EndSplineSet
EndChar
StartChar: M
Encoding: 77 77 15
Width: 1201
VWidth: 3000
Flags: W
LayerCount: 2
Back
Fore
SplineSet
1125 1473 m 0,0,1
 1126.5 1471.5 1126.5 1471.5 1126.5 1468.5 c 2,2,-1
 1126.5 0 l 2,3,4
 1126.5 -33 1126.5 -33 1092 -33 c 0,5,6
 1059 -33 1059 -33 1059 0 c 2,7,-1
 1059 1263 l 1,8,-1
 631.5 -9 l 1,9,10
 631.5 -9 631.5 -9 631.5 -9.75 c 128,-1,11
 631.5 -10.5 631.5 -10.5 631.5 -10.5 c 2,12,13
 631.5 -12 631.5 -12 630 -12 c 0,14,15
 624 -25.5 624 -25.5 610.5 -30 c 0,16,17
 577.5 -40.5 577.5 -40.5 568.5 -9 c 2,18,-1
 142.5 1263 l 1,19,-1
 142.5 0 l 2,20,21
 142.5 -33 142.5 -33 108 -33 c 0,22,23
 75 -33 75 -33 75 0 c 2,24,-1
 75 1468.5 l 1,25,26
 75 1468.5 75 1468.5 75 1470 c 128,-1,27
 75 1471.5 75 1471.5 75 1473 c 0,28,29
 76.5 1491 76.5 1491 97.5 1500 c 1,30,31
 130.5 1509 130.5 1509 139.5 1479 c 2,32,-1
 600 105 l 1,33,-1
 1060.5 1479 l 2,34,35
 1069.5 1509 1069.5 1509 1102.5 1500 c 1,36,37
 1122 1491 1122 1491 1125 1473 c 0,0,1
EndSplineSet
EndChar
StartChar: N
Encoding: 78 78 16
Width: 964
VWidth: 3000
Flags: W
LayerCount: 2
Back
Fore
SplineSet
889.5 1468.5 m 2,0,-1
 889.5 0 l 2,1,2
 889.5 -33 889.5 -33 855 -33 c 0,3,4
 834 -33 834 -33 825 -12 c 1,5,-1
 142.5 1329 l 1,6,-1
 142.5 0 l 2,7,8
 142.5 -33 142.5 -33 108 -33 c 0,9,10
 75 -33 75 -33 75 0 c 2,11,-1
 75 1468.5 l 1,12,13
 75 1468.5 75 1468.5 75 1468.5 c 129,-1,14
 75 1468.5 75 1468.5 75 1470 c 0,15,16
 75 1489.5 75 1489.5 93 1497 c 0,17,18
 123 1512 123 1512 138 1483.5 c 2,19,-1
 822 139.5 l 1,20,-1
 822 1468.5 l 2,21,22
 822 1501.5 822 1501.5 855 1501.5 c 0,23,24
 889.5 1501.5 889.5 1501.5 889.5 1468.5 c 2,0,-1
EndSplineSet
EndChar
StartChar: O
Encoding: 79 79 17
Width: 1083
VWidth: 3000
Flags: W
LayerCount: 2
Back
Fore
SplineSet
541.5 1501.5 m 0,0,1
 768 1501.5 768 1501.5 891 1296 c 1,2,3
 951 1189.5 951 1189.5 979.5 1044.75 c 128,-1,4
 1008 900 1008 900 1008 735 c 0,5,6
 1008 567 1008 567 979.5 421.5 c 128,-1,7
 951 276 951 276 891 172.5 c 1,8,9
 766.5 -33 766.5 -33 541.5 -33 c 0,10,11
 313.5 -33 313.5 -33 193.5 172.5 c 1,12,13
 130.5 276 130.5 276 102.75 421.5 c 128,-1,14
 75 567 75 567 75 735 c 0,15,16
 75 900 75 900 102.75 1044.75 c 128,-1,17
 130.5 1189.5 130.5 1189.5 193.5 1296 c 0,18,19
 313.5 1501.5 313.5 1501.5 541.5 1501.5 c 0,0,1
832.5 1263 m 1,20,21
 730.5 1434 730.5 1434 541.5 1434 c 0,22,23
 351 1434 351 1434 250.5 1263 c 0,24,25
 193.5 1165.5 193.5 1165.5 168 1028.25 c 128,-1,26
 142.5 891 142.5 891 142.5 735 c 0,27,28
 142.5 574.5 142.5 574.5 168 438.75 c 128,-1,29
 193.5 303 193.5 303 250.5 207 c 0,30,31
 351 33 351 33 541.5 33 c 0,32,33
 730.5 33 730.5 33 832.5 207 c 0,34,35
 888 303 888 303 915 438.75 c 128,-1,36
 942 574.5 942 574.5 942 735 c 0,37,38
 942 891 942 891 915 1028.25 c 128,-1,39
 888 1165.5 888 1165.5 832.5 1263 c 1,20,21
EndSplineSet
EndChar
StartChar: P
Encoding: 80 80 18
Width: 868
VWidth: 3000
Flags: W
LayerCount: 2
Back
Fore
SplineSet
361.5 700.5 m 2,0,-1
 142.5 700.5 l 1,1,-1
 142.5 0 l 2,2,3
 142.5 -33 142.5 -33 108 -33 c 0,4,5
 75 -33 75 -33 75 0 c 2,6,-1
 75 1468.5 l 2,7,8
 75 1501.5 75 1501.5 108 1501.5 c 2,9,10
 108 1501.5 108 1501.5 108.75 1501.5 c 128,-1,11
 109.5 1501.5 109.5 1501.5 111 1501.5 c 2,12,-1
 358.5 1501.5 l 1,13,14
 358.5 1501.5 358.5 1501.5 359.25 1501.5 c 128,-1,15
 360 1501.5 360 1501.5 361.5 1501.5 c 0,16,17
 565.5 1501.5 565.5 1501.5 679.5 1398 c 1,18,19
 793.5 1290 793.5 1290 793.5 1101 c 0,20,21
 793.5 909 793.5 909 679.5 804 c 0,22,23
 565.5 700.5 565.5 700.5 361.5 700.5 c 2,0,-1
142.5 1435.5 m 1,24,-1
 142.5 768 l 1,25,-1
 361.5 768 l 2,26,27
 540 768 540 768 633 853.5 c 256,28,29
 726 939 726 939 726 1101 c 256,30,31
 726 1263 726 1263 633 1348.5 c 256,32,33
 540 1434 540 1434 361.5 1434 c 0,34,35
 358.5 1434 358.5 1434 358.5 1435.5 c 1,36,-1
 142.5 1435.5 l 1,24,-1
EndSplineSet
EndChar
StartChar: Q
Encoding: 81 81 19
Width: 1096
VWidth: 3000
Flags: W
LayerCount: 2
Back
Fore
SplineSet
949.5 -22.5 m 2,0,-1
 832.5 93 l 1,1,2
 718.5 -33 718.5 -33 541.5 -33 c 0,3,4
 313.5 -33 313.5 -33 193.5 172.5 c 1,5,6
 130.5 276 130.5 276 102.75 421.5 c 128,-1,7
 75 567 75 567 75 735 c 0,8,9
 75 900 75 900 102.75 1044.75 c 128,-1,10
 130.5 1189.5 130.5 1189.5 193.5 1296 c 0,11,12
 313.5 1501.5 313.5 1501.5 541.5 1501.5 c 0,13,14
 768 1501.5 768 1501.5 891 1296 c 1,15,16
 951 1189.5 951 1189.5 979.5 1044.75 c 128,-1,17
 1008 900 1008 900 1008 735 c 0,18,19
 1008 567 1008 567 979.5 421.5 c 128,-1,20
 951 276 951 276 891 172.5 c 0,21,22
 877.5 150 877.5 150 874.5 147 c 1,23,-1
 997.5 24 l 2,24,25
 1021.5 1.5 1021.5 1.5 997.5 -22.5 c 256,26,27
 973.5 -46.5 973.5 -46.5 949.5 -22.5 c 2,0,-1
825 195 m 1,28,29
 831 202.5 831 202.5 832.5 207 c 0,30,31
 888 303 888 303 915 438.75 c 128,-1,32
 942 574.5 942 574.5 942 735 c 0,33,34
 942 891 942 891 915 1028.25 c 128,-1,35
 888 1165.5 888 1165.5 832.5 1263 c 1,36,37
 730.5 1434 730.5 1434 541.5 1434 c 0,38,39
 351 1434 351 1434 250.5 1263 c 0,40,41
 193.5 1165.5 193.5 1165.5 168 1028.25 c 128,-1,42
 142.5 891 142.5 891 142.5 735 c 0,43,44
 142.5 574.5 142.5 574.5 168 438.75 c 128,-1,45
 193.5 303 193.5 303 250.5 207 c 0,46,47
 351 33 351 33 541.5 33 c 0,48,49
 688.5 33 688.5 33 786 142.5 c 1,50,-1
 519 406.5 l 2,51,52
 496.5 430.5 496.5 430.5 519 454.5 c 0,53,54
 543 478.5 543 478.5 567 454.5 c 2,55,-1
 825 195 l 1,28,29
EndSplineSet
EndChar
StartChar: R
Encoding: 82 82 20
Width: 880
VWidth: 3000
Flags: W
LayerCount: 2
Back
Fore
SplineSet
142.5 646.5 m 1,0,-1
 142.5 0 l 2,1,2
 142.5 -33 142.5 -33 108 -33 c 0,3,4
 75 -33 75 -33 75 0 c 2,5,-1
 75 735 l 1,6,-1
 75 1468.5 l 1,7,8
 75 1468.5 75 1468.5 75 1469.25 c 128,-1,9
 75 1470 75 1470 75 1471.5 c 0,10,11
 78 1501.5 78 1501.5 108 1501.5 c 2,12,-1
 358.5 1501.5 l 1,13,14
 358.5 1501.5 358.5 1501.5 359.25 1501.5 c 128,-1,15
 360 1501.5 360 1501.5 361.5 1501.5 c 0,16,17
 565.5 1501.5 565.5 1501.5 679.5 1398 c 1,18,19
 793.5 1290 793.5 1290 793.5 1101 c 0,20,21
 793.5 909 793.5 909 679.5 804 c 0,22,23
 565.5 700.5 565.5 700.5 361.5 700.5 c 2,24,-1
 183 700.5 l 1,25,-1
 784.5 22.5 l 2,26,27
 805.5 -1.5 805.5 -1.5 781.5 -24 c 256,28,29
 757.5 -46.5 757.5 -46.5 735 -21 c 2,30,-1
 142.5 646.5 l 1,0,-1
142.5 1435.5 m 1,31,-1
 142.5 768 l 1,32,-1
 361.5 768 l 2,33,34
 540 768 540 768 633 853.5 c 256,35,36
 726 939 726 939 726 1101 c 256,37,38
 726 1263 726 1263 633 1348.5 c 256,39,40
 540 1434 540 1434 361.5 1434 c 0,41,42
 358.5 1434 358.5 1434 358.5 1435.5 c 1,43,-1
 142.5 1435.5 l 1,31,-1
EndSplineSet
EndChar
StartChar: S
Encoding: 83 83 21
Width: 984
VWidth: 3000
Flags: W
LayerCount: 2
Back
Fore
SplineSet
147 294 m 0,0,1
 196.5 162 196.5 162 277.5 97.5 c 0,2,3
 357 33 357 33 474 33 c 0,4,5
 615 33 615 33 711 109.5 c 1,6,7
 802.5 180 802.5 180 816 298.5 c 0,8,9
 838.5 502.5 838.5 502.5 719.25 591.75 c 128,-1,10
 600 681 600 681 459 744 c 0,11,12
 309 811.5 309 811.5 192 898.5 c 128,-1,13
 75 985.5 75 985.5 97.5 1185 c 0,14,15
 114 1327.5 114 1327.5 226.5 1414.5 c 0,16,17
 337.5 1501.5 337.5 1501.5 501 1501.5 c 0,18,19
 636 1501.5 636 1501.5 736.5 1425 c 1,20,21
 834 1348.5 834 1348.5 889.5 1203 c 1,22,23
 898.5 1170 898.5 1170 870 1161 c 1,24,25
 838.5 1146 838.5 1146 826.5 1179 c 0,26,27
 778.5 1306.5 778.5 1306.5 694.5 1372.5 c 1,28,29
 613.5 1434 613.5 1434 501 1434 c 0,30,31
 360 1434 360 1434 268.5 1360.5 c 1,32,33
 177 1293 177 1293 163.5 1177.5 c 0,34,35
 144 1014 144 1014 248.25 939.75 c 128,-1,36
 352.5 865.5 352.5 865.5 486 805.5 c 0,37,38
 645 735 645 735 777 633 c 128,-1,39
 909 531 909 531 883.5 291 c 1,40,41
 864 144 864 144 753 55.5 c 1,42,43
 636 -33 636 -33 474 -33 c 1,44,45
 339 -31.5 339 -31.5 237 45 c 1,46,47
 138 121.5 138 121.5 85.5 271.5 c 0,48,49
 75 303 75 303 105 313.5 c 0,50,51
 135 325.5 135 325.5 147 294 c 0,0,1
EndSplineSet
EndChar
StartChar: T
Encoding: 84 84 22
Width: 1042
VWidth: 3000
Flags: W
LayerCount: 2
Back
Fore
SplineSet
108 1501.5 m 2,0,-1
 522 1501.5 l 1,1,-1
 934.5 1501.5 l 2,2,3
 967.5 1501.5 967.5 1501.5 967.5 1468.5 c 0,4,5
 967.5 1434 967.5 1434 934.5 1434 c 2,6,-1
 555 1434 l 1,7,-1
 555 0 l 2,8,9
 555 -33 555 -33 522 -33 c 256,10,11
 489 -33 489 -33 489 0 c 2,12,-1
 489 1434 l 1,13,-1
 108 1434 l 2,14,15
 75 1434 75 1434 75 1468.5 c 0,16,17
 75 1501.5 75 1501.5 108 1501.5 c 2,0,-1
EndSplineSet
EndChar

StartChar: U
Encoding: 85 85 23
Width: 722
Flags: W
LayerCount: 2
Fore
SplineSet
672 394 m 2,0,1
 672 304 672 304 653 224.5 c 128,-1,2
 634 145 634 145 592 89 c 0,3,4
 511 -22 511 -22 361 -22 c 0,5,6
 210 -22 210 -22 130 89 c 1,7,8
 87 145 87 145 68.5 224.5 c 128,-1,9
 50 304 50 304 50 394 c 2,10,-1
 50 979 l 2,11,12
 50 1001 50 1001 72 1001 c 0,13,14
 95 1001 95 1001 95 979 c 2,15,-1
 95 394 l 2,16,17
 95 212 95 212 165 115 c 0,18,19
 233 22 233 22 361 22 c 0,20,21
 487 22 487 22 556 115 c 0,22,23
 628 212 628 212 628 394 c 2,24,-1
 628 979 l 2,25,26
 628 1001 628 1001 649 1001 c 0,27,28
 672 1001 672 1001 672 979 c 2,29,-1
 672 394 l 2,0,1
EndSplineSet
EndChar

StartChar: V
Encoding: 86 86 24
Width: 789
Flags: W
LayerCount: 2
Fore
SplineSet
415 -6 m 1,0,1
 415 -11 415 -11 409 -14.5 c 128,-1,2
 403 -18 403 -18 394 -18 c 256,3,4
 385 -18 385 -18 378.5 -14.5 c 128,-1,5
 372 -11 372 -11 372 -6 c 1,6,-1
 54 972 l 1,7,8
 50 993 50 993 68 1000 c 1,9,10
 90 1006 90 1006 96 986 c 2,11,-1
 393 72 l 1,12,-1
 690 986 l 2,13,14
 697 1006 697 1006 719 1000 c 1,15,16
 739 992 739 992 733 972 c 2,17,-1
 415 -6 l 1,0,1
EndSplineSet
EndChar
StartChar: W
Encoding: 87 87 25
Width: 1641
VWidth: 3000
Flags: W
LayerCount: 2
Back
Fore
SplineSet
1141.5 -6 m 1,0,-1
 820.5 1326 l 1,1,-1
 499.5 -6 l 2,2,3
 492 -40.5 492 -40.5 459 -31.5 c 0,4,5
 438 -27 438 -27 435 -6 c 1,6,-1
 81 1461 l 1,7,8
 75 1492.5 75 1492.5 105 1500 c 0,9,10
 135 1509 135 1509 145.5 1476 c 1,11,-1
 466.5 142.5 l 1,12,-1
 787.5 1476 l 2,13,14
 792 1495.5 792 1495.5 813 1500 c 0,15,16
 844.5 1509 844.5 1509 852 1476 c 2,17,-1
 1174.5 142.5 l 1,18,-1
 1495.5 1476 l 1,19,20
 1501.5 1509 1501.5 1509 1534.5 1500 c 0,21,22
 1566 1492.5 1566 1492.5 1560 1461 c 1,23,-1
 1206 -6 l 1,24,25
 1206 -6 1206 -6 1206 -6.75 c 128,-1,26
 1206 -7.5 1206 -7.5 1206 -7.5 c 1,27,-1
 1206 -7.5 l 1,28,-1
 1206 -9 l 1,29,-1
 1206 -9 l 1,30,31
 1200 -27 1200 -27 1182 -31.5 c 0,32,33
 1147.5 -40.5 1147.5 -40.5 1141.5 -6 c 1,0,-1
EndSplineSet
EndChar
StartChar: X
Encoding: 88 88 26
Width: 961
VWidth: 3000
Flags: W
LayerCount: 2
Back
Fore
SplineSet
810 -13.5 m 1,0,-1
 478.5 658.5 l 1,1,-1
 148.5 -13.5 l 1,2,3
 133.5 -40.5 133.5 -40.5 103.5 -28.5 c 1,4,5
 75 -13.5 75 -13.5 88.5 15 c 2,6,-1
 442.5 735 l 1,7,-1
 88.5 1453.5 l 1,8,9
 76.5 1483.5 76.5 1483.5 103.5 1497 c 0,10,11
 132 1512 132 1512 148.5 1483.5 c 1,12,-1
 478.5 808.5 l 1,13,-1
 810 1483.5 l 1,14,15
 826.5 1512 826.5 1512 855 1497 c 1,16,17
 885 1483.5 885 1483.5 870 1453.5 c 2,18,-1
 516 735 l 1,19,-1
 870 15 l 1,20,21
 886.5 -13.5 886.5 -13.5 855 -28.5 c 1,22,23
 825 -40.5 825 -40.5 810 -13.5 c 1,0,-1
EndSplineSet
EndChar
StartChar: Y
Encoding: 89 89 27
Width: 639
Flags: W
LayerCount: 2
Back
Fore
SplineSet
98 989 m 1,0,-1
 318 539 l 1,1,-1
 539 989 l 1,2,3
 550 1008 550 1008 569 998 c 1,4,5
 589 989 589 989 579 969 c 2,6,-1
 341 485 l 1,7,-1
 341 0 l 2,8,9
 341 -22 341 -22 318 -22 c 0,10,11
 296 -22 296 -22 296 0 c 2,12,-1
 296 485 l 1,13,-1
 58 969 l 1,14,15
 50 989 50 989 68 998 c 0,16,17
 87 1008 87 1008 98 989 c 1,0,-1
EndSplineSet
EndChar
StartChar: Z
Encoding: 90 90 28
Width: 937
VWidth: 3000
Flags: W
LayerCount: 2
Back
Fore
SplineSet
79.5 18 m 2,0,-1
 775.5 1434 l 1,1,-1
 108 1434 l 2,2,3
 75 1434 75 1434 75 1468.5 c 0,4,5
 75 1501.5 75 1501.5 108 1501.5 c 2,6,-1
 829.5 1501.5 l 2,7,8
 862.5 1501.5 862.5 1501.5 862.5 1468.5 c 0,9,10
 862.5 1456.5 862.5 1456.5 858 1450.5 c 2,11,-1
 162 33 l 1,12,-1
 829.5 33 l 2,13,14
 862.5 33 862.5 33 862.5 0 c 256,15,16
 862.5 -33 862.5 -33 829.5 -33 c 2,17,-1
 108 -33 l 2,18,19
 75 -33 75 -33 75 0 c 0,20,21
 75 10.5 75 10.5 79.5 18 c 2,0,-1
EndSplineSet
EndChar
StartChar: bracketleft
Encoding: 91 91 188
Width: 294
VWidth: 3000
Flags: W
LayerCount: 2
Back
Fore
SplineSet
135 1599 m 2,0,-1
 315 1599 l 2,1,2
 348 1599 348 1599 348 1564.5 c 0,3,4
 348 1531.5 348 1531.5 315 1531.5 c 2,5,-1
 169.5 1531.5 l 1,6,-1
 169.5 -67.5 l 1,7,-1
 315 -67.5 l 2,8,9
 348 -67.5 348 -67.5 348 -102 c 0,10,11
 348 -135 348 -135 315 -135 c 2,12,-1
 139.5 -135 l 1,13,-1
 135 -135 l 2,14,15
 129 -135 129 -135 124.5 -133.5 c 0,16,17
 118.5 -132 118.5 -132 114 -130.5 c 0,18,19
 105 -124.5 105 -124.5 102 -112.5 c 0,20,21
 102 -108 102 -108 102 -102 c 2,22,-1
 102 -96 l 1,23,-1
 102 1564.5 l 2,24,25
 102 1599 102 1599 135 1599 c 2,0,-1
EndSplineSet
EndChar
StartChar: backslash
Encoding: 92 92 151
Width: 810
VWidth: 3000
Flags: W
LayerCount: 2
Back
Fore
SplineSet
25.5 1452 m 1,0,1
 12 1482 12 1482 42 1497 c 256,2,3
 72 1512 72 1512 87 1482 c 2,4,-1
 778.5 49.5 l 2,5,6
 793.5 19.5 793.5 19.5 763.5 6 c 0,7,8
 732 -9 732 -9 718.5 21 c 2,9,-1
 25.5 1452 l 1,10,-1
 25.5 1452 l 1,0,1
EndSplineSet
EndChar
StartChar: bracketright
Encoding: 93 93 189
Width: 294
VWidth: 3000
Flags: W
LayerCount: 2
Back
Fore
SplineSet
315 1599 m 1,0,1
 348 1599 348 1599 348 1564.5 c 2,2,-1
 348 -100.5 l 1,3,-1
 348 -106.5 l 2,4,5
 348 -112.5 348 -112.5 348 -117 c 0,6,7
 345 -129 345 -129 336 -135 c 0,8,9
 331.5 -136.5 331.5 -136.5 325.5 -138 c 0,10,11
 321 -139.5 321 -139.5 315 -139.5 c 2,12,-1
 310.5 -139.5 l 1,13,-1
 135 -139.5 l 2,14,15
 102 -139.5 102 -139.5 102 -106.5 c 0,16,17
 102 -72 102 -72 135 -72 c 2,18,-1
 280.5 -72 l 1,19,-1
 280.5 1531.5 l 1,20,-1
 135 1531.5 l 2,21,22
 102 1531.5 102 1531.5 102 1564.5 c 0,23,24
 102 1599 102 1599 135 1599 c 2,25,-1
 315 1599 l 1,26,-1
 315 1599 l 1,0,1
EndSplineSet
EndChar
StartChar: asciicircum
Encoding: 94 94 62
Width: 879
VWidth: 3000
Flags: W
LayerCount: 2
Back
Fore
SplineSet
88.5 24 m 2,0,-1
 411 730.5 l 1,1,2
 412.5 738 412.5 738 420.75 744 c 128,-1,3
 429 750 429 750 441 750 c 256,4,5
 453 750 453 750 461.25 744 c 128,-1,6
 469.5 738 469.5 738 471 730.5 c 1,7,-1
 792 24 l 2,8,9
 804 -6 804 -6 775.5 -19.5 c 256,10,11
 747 -33 747 -33 732 -3 c 2,12,-1
 439.5 637.5 l 1,13,-1
 150 -3 l 2,14,15
 138 -31.5 138 -31.5 105 -19.5 c 1,16,17
 75 -4.5 75 -4.5 88.5 24 c 2,0,-1
EndSplineSet
EndChar
StartChar: underscore
Encoding: 95 95 152
Width: 756
VWidth: 3000
Flags: W
LayerCount: 2
Back
Fore
SplineSet
753 -255 m 2,0,-1
 1.5 -253.5 l 2,1,2
 -34.5 -253.5 -34.5 -253.5 -31.5 -217.5 c 1,3,4
 -33 -184.5 -33 -184.5 1.5 -184.5 c 2,5,-1
 754.5 -184.5 l 1,6,7
 786 -186 786 -186 787.5 -220.5 c 1,8,9
 787.5 -256.5 787.5 -256.5 753 -255 c 2,0,-1
EndSplineSet
EndChar
StartChar: grave
Encoding: 96 96 66
Width: 450
VWidth: 3000
Flags: W
LayerCount: 2
Back
Fore
SplineSet
84 1165.5 m 1,0,1
 55.5 1182 55.5 1182 72 1212 c 1,2,3
 90 1240.5 90 1240.5 120 1222.5 c 2,4,-1
 367.5 1074 l 2,5,6
 396 1056 396 1056 379.5 1029 c 0,7,8
 361.5 999 361.5 999 333 1015.5 c 2,9,-1
 84 1165.5 l 1,10,-1
 84 1165.5 l 1,0,1
EndSplineSet
EndChar
StartChar: a
Encoding: 97 97 29
Width: 781
VWidth: 3000
Flags: W
LayerCount: 2
Back
Fore
SplineSet
706.5 708 m 2,0,-1
 706.5 354 l 1,1,-1
 706.5 0 l 2,2,3
 706.5 -33 706.5 -33 672 -33 c 0,4,5
 639 -33 639 -33 639 0 c 2,6,-1
 639 90 l 1,7,8
 636 84 636 84 625.5 70.5 c 0,9,10
 543 -33 543 -33 390 -33 c 0,11,12
 240 -33 240 -33 156 70.5 c 0,13,14
 75 171 75 171 75 354 c 256,15,16
 75 537 75 537 156 637.5 c 0,17,18
 240 742.5 240 742.5 390 742.5 c 0,19,20
 541.5 742.5 541.5 742.5 625.5 637.5 c 0,21,22
 636 625.5 636 625.5 639 619.5 c 1,23,-1
 639 708 l 2,24,25
 639 742.5 639 742.5 672 742.5 c 0,26,27
 706.5 742.5 706.5 742.5 706.5 708 c 2,0,-1
573 597 m 1,28,29
 510 675 510 675 390 675 c 256,30,31
 270 675 270 675 208.5 597 c 0,32,33
 142.5 511.5 142.5 511.5 142.5 354 c 0,34,35
 142.5 195 142.5 195 208.5 112.5 c 1,36,37
 270 33 270 33 390 33 c 256,38,39
 510 33 510 33 573 112.5 c 0,40,41
 639 195 639 195 639 354 c 0,42,43
 639 511.5 639 511.5 573 597 c 1,28,29
EndSplineSet
EndChar
StartChar: b
Encoding: 98 98 54
Width: 521
Flags: W
LayerCount: 2
Back
Fore
SplineSet
50 1 m 2,0,-1
 50 237 l 1,1,-1
 50 977 l 2,2,3
 50 999 50 999 72 999 c 0,4,5
 95 999 95 999 95 977 c 2,6,-1
 95 413 l 1,7,8
 97 417 97 417 104 426 c 0,9,10
 159 495 159 495 261 495 c 0,11,12
 361 495 361 495 417 426 c 0,13,14
 471 359 471 359 471 237 c 256,15,16
 471 115 471 115 417 48 c 0,17,18
 361 -22 361 -22 261 -22 c 0,19,20
 160 -22 160 -22 104 48 c 0,21,22
 97 56 97 56 95 61 c 1,23,-1
 95 1 l 2,24,25
 95 -22 95 -22 72 -22 c 0,26,27
 50 -22 50 -22 50 1 c 2,0,-1
139 76 m 0,28,29
 181 23 181 23 261 23 c 0,30,31
 340 23 340 23 382 76 c 0,32,33
 426 132 426 132 426 237 c 0,34,35
 426 343 426 343 382 398 c 0,36,37
 340 451 340 451 261 451 c 0,38,39
 181 451 181 451 139 398 c 0,40,41
 95 343 95 343 95 237 c 0,42,43
 95 132 95 132 139 76 c 0,28,29
EndSplineSet
EndChar

StartChar: c
Encoding: 99 99 32
Width: 508
Flags: W
LayerCount: 2
Fore
SplineSet
450 106 m 1,0,1
 424 42 424 42 377 10 c 1,2,3
 328 -22 328 -22 260 -22 c 0,4,5
 160 -22 160 -22 104 47 c 0,6,7
 50 114 50 114 50 236 c 256,8,9
 50 358 50 358 104 425 c 0,10,11
 160 495 160 495 260 495 c 0,12,13
 327 495 327 495 377 461 c 0,14,15
 424 430 424 430 450 366 c 0,16,17
 458 344 458 344 437 337 c 256,18,19
 416 330 416 330 408 350 c 0,20,21
 389 399 389 399 352 425 c 0,22,23
 315 450 315 450 260 450 c 0,24,25
 180 450 180 450 139 398 c 0,26,27
 95 341 95 341 95 236 c 0,28,29
 95 130 95 130 139 75 c 1,30,31
 180 22 180 22 260 22 c 0,32,33
 315 22 315 22 352 47 c 256,34,35
 389 72 389 72 408 122 c 0,36,37
 416 143 416 143 437 134 c 1,38,39
 457 127 457 127 450 106 c 1,0,1
EndSplineSet
EndChar
StartChar: d
Encoding: 100 100 33
Width: 781
VWidth: 3000
Flags: W
LayerCount: 2
Back
Fore
SplineSet
573 114 m 0,0,1
 639 198 639 198 639 355.5 c 0,2,3
 639 514.5 639 514.5 573 597 c 0,4,5
 510 676.5 510 676.5 390 676.5 c 0,6,7
 271.5 676.5 271.5 676.5 208.5 597 c 0,8,9
 142.5 514.5 142.5 514.5 142.5 355.5 c 0,10,11
 142.5 198 142.5 198 208.5 114 c 0,12,13
 271.5 34.5 271.5 34.5 390 34.5 c 0,14,15
 510 34.5 510 34.5 573 114 c 0,0,1
706.5 1.5 m 1,16,17
 706.5 -33 706.5 -33 673.5 -33 c 0,18,19
 639 -33 639 -33 639 1.5 c 2,20,-1
 639 91.5 l 1,21,22
 636 84 636 84 625.5 72 c 0,23,24
 541.5 -33 541.5 -33 390 -33 c 0,25,26
 240 -33 240 -33 156 72 c 0,27,28
 75 172.5 75 172.5 75 355.5 c 256,29,30
 75 538.5 75 538.5 156 639 c 0,31,32
 240 742.5 240 742.5 390 742.5 c 0,33,34
 543 742.5 543 742.5 625.5 639 c 0,35,36
 636 625.5 636 625.5 639 619.5 c 1,37,-1
 639 1465.5 l 2,38,39
 639 1498.5 639 1498.5 673.5 1498.5 c 0,40,41
 706.5 1498.5 706.5 1498.5 706.5 1465.5 c 2,42,-1
 706.5 355.5 l 1,43,-1
 706.5 1.5 l 1,44,-1
 706.5 1.5 l 1,16,17
EndSplineSet
EndChar
StartChar: e
Encoding: 101 101 34
Width: 780
VWidth: 3000
Flags: W
LayerCount: 2
Back
Fore
SplineSet
207 597 m 0,0,1
 148.5 522 148.5 522 141 387 c 1,2,-1
 637.5 387 l 1,3,4
 628.5 522 628.5 522 571.5 597 c 1,5,6
 508.5 675 508.5 675 388.5 675 c 256,7,8
 268.5 675 268.5 675 207 597 c 0,0,1
673.5 159 m 1,9,10
 634.5 63 634.5 63 564 15 c 1,11,12
 490.5 -33 490.5 -33 388.5 -33 c 0,13,14
 238.5 -33 238.5 -33 154.5 70.5 c 0,15,16
 106.5 129 106.5 129 90 204.75 c 128,-1,17
 73.5 280.5 73.5 280.5 73.5 354 c 0,18,19
 73.5 537 73.5 537 154.5 637.5 c 0,20,21
 238.5 742.5 238.5 742.5 388.5 742.5 c 0,22,23
 540 742.5 540 742.5 624 637.5 c 0,24,25
 705 534 705 534 705 354 c 0,26,27
 705 321 705 321 670.5 321 c 2,28,-1
 141 321 l 1,29,30
 148.5 186 148.5 186 207 112.5 c 0,31,32
 268.5 33 268.5 33 388.5 33 c 0,33,34
 471 33 471 33 526.5 70.5 c 256,35,36
 582 108 582 108 610.5 183 c 0,37,38
 622.5 214.5 622.5 214.5 654 201 c 1,39,40
 684 190.5 684 190.5 673.5 159 c 1,9,10
EndSplineSet
EndChar
StartChar: f
Encoding: 102 102 35
Width: 189
VWidth: 3000
Flags: W
LayerCount: 2
Back
Fore
SplineSet
444 1335 m 1,0,1
 423 1384.5 423 1384.5 388.5 1410 c 1,2,3
 351 1434 351 1434 294 1434 c 0,4,5
 213 1434 213 1434 172.5 1381.5 c 1,6,7
 126 1324.5 126 1324.5 126 1215 c 2,8,-1
 126 900 l 1,9,-1
 370.5 900 l 2,10,11
 403.5 900 403.5 900 403.5 868.5 c 0,12,13
 403.5 834 403.5 834 370.5 834 c 2,14,-1
 126 834 l 1,15,-1
 126 0 l 2,16,17
 126 -33 126 -33 94.5 -33 c 0,18,19
 58.5 -33 58.5 -33 58.5 0 c 2,20,-1
 58.5 834 l 1,21,-1
 -43.5 834 l 2,22,23
 -76.5 834 -76.5 834 -76.5 868.5 c 0,24,25
 -76.5 900 -76.5 900 -43.5 900 c 2,26,-1
 58.5 900 l 1,27,-1
 58.5 1215 l 2,28,29
 58.5 1347 58.5 1347 120 1425 c 0,30,31
 181.5 1501.5 181.5 1501.5 294 1501.5 c 0,32,33
 370.5 1501.5 370.5 1501.5 424.5 1465.5 c 0,34,35
 480 1428 480 1428 505.5 1359 c 1,36,37
 520.5 1326 520.5 1326 487.5 1314 c 256,38,39
 454.5 1302 454.5 1302 444 1335 c 1,0,1
EndSplineSet
EndChar
StartChar: g
Encoding: 103 103 36
Width: 781
VWidth: 3000
Flags: W
LayerCount: 2
Back
Fore
SplineSet
169.5 -514.5 m 1,0,1
 196.5 -588 196.5 -588 253.5 -625.5 c 1,2,3
 307.5 -663 307.5 -663 390 -663 c 0,4,5
 510 -663 510 -663 573 -585 c 0,6,7
 639 -501 639 -501 639 -342 c 2,8,-1
 639 90 l 1,9,10
 636 84 636 84 625.5 70.5 c 0,11,12
 543 -33 543 -33 390 -33 c 0,13,14
 240 -33 240 -33 156 70.5 c 0,15,16
 75 171 75 171 75 354 c 256,17,18
 75 537 75 537 156 637.5 c 0,19,20
 240 742.5 240 742.5 390 742.5 c 0,21,22
 541.5 742.5 541.5 742.5 625.5 637.5 c 0,23,24
 636 625.5 636 625.5 639 619.5 c 1,25,-1
 639 708 l 2,26,27
 639 742.5 639 742.5 672 742.5 c 0,28,29
 706.5 742.5 706.5 742.5 706.5 708 c 2,30,-1
 706.5 354 l 1,31,-1
 706.5 -342 l 2,32,33
 706.5 -523.5 706.5 -523.5 625.5 -625.5 c 0,34,35
 541.5 -730.5 541.5 -730.5 390 -730.5 c 0,36,37
 289.5 -730.5 289.5 -730.5 216 -681 c 0,38,39
 144 -633 144 -633 106.5 -538.5 c 0,40,41
 93 -505.5 93 -505.5 126 -495 c 1,42,43
 156 -483 156 -483 169.5 -514.5 c 1,0,1
573 597 m 1,44,45
 510 675 510 675 390 675 c 256,46,47
 270 675 270 675 208.5 597 c 0,48,49
 142.5 511.5 142.5 511.5 142.5 354 c 0,50,51
 142.5 195 142.5 195 208.5 112.5 c 1,52,53
 270 33 270 33 390 33 c 256,54,55
 510 33 510 33 573 112.5 c 0,56,57
 639 195 639 195 639 354 c 0,58,59
 639 511.5 639 511.5 573 597 c 1,44,45
EndSplineSet
EndChar
StartChar: h
Encoding: 104 104 30
Width: 781
VWidth: 3000
Flags: W
LayerCount: 2
Back
Fore
SplineSet
639 354 m 2,0,1
 639 511.5 639 511.5 573 597 c 1,2,3
 510 675 510 675 390 675 c 256,4,5
 270 675 270 675 208.5 597 c 0,6,7
 142.5 511.5 142.5 511.5 142.5 354 c 2,8,-1
 142.5 0 l 2,9,10
 142.5 -33 142.5 -33 108 -33 c 0,11,12
 75 -33 75 -33 75 0 c 2,13,-1
 75 354 l 1,14,-1
 75 1468.5 l 2,15,16
 75 1501.5 75 1501.5 108 1501.5 c 0,17,18
 142.5 1501.5 142.5 1501.5 142.5 1468.5 c 2,19,-1
 142.5 619.5 l 1,20,21
 145.5 625.5 145.5 625.5 156 637.5 c 0,22,23
 240 742.5 240 742.5 390 742.5 c 0,24,25
 541.5 742.5 541.5 742.5 625.5 637.5 c 0,26,27
 706.5 534 706.5 534 706.5 354 c 2,28,-1
 706.5 0 l 2,29,30
 706.5 -33 706.5 -33 672 -33 c 0,31,32
 639 -33 639 -33 639 0 c 2,33,-1
 639 354 l 2,0,1
EndSplineSet
EndChar
StartChar: i
Encoding: 105 105 37
Width: 255
VWidth: 3000
Flags: W
LayerCount: 2
Back
Fore
SplineSet
160.5 708 m 2,0,-1
 160.5 0 l 2,1,2
 160.5 -33 160.5 -33 126 -33 c 0,3,4
 93 -33 93 -33 93 0 c 2,5,-1
 93 708 l 2,6,7
 93 742.5 93 742.5 126 742.5 c 0,8,9
 160.5 742.5 160.5 742.5 160.5 708 c 2,0,-1
54 1119 m 256,10,11
 54 1156.5 54 1156.5 75.75 1182.75 c 128,-1,12
 97.5 1209 97.5 1209 129 1209 c 256,13,14
 160.5 1209 160.5 1209 183 1182.75 c 128,-1,15
 205.5 1156.5 205.5 1156.5 205.5 1119 c 256,16,17
 205.5 1081.5 205.5 1081.5 183 1056 c 128,-1,18
 160.5 1030.5 160.5 1030.5 129 1030.5 c 256,19,20
 97.5 1030.5 97.5 1030.5 75.75 1056 c 128,-1,21
 54 1081.5 54 1081.5 54 1119 c 256,10,11
EndSplineSet
EndChar
StartChar: j
Encoding: 106 106 47
Width: 234
VWidth: 3000
Flags: W
LayerCount: 2
Back
Fore
SplineSet
-232.5 -562.5 m 0,0,1
 -213 -612 -213 -612 -177 -639 c 1,2,3
 -139.5 -663 -139.5 -663 -84 -663 c 0,4,5
 -1.5 -663 -1.5 -663 39 -612 c 0,6,7
 84 -553.5 84 -553.5 84 -444 c 2,8,-1
 84 708 l 2,9,10
 84 742.5 84 742.5 117 742.5 c 256,11,12
 150 742.5 150 742.5 150 708 c 2,13,-1
 150 -444 l 2,14,15
 150 -574.5 150 -574.5 91.5 -652.5 c 0,16,17
 31.5 -730.5 31.5 -730.5 -84 -730.5 c 0,18,19
 -157.5 -730.5 -157.5 -730.5 -214.5 -693 c 0,20,21
 -267 -657 -267 -657 -295.5 -586.5 c 1,22,23
 -304.5 -555 -304.5 -555 -276 -544.5 c 1,24,25
 -244.5 -529.5 -244.5 -529.5 -232.5 -562.5 c 0,0,1
45 1119 m 256,26,27
 45 1156.5 45 1156.5 66.75 1182.75 c 128,-1,28
 88.5 1209 88.5 1209 120 1209 c 256,29,30
 151.5 1209 151.5 1209 174 1182.75 c 128,-1,31
 196.5 1156.5 196.5 1156.5 196.5 1119 c 256,32,33
 196.5 1081.5 196.5 1081.5 174 1056 c 128,-1,34
 151.5 1030.5 151.5 1030.5 120 1030.5 c 256,35,36
 88.5 1030.5 88.5 1030.5 66.75 1056 c 128,-1,37
 45 1081.5 45 1081.5 45 1119 c 256,26,27
EndSplineSet
EndChar

StartChar: k
Encoding: 107 107 55
Width: 489
Flags: W
LayerCount: 2
Fore
SplineSet
422 454 m 2,0,-1
 111 236 l 1,1,-1
 422 18 l 1,2,3
 438 5 438 5 428 -12 c 1,4,5
 414 -30 414 -30 396 -17 c 2,6,-1
 95 193 l 1,7,-1
 95 0 l 2,8,9
 95 -22 95 -22 72 -22 c 0,10,11
 50 -22 50 -22 50 0 c 0,12,13
 50 244 50 244 50 489 c 128,-1,14
 50 734 50 734 50 979 c 0,15,16
 50 1001 50 1001 72 1001 c 0,17,18
 95 1001 95 1001 95 979 c 2,19,-1
 95 279 l 1,20,-1
 396 491 l 1,21,22
 414 502 414 502 428 485 c 1,23,24
 439 466 439 466 422 454 c 2,0,-1
EndSplineSet
EndChar
StartChar: l
Encoding: 108 108 38
Width: 217
VWidth: 3000
Flags: W
LayerCount: 2
Back
Fore
SplineSet
142.5 1468.5 m 2,0,-1
 142.5 0 l 2,1,2
 142.5 -33 142.5 -33 108 -33 c 0,3,4
 75 -33 75 -33 75 0 c 2,5,-1
 75 1468.5 l 2,6,7
 75 1501.5 75 1501.5 108 1501.5 c 0,8,9
 142.5 1501.5 142.5 1501.5 142.5 1468.5 c 2,0,-1
EndSplineSet
EndChar

StartChar: m
Encoding: 109 109 40
Width: 710
Flags: W
LayerCount: 2
Fore
SplineSet
615 236 m 2,0,1
 615 343 615 343 582 400 c 1,2,3
 550 450 550 450 497 450 c 0,4,5
 440 450 440 450 411 400 c 0,6,7
 377 341 377 341 377 236 c 2,8,-1
 377 0 l 2,9,10
 377 -22 377 -22 355 -22 c 256,11,12
 333 -22 333 -22 333 0 c 2,13,-1
 333 236 l 2,14,15
 333 341 333 341 299 400 c 1,16,17
 267 450 267 450 214 450 c 0,18,19
 158 450 158 450 129 400 c 1,20,21
 95 344 95 344 95 236 c 2,22,-1
 95 0 l 2,23,24
 95 -22 95 -22 72 -22 c 0,25,26
 50 -22 50 -22 50 0 c 2,27,-1
 50 236 l 1,28,-1
 50 472 l 2,29,30
 50 495 50 495 72 495 c 0,31,32
 95 495 95 495 95 472 c 2,33,-1
 95 430 l 1,34,35
 138 495 138 495 214 495 c 0,36,37
 294 495 294 495 337 422 c 0,38,39
 347 404 347 404 355 384 c 1,40,41
 360 400 360 400 373 422 c 0,42,43
 415 495 415 495 497 495 c 0,44,45
 577 495 577 495 620 422 c 0,46,47
 660 356 660 356 660 236 c 2,48,-1
 660 0 l 2,49,50
 660 -22 660 -22 638 -22 c 0,51,52
 615 -22 615 -22 615 0 c 2,53,-1
 615 236 l 2,0,1
EndSplineSet
EndChar
StartChar: n
Encoding: 110 110 39
Width: 521
Flags: W
LayerCount: 2
Back
Fore
SplineSet
426 236 m 2,0,1
 426 341 426 341 382 398 c 1,2,3
 340 450 340 450 260 450 c 256,4,5
 180 450 180 450 139 398 c 0,6,7
 95 341 95 341 95 236 c 2,8,-1
 95 0 l 2,9,10
 95 -22 95 -22 72 -22 c 0,11,12
 50 -22 50 -22 50 0 c 2,13,-1
 50 236 l 1,14,-1
 50 472 l 2,15,16
 50 495 50 495 72 495 c 0,17,18
 95 495 95 495 95 472 c 2,19,-1
 95 413 l 1,20,21
 97 417 97 417 104 425 c 0,22,23
 160 495 160 495 260 495 c 0,24,25
 361 495 361 495 417 425 c 0,26,27
 471 356 471 356 471 236 c 2,28,-1
 471 0 l 2,29,30
 471 -22 471 -22 448 -22 c 0,31,32
 426 -22 426 -22 426 0 c 2,33,-1
 426 236 l 2,0,1
EndSplineSet
EndChar
StartChar: o
Encoding: 111 111 31
Width: 522
Flags: W
LayerCount: 2
Back
Fore
SplineSet
260 450 m 256,0,1
 180 450 180 450 139 398 c 0,2,3
 95 341 95 341 95 236 c 0,4,5
 95 130 95 130 139 75 c 1,6,7
 180 22 180 22 260 22 c 256,8,9
 340 22 340 22 382 75 c 0,10,11
 426 130 426 130 426 236 c 0,12,13
 426 341 426 341 382 398 c 1,14,15
 340 450 340 450 260 450 c 256,0,1
104 425 m 0,16,17
 160 495 160 495 260 495 c 0,18,19
 361 495 361 495 417 425 c 0,20,21
 471 356 471 356 471 236 c 0,22,23
 471 115 471 115 417 47 c 0,24,25
 362 -22 362 -22 260 -22 c 0,26,27
 160 -22 160 -22 104 47 c 0,28,29
 50 114 50 114 50 236 c 256,30,31
 50 358 50 358 104 425 c 0,16,17
EndSplineSet
EndChar
StartChar: p
Encoding: 112 112 41
Width: 521
Flags: W
LayerCount: 2
Back
Fore
SplineSet
95 472 m 2,0,-1
 95 413 l 1,1,2
 97 417 97 417 104 425 c 0,3,4
 160 495 160 495 260 495 c 0,5,6
 361 495 361 495 417 425 c 0,7,8
 471 356 471 356 471 236 c 0,9,10
 471 115 471 115 417 47 c 0,11,12
 362 -22 362 -22 260 -22 c 0,13,14
 160 -22 160 -22 104 47 c 0,15,16
 97 56 97 56 95 60 c 1,17,-1
 95 -465 l 2,18,19
 95 -487 95 -487 72 -487 c 0,20,21
 50 -487 50 -487 50 -465 c 2,22,-1
 50 236 l 1,23,-1
 50 472 l 2,24,25
 50 495 50 495 72 495 c 0,26,27
 95 495 95 495 95 472 c 2,0,-1
260 450 m 256,28,29
 180 450 180 450 139 398 c 0,30,31
 95 341 95 341 95 236 c 0,32,33
 95 130 95 130 139 75 c 1,34,35
 180 22 180 22 260 22 c 256,36,37
 340 22 340 22 382 75 c 0,38,39
 426 130 426 130 426 236 c 0,40,41
 426 341 426 341 382 398 c 1,42,43
 340 450 340 450 260 450 c 256,28,29
EndSplineSet
EndChar
StartChar: q
Encoding: 113 113 42
Width: 789
VWidth: 3000
Flags: W
LayerCount: 2
Back
Fore
SplineSet
918 273 m 2,0,-1
 706.5 -222 l 1,1,-1
 706.5 -697.5 l 2,2,3
 706.5 -730.5 706.5 -730.5 672 -730.5 c 0,4,5
 639 -730.5 639 -730.5 639 -697.5 c 2,6,-1
 639 90 l 1,7,8
 636 84 636 84 625.5 70.5 c 0,9,10
 543 -33 543 -33 390 -33 c 0,11,12
 240 -33 240 -33 156 70.5 c 0,13,14
 75 171 75 171 75 354 c 256,15,16
 75 537 75 537 156 637.5 c 0,17,18
 240 742.5 240 742.5 390 742.5 c 0,19,20
 541.5 742.5 541.5 742.5 625.5 637.5 c 0,21,22
 636 625.5 636 625.5 639 619.5 c 1,23,-1
 639 708 l 2,24,25
 639 742.5 639 742.5 672 742.5 c 0,26,27
 706.5 742.5 706.5 742.5 706.5 708 c 2,28,-1
 706.5 354 l 1,29,-1
 706.5 -51 l 1,30,-1
 856.5 298.5 l 2,31,32
 870 327 870 327 900 318 c 1,33,34
 930 304.5 930 304.5 918 273 c 2,0,-1
573 597 m 1,35,36
 510 675 510 675 390 675 c 256,37,38
 270 675 270 675 208.5 597 c 0,39,40
 142.5 511.5 142.5 511.5 142.5 354 c 0,41,42
 142.5 195 142.5 195 208.5 112.5 c 1,43,44
 270 33 270 33 390 33 c 256,45,46
 510 33 510 33 573 112.5 c 0,47,48
 639 195 639 195 639 354 c 0,49,50
 639 511.5 639 511.5 573 597 c 1,35,36
EndSplineSet
EndChar

StartChar: r
Encoding: 114 114 44
Width: 508
Flags: W
LayerCount: 2
Fore
SplineSet
95 472 m 2,0,-1
 95 413 l 1,1,2
 97 417 97 417 104 425 c 0,3,4
 160 495 160 495 260 495 c 0,5,6
 327 495 327 495 377 461 c 0,7,8
 424 430 424 430 450 366 c 0,9,10
 458 344 458 344 437 337 c 256,11,12
 416 330 416 330 408 350 c 0,13,14
 389 399 389 399 352 425 c 0,15,16
 315 450 315 450 260 450 c 0,17,18
 180 450 180 450 139 398 c 0,19,20
 95 341 95 341 95 236 c 2,21,-1
 95 0 l 2,22,23
 95 -22 95 -22 72 -22 c 0,24,25
 50 -22 50 -22 50 0 c 2,26,-1
 50 236 l 1,27,-1
 50 472 l 2,28,29
 50 495 50 495 72 495 c 0,30,31
 95 495 95 495 95 472 c 2,0,-1
EndSplineSet
EndChar
StartChar: s
Encoding: 115 115 45
Width: 786
VWidth: 3000
Flags: W
LayerCount: 2
Back
Fore
SplineSet
147 151.5 m 0,0,1
 180 93 180 93 238.5 64.5 c 1,2,3
 295.5 33 295.5 33 382.5 33 c 0,4,5
 484.5 33 484.5 33 556.5 69 c 1,6,7
 616.5 102 616.5 102 624 148.5 c 0,8,9
 639 232.5 639 232.5 555 272.25 c 128,-1,10
 471 312 471 312 370.5 342 c 0,11,12
 256.5 376.5 256.5 376.5 167.25 421.5 c 128,-1,13
 78 466.5 78 466.5 96 574.5 c 1,14,15
 111 652.5 111 652.5 199.5 699 c 0,16,17
 285 742.5 285 742.5 400.5 742.5 c 0,18,19
 499.5 742.5 499.5 742.5 574.5 705 c 1,20,21
 646.5 666 646.5 666 691.5 591 c 0,22,23
 709.5 561 709.5 561 679.5 546 c 0,24,25
 649.5 529.5 649.5 529.5 634.5 558 c 0,26,27
 601.5 615 601.5 615 543 645 c 256,28,29
 484.5 675 484.5 675 400.5 675 c 0,30,31
 300 675 300 675 229.5 640.5 c 1,32,33
 169.5 606 169.5 606 162 564 c 0,34,35
 150 499.5 150 499.5 222.75 465.75 c 128,-1,36
 295.5 432 295.5 432 390 406.5 c 1,37,38
 510 370.5 510 370.5 610.5 318 c 128,-1,39
 711 265.5 711 265.5 690 136.5 c 1,40,41
 675 55.5 675 55.5 586.5 10.5 c 0,42,43
 501 -33 501 -33 382.5 -33 c 0,44,45
 282 -33 282 -33 207 4.5 c 256,46,47
 132 42 132 42 88.5 120 c 1,48,49
 75 150 75 150 103.5 165 c 256,50,51
 132 180 132 180 147 151.5 c 0,0,1
EndSplineSet
EndChar
StartChar: t
Encoding: 116 116 46
Width: 601
VWidth: 3000
Flags: W
LayerCount: 2
Back
Fore
SplineSet
-27 900 m 2,0,-1
 93 900 l 1,1,-1
 93 1468.5 l 2,2,3
 93 1501.5 93 1501.5 127.5 1501.5 c 0,4,5
 160.5 1501.5 160.5 1501.5 160.5 1468.5 c 2,6,-1
 160.5 900 l 1,7,-1
 387 900 l 2,8,9
 420 900 420 900 420 868.5 c 0,10,11
 420 834 420 834 387 834 c 2,12,-1
 160.5 834 l 1,13,-1
 160.5 252 l 2,14,15
 160.5 142.5 160.5 142.5 207 85.5 c 1,16,17
 246 33 246 33 328.5 33 c 0,18,19
 384 33 384 33 421.5 58.5 c 0,20,21
 456 82.5 456 82.5 478.5 135 c 1,22,23
 489 165 489 165 522 153 c 0,24,25
 552 141 552 141 540 111 c 0,26,27
 514.5 40.5 514.5 40.5 459 3 c 1,28,29
 402 -33 402 -33 328.5 -33 c 0,30,31
 216 -33 216 -33 154.5 45 c 1,32,33
 93 120 93 120 93 252 c 2,34,-1
 93 834 l 1,35,-1
 -27 834 l 2,36,37
 -60 834 -60 834 -60 868.5 c 0,38,39
 -60 900 -60 900 -27 900 c 2,0,-1
EndSplineSet
EndChar
StartChar: u
Encoding: 117 117 43
Width: 521
Flags: W
LayerCount: 2
Back
Fore
SplineSet
95 236 m 2,0,1
 95 130 95 130 139 75 c 1,2,3
 180 22 180 22 260 22 c 256,4,5
 340 22 340 22 382 75 c 0,6,7
 426 130 426 130 426 236 c 2,8,-1
 426 472 l 2,9,10
 426 495 426 495 448 495 c 0,11,12
 471 495 471 495 471 472 c 2,13,-1
 471 236 l 1,14,-1
 471 0 l 2,15,16
 471 -22 471 -22 448 -22 c 0,17,18
 426 -22 426 -22 426 0 c 2,19,-1
 426 60 l 1,20,21
 424 56 424 56 417 47 c 0,22,23
 362 -22 362 -22 260 -22 c 0,24,25
 160 -22 160 -22 104 47 c 0,26,27
 50 114 50 114 50 236 c 2,28,-1
 50 472 l 2,29,30
 50 495 50 495 72 495 c 0,31,32
 95 495 95 495 95 472 c 2,33,-1
 95 236 l 2,0,1
EndSplineSet
EndChar
StartChar: v
Encoding: 118 118 48
Width: 879
VWidth: 3000
Flags: W
LayerCount: 2
Back
Fore
SplineSet
790.5 694.5 m 2,0,-1
 468 -12 l 1,1,-1
 468 -12 l 1,2,-1
 468 -13.5 l 1,3,-1
 468 -13.5 l 1,4,-1
 468 -13.5 l 1,5,-1
 468 -13.5 l 1,6,-1
 468 -15 l 1,7,-1
 468 -15 l 1,8,-1
 468 -15 l 1,9,-1
 468 -15 l 1,10,-1
 468 -16.5 l 1,11,-1
 468 -16.5 l 1,12,-1
 468 -16.5 l 1,13,14
 465 -18 465 -18 465 -18 c 1,15,-1
 465 -18 l 1,16,-1
 465 -19.5 l 1,17,-1
 465 -19.5 l 1,18,-1
 463.5 -19.5 l 1,19,-1
 463.5 -19.5 l 1,20,-1
 463.5 -21 l 1,21,-1
 463.5 -21 l 1,22,-1
 463.5 -21 l 1,23,-1
 463.5 -21 l 1,24,-1
 462 -22.5 l 1,25,-1
 462 -22.5 l 1,26,-1
 462 -22.5 l 1,27,-1
 462 -22.5 l 1,28,-1
 460.5 -24 l 1,29,-1
 460.5 -24 l 1,30,-1
 460.5 -24 l 1,31,-1
 460.5 -24 l 1,32,-1
 460.5 -25.5 l 1,33,-1
 460.5 -25.5 l 1,34,-1
 460.5 -25.5 l 1,35,-1
 460.5 -25.5 l 1,36,-1
 459 -25.5 l 1,37,-1
 459 -25.5 l 1,38,39
 457.5 -25.5 457.5 -25.5 456.75 -25.5 c 128,-1,40
 456 -25.5 456 -25.5 456 -27 c 1,41,-1
 456 -27 l 1,42,-1
 456 -27 l 1,43,-1
 454.5 -27 l 1,44,-1
 454.5 -27 l 1,45,-1
 454.5 -28.5 l 1,46,-1
 454.5 -28.5 l 1,47,-1
 454.5 -28.5 l 1,48,-1
 454.5 -28.5 l 1,49,-1
 454.5 -28.5 l 1,50,-1
 453 -28.5 l 1,51,-1
 453 -28.5 l 1,52,-1
 453 -28.5 l 1,53,-1
 453 -28.5 l 1,54,-1
 451.5 -30 l 1,55,-1
 451.5 -30 l 1,56,-1
 451.5 -30 l 1,57,-1
 450 -30 l 1,58,-1
 450 -30 l 1,59,-1
 450 -30 l 1,60,-1
 450 -30 l 1,61,62
 442.5 -33 442.5 -33 439.5 -33 c 1,63,-1
 439.5 -33 l 1,64,-1
 439.5 -33 l 1,65,-1
 439.5 -33 l 1,66,67
 435 -33 435 -33 427.5 -30 c 1,68,-1
 427.5 -30 l 1,69,-1
 426 -30 l 1,70,-1
 426 -30 l 1,71,-1
 426 -30 l 1,72,-1
 426 -30 l 1,73,-1
 424.5 -30 l 1,74,-1
 424.5 -28.5 l 1,75,-1
 424.5 -28.5 l 1,76,-1
 424.5 -28.5 l 1,77,-1
 424.5 -28.5 l 1,78,-1
 424.5 -28.5 l 1,79,-1
 424.5 -28.5 l 1,80,-1
 423 -28.5 l 1,81,-1
 423 -28.5 l 1,82,-1
 423 -28.5 l 1,83,-1
 423 -27 l 1,84,-1
 421.5 -27 l 1,85,-1
 421.5 -27 l 1,86,-1
 421.5 -27 l 1,87,-1
 420 -27 l 1,88,89
 420 -25.5 420 -25.5 419.25 -25.5 c 128,-1,90
 418.5 -25.5 418.5 -25.5 418.5 -25.5 c 1,91,-1
 418.5 -25.5 l 1,92,-1
 417 -25.5 l 1,93,-1
 417 -25.5 l 1,94,-1
 417 -25.5 l 1,95,-1
 417 -25.5 l 1,96,-1
 417 -24 l 1,97,-1
 417 -24 l 1,98,-1
 415.5 -24 l 1,99,-1
 415.5 -24 l 1,100,-1
 415.5 -22.5 l 1,101,-1
 415.5 -22.5 l 1,102,-1
 415.5 -22.5 l 1,103,-1
 414 -22.5 l 1,104,-1
 414 -21 l 1,105,-1
 414 -21 l 1,106,-1
 414 -21 l 1,107,-1
 414 -21 l 1,108,-1
 412.5 -19.5 l 1,109,-1
 412.5 -19.5 l 1,110,-1
 412.5 -19.5 l 1,111,-1
 412.5 -19.5 l 1,112,-1
 412.5 -18 l 1,113,-1
 412.5 -18 l 1,114,115
 412.5 -18 412.5 -18 409.5 -16.5 c 1,116,-1
 409.5 -16.5 l 1,117,-1
 409.5 -16.5 l 1,118,-1
 409.5 -15 l 1,119,-1
 409.5 -15 l 1,120,-1
 409.5 -15 l 1,121,-1
 409.5 -15 l 1,122,-1
 409.5 -13.5 l 1,123,-1
 409.5 -13.5 l 1,124,-1
 409.5 -13.5 l 1,125,-1
 408 -13.5 l 1,126,-1
 408 -12 l 1,127,-1
 408 -12 l 1,128,-1
 87 694.5 l 2,129,130
 75 724.5 75 724.5 103.5 738 c 256,131,132
 132 751.5 132 751.5 147 721.5 c 2,133,-1
 439.5 81 l 1,134,-1
 729 721.5 l 2,135,136
 741 750 741 750 774 738 c 1,137,138
 804 723 804 723 790.5 694.5 c 2,0,-1
EndSplineSet
EndChar
StartChar: w
Encoding: 119 119 49
Width: 795
Flags: W
LayerCount: 2
Back
Fore
SplineSet
417 479 m 1,0,-1
 557 70 l 1,1,-1
 696 479 l 2,2,3
 704 500 704 500 725 493 c 1,4,5
 745 485 745 485 739 465 c 2,6,-1
 578 -7 l 1,7,-1
 578 -7 l 1,8,-1
 578 -7 l 1,9,-1
 578 -7 l 1,10,-1
 578 -7 l 1,11,-1
 578 -7 l 1,12,-1
 578 -7 l 1,13,-1
 578 -8 l 1,14,-1
 578 -8 l 1,15,16
 576 -12 576 -12 573 -15 c 0,17,18
 571 -17 571 -17 566 -20 c 1,19,-1
 566 -20 l 1,20,-1
 566 -20 l 1,21,-1
 565 -20 l 1,22,-1
 565 -20 l 1,23,-1
 565 -20 l 1,24,-1
 565 -20 l 1,25,-1
 564 -20 l 1,26,-1
 564 -20 l 1,27,-1
 564 -20 l 1,28,-1
 563 -21 l 1,29,-1
 563 -21 l 1,30,-1
 563 -21 l 1,31,-1
 563 -21 l 1,32,33
 563 -21 563 -21 563 -21 c 129,-1,34
 563 -21 563 -21 563 -21 c 1,35,-1
 563 -21 l 1,36,37
 562 -21 562 -21 561.5 -21 c 128,-1,38
 561 -21 561 -21 561 -21 c 1,39,-1
 561 -21 l 1,40,41
 561 -21 561 -21 560.5 -21.5 c 128,-1,42
 560 -22 560 -22 560 -22 c 1,43,-1
 560 -22 l 1,44,45
 560 -22 560 -22 559.5 -22 c 128,-1,46
 559 -22 559 -22 559 -22 c 1,47,-1
 559 -22 l 1,48,-1
 559 -22 l 1,49,50
 559 -22 559 -22 558.5 -22 c 128,-1,51
 558 -22 558 -22 558 -22 c 1,52,-1
 558 -22 l 1,53,-1
 558 -22 l 1,54,-1
 558 -22 l 1,55,-1
 558 -22 l 1,56,-1
 558 -22 l 1,57,-1
 557 -22 l 1,58,-1
 557 -22 l 1,59,-1
 557 -22 l 1,60,-1
 557 -22 l 1,61,-1
 556 -22 l 1,62,-1
 556 -22 l 1,63,-1
 555 -22 l 1,64,-1
 555 -22 l 1,65,-1
 555 -22 l 1,66,-1
 555 -22 l 1,67,-1
 555 -22 l 1,68,69
 554 -22 554 -22 553.5 -22 c 128,-1,70
 553 -22 553 -22 553 -22 c 1,71,-1
 553 -22 l 1,72,73
 553 -22 553 -22 553 -21.5 c 128,-1,74
 553 -21 553 -21 553 -21 c 1,75,-1
 553 -21 l 1,76,77
 553 -21 553 -21 552.5 -21 c 128,-1,78
 552 -21 552 -21 552 -21 c 1,79,-1
 552 -21 l 1,80,-1
 551 -21 l 1,81,-1
 551 -21 l 1,82,-1
 550 -21 l 1,83,-1
 550 -21 l 1,84,-1
 550 -20 l 1,85,-1
 550 -20 l 1,86,-1
 550 -20 l 1,87,-1
 549 -20 l 1,88,-1
 549 -20 l 1,89,-1
 549 -20 l 1,90,-1
 549 -20 l 1,91,-1
 549 -20 l 1,92,-1
 549 -20 l 1,93,-1
 549 -20 l 1,94,95
 549 -20 549 -20 541 -15 c 0,96,97
 538 -12 538 -12 537 -8 c 1,98,-1
 537 -8 l 1,99,-1
 537 -7 l 1,100,-1
 537 -7 l 1,101,-1
 536 -7 l 1,102,-1
 536 -7 l 1,103,-1
 536 -7 l 1,104,-1
 536 -7 l 1,105,-1
 536 -7 l 1,106,-1
 397 403 l 1,107,-1
 257 -7 l 1,108,-1
 257 -7 l 1,109,-1
 257 -7 l 1,110,-1
 257 -7 l 1,111,-1
 256 -7 l 1,112,-1
 256 -7 l 1,113,-1
 256 -7 l 1,114,-1
 256 -8 l 1,115,-1
 256 -8 l 1,116,117
 255 -12 255 -12 251 -15 c 1,118,119
 250 -17 250 -17 245 -20 c 1,120,-1
 245 -20 l 1,121,-1
 245 -20 l 1,122,-1
 244 -20 l 1,123,-1
 244 -20 l 1,124,-1
 244 -20 l 1,125,-1
 243 -20 l 1,126,-1
 243 -20 l 1,127,-1
 243 -20 l 1,128,-1
 243 -20 l 1,129,-1
 242 -21 l 1,130,-1
 242 -21 l 1,131,-1
 242 -21 l 1,132,-1
 242 -21 l 1,133,-1
 241 -21 l 1,134,-1
 241 -21 l 1,135,136
 241 -21 241 -21 240.5 -21 c 128,-1,137
 240 -21 240 -21 240 -21 c 1,138,-1
 240 -21 l 1,139,140
 240 -21 240 -21 239.5 -21.5 c 128,-1,141
 239 -22 239 -22 239 -22 c 1,142,-1
 239 -22 l 1,143,144
 239 -22 239 -22 238.5 -22 c 128,-1,145
 238 -22 238 -22 238 -22 c 1,146,-1
 238 -22 l 1,147,-1
 238 -22 l 1,148,149
 238 -22 238 -22 237.5 -22 c 128,-1,150
 237 -22 237 -22 237 -22 c 1,151,-1
 237 -22 l 1,152,-1
 237 -22 l 1,153,-1
 237 -22 l 1,154,-1
 236 -22 l 1,155,-1
 236 -22 l 1,156,-1
 236 -22 l 1,157,-1
 236 -22 l 1,158,159
 236 -22 236 -22 236 -22 c 129,-1,160
 236 -22 236 -22 236 -22 c 1,161,-1
 236 -22 l 1,162,-1
 235 -22 l 1,163,-1
 235 -22 l 1,164,-1
 234 -22 l 1,165,-1
 234 -22 l 1,166,167
 234 -22 234 -22 234 -22 c 129,-1,168
 234 -22 234 -22 234 -22 c 1,169,-1
 234 -22 l 1,170,-1
 234 -22 l 1,171,172
 233 -22 233 -22 232.5 -22 c 128,-1,173
 232 -22 232 -22 232 -22 c 1,174,-1
 232 -22 l 1,175,176
 232 -22 232 -22 232 -21.5 c 128,-1,177
 232 -21 232 -21 232 -21 c 1,178,-1
 232 -21 l 1,179,180
 231 -21 231 -21 231 -21 c 129,-1,181
 231 -21 231 -21 231 -21 c 1,182,-1
 231 -21 l 1,183,-1
 230 -21 l 1,184,-1
 230 -21 l 1,185,-1
 229 -21 l 1,186,-1
 229 -21 l 1,187,-1
 229 -20 l 1,188,-1
 229 -20 l 1,189,-1
 229 -20 l 1,190,-1
 228 -20 l 1,191,-1
 228 -20 l 1,192,-1
 227 -20 l 1,193,-1
 227 -20 l 1,194,-1
 227 -20 l 1,195,-1
 227 -20 l 1,196,-1
 227 -20 l 1,197,198
 227 -20 227 -20 220 -15 c 0,199,200
 217 -12 217 -12 216 -8 c 1,201,-1
 216 -8 l 1,202,-1
 215 -7 l 1,203,-1
 215 -7 l 1,204,-1
 215 -7 l 1,205,-1
 215 -7 l 1,206,-1
 215 -7 l 1,207,-1
 215 -7 l 1,208,-1
 215 -7 l 1,209,-1
 54 465 l 1,210,211
 50 486 50 486 68 493 c 1,212,213
 90 500 90 500 96 479 c 1,214,-1
 236 70 l 1,215,-1
 375 479 l 1,216,-1
 375 479 l 1,217,-1
 376 480 l 1,218,-1
 376 480 l 1,219,-1
 376 480 l 1,220,-1
 376 481 l 1,221,-1
 376 481 l 1,222,-1
 376 481 l 1,223,-1
 376 481 l 1,224,225
 377 484 377 484 381 488 c 0,226,227
 383 491 383 491 387 492 c 1,228,-1
 387 492 l 1,229,-1
 387 493 l 1,230,-1
 388 493 l 1,231,-1
 388 493 l 1,232,-1
 388 493 l 1,233,-1
 389 493 l 1,234,-1
 389 493 l 1,235,-1
 389 493 l 1,236,-1
 389 493 l 1,237,-1
 390 494 l 1,238,-1
 390 494 l 1,239,-1
 391 494 l 1,240,-1
 391 494 l 1,241,242
 391 494 391 494 391 494 c 129,-1,243
 391 494 391 494 391 494 c 1,244,-1
 391 494 l 1,245,246
 391 494 391 494 391.5 494 c 128,-1,247
 392 494 392 494 392 494 c 1,248,-1
 392 494 l 1,249,250
 392 494 392 494 392.5 494 c 128,-1,251
 393 494 393 494 393 494 c 1,252,-1
 393 494 l 1,253,254
 393 494 393 494 393.5 494 c 128,-1,255
 394 494 394 494 394 494 c 1,256,-1
 394 494 l 1,257,-1
 394 494 l 1,258,259
 394 494 394 494 394.5 494 c 128,-1,260
 395 494 395 494 395 494 c 1,261,-1
 395 494 l 1,262,-1
 396 495 l 1,263,-1
 396 495 l 1,264,-1
 396 495 l 1,265,-1
 396 495 l 1,266,-1
 397 495 l 1,267,-1
 397 495 l 1,268,-1
 397 495 l 1,269,-1
 397 495 l 1,270,-1
 397 495 l 1,271,-1
 397 495 l 1,272,-1
 398 494 l 1,273,-1
 398 494 l 1,274,-1
 398 494 l 1,275,-1
 398 494 l 1,276,-1
 398 494 l 1,277,278
 398 494 398 494 398.5 494 c 128,-1,279
 399 494 399 494 400 494 c 1,280,-1
 400 494 l 1,281,282
 400 494 400 494 400 494 c 129,-1,283
 400 494 400 494 400 494 c 1,284,-1
 401 494 l 1,285,286
 401 494 401 494 401.5 494 c 128,-1,287
 402 494 402 494 402 494 c 1,288,-1
 402 494 l 1,289,-1
 402 494 l 1,290,-1
 402 494 l 1,291,-1
 403 494 l 1,292,-1
 403 494 l 1,293,-1
 403 493 l 1,294,-1
 403 493 l 1,295,-1
 403 493 l 1,296,-1
 404 493 l 1,297,-1
 404 493 l 1,298,-1
 405 493 l 1,299,-1
 405 493 l 1,300,-1
 405 493 l 1,301,-1
 406 492 l 1,302,-1
 406 492 l 1,303,304
 409 491 409 491 412 488 c 0,305,306
 416 482 416 482 417 481 c 1,307,-1
 417 481 l 1,308,-1
 417 481 l 1,309,-1
 417 481 l 1,310,-1
 417 480 l 1,311,-1
 417 480 l 1,312,-1
 417 480 l 1,313,-1
 417 479 l 1,0,-1
EndSplineSet
EndChar
StartChar: x
Encoding: 120 120 50
Width: 787
VWidth: 3000
Flags: W
LayerCount: 2
Back
Fore
SplineSet
145.5 729 m 2,0,-1
 391.5 408 l 1,1,-1
 639 729 l 2,2,3
 660 754.5 660 754.5 687 735 c 1,4,5
 712.5 712.5 712.5 712.5 691.5 687 c 2,6,-1
 433.5 354 l 1,7,-1
 691.5 19.5 l 1,8,9
 712.5 -3 712.5 -3 687 -25.5 c 1,10,11
 660 -45 660 -45 639 -18 c 2,12,-1
 391.5 298.5 l 1,13,-1
 145.5 -18 l 2,14,15
 124.5 -45 124.5 -45 97.5 -25.5 c 1,16,17
 75 -3 75 -3 93 19.5 c 2,18,-1
 351 354 l 1,19,-1
 93 687 l 2,20,21
 75 712.5 75 712.5 97.5 735 c 1,22,23
 124.5 754.5 124.5 754.5 145.5 729 c 2,0,-1
EndSplineSet
EndChar
StartChar: y
Encoding: 121 121 51
Width: 586
Flags: W
LayerCount: 2
Back
Fore
SplineSet
527 463 m 2,0,-1
 102 -474 l 2,1,2
 93 -493 93 -493 72 -485 c 1,3,4
 52 -475 52 -475 61 -456 c 2,5,-1
 268 0 l 1,6,-1
 58 463 l 2,7,8
 50 483 50 483 69 492 c 256,9,10
 88 501 88 501 98 481 c 2,11,-1
 293 54 l 1,12,-1
 486 481 l 2,13,14
 494 500 494 500 516 492 c 1,15,16
 536 482 536 482 527 463 c 2,0,-1
EndSplineSet
EndChar
StartChar: z
Encoding: 122 122 52
Width: 763
VWidth: 3000
Flags: W
LayerCount: 2
Back
Fore
SplineSet
84 22.5 m 2,0,-1
 588 675 l 1,1,-1
 108 675 l 2,2,3
 75 675 75 675 75 708 c 0,4,5
 75 742.5 75 742.5 108 742.5 c 2,6,-1
 655.5 742.5 l 2,7,8
 688.5 742.5 688.5 742.5 688.5 708 c 0,9,10
 688.5 691.5 688.5 691.5 679.5 685.5 c 1,11,-1
 177 33 l 1,12,-1
 655.5 33 l 2,13,14
 688.5 33 688.5 33 688.5 0 c 256,15,16
 688.5 -33 688.5 -33 655.5 -33 c 2,17,-1
 108 -33 l 2,18,19
 75 -33 75 -33 75 0 c 0,20,21
 75 10.5 75 10.5 84 22.5 c 2,0,-1
EndSplineSet
EndChar
StartChar: braceleft
Encoding: 123 123 241
Width: 565
VWidth: 3000
Flags: W
LayerCount: 2
Back
Fore
SplineSet
465 1537.5 m 0,0,1
 328.5 1438.5 328.5 1438.5 315.75 1338.75 c 128,-1,2
 303 1239 303 1239 315 1140 c 0,3,4
 328.5 1032 328.5 1032 317.25 923.25 c 128,-1,5
 306 814.5 306 814.5 175.5 706.5 c 1,6,7
 306 598.5 306 598.5 317.25 490.5 c 128,-1,8
 328.5 382.5 328.5 382.5 315 274.5 c 0,9,10
 303 174 303 174 315.75 75 c 128,-1,11
 328.5 -24 328.5 -24 465 -123 c 0,12,13
 490.5 -141 490.5 -141 472.5 -168 c 1,14,15
 451.5 -196.5 451.5 -196.5 426 -175.5 c 1,16,17
 264 -60 264 -60 249.75 53.25 c 128,-1,18
 235.5 166.5 235.5 166.5 250.5 282 c 1,19,20
 261 382.5 261 382.5 248.25 481.5 c 128,-1,21
 235.5 580.5 235.5 580.5 102 679.5 c 1,22,23
 96 681 96 681 94.5 688.5 c 1,24,25
 75 712.5 75 712.5 100.5 733.5 c 1,26,-1
 120 706.5 l 1,27,-1
 100.5 733.5 l 1,28,29
 235.5 832.5 235.5 832.5 248.25 932.25 c 128,-1,30
 261 1032 261 1032 250.5 1132.5 c 1,31,32
 235.5 1246.5 235.5 1246.5 249.75 1361.25 c 128,-1,33
 264 1476 264 1476 426 1591.5 c 1,34,35
 451.5 1612.5 451.5 1612.5 472.5 1584 c 1,36,37
 490.5 1555.5 490.5 1555.5 465 1537.5 c 0,0,1
EndSplineSet
EndChar

StartChar: bar
Encoding: 124 124 169
Width: 145
Flags: W
LayerCount: 2
Fore
SplineSet
95 1055 m 2,0,-1
 95 -474 l 2,1,2
 95 -496 95 -496 72 -496 c 0,3,4
 50 -496 50 -496 50 -474 c 2,5,-1
 50 1055 l 2,6,7
 50 1077 50 1077 72 1077 c 0,8,9
 95 1077 95 1077 95 1055 c 2,0,-1
EndSplineSet
EndChar
StartChar: braceright
Encoding: 125 125 242
Width: 565
VWidth: 3000
Flags: W
LayerCount: 2
Back
Fore
SplineSet
100.5 -121.5 m 0,0,1
 237 -22.5 237 -22.5 249.75 77.25 c 128,-1,2
 262.5 177 262.5 177 250.5 276 c 0,3,4
 237 384 237 384 248.25 492.75 c 128,-1,5
 259.5 601.5 259.5 601.5 390 709.5 c 1,6,7
 259.5 817.5 259.5 817.5 248.25 925.5 c 128,-1,8
 237 1033.5 237 1033.5 250.5 1141.5 c 0,9,10
 262.5 1242 262.5 1242 249.75 1341 c 128,-1,11
 237 1440 237 1440 100.5 1539 c 0,12,13
 75 1557 75 1557 93 1584 c 1,14,15
 114 1612.5 114 1612.5 139.5 1591.5 c 1,16,17
 301.5 1476 301.5 1476 315.75 1362.75 c 128,-1,18
 330 1249.5 330 1249.5 315 1134 c 1,19,20
 304.5 1033.5 304.5 1033.5 317.25 934.5 c 128,-1,21
 330 835.5 330 835.5 463.5 736.5 c 1,22,23
 469.5 735 469.5 735 471 727.5 c 1,24,25
 490.5 703.5 490.5 703.5 465 682.5 c 1,26,-1
 445.5 709.5 l 1,27,-1
 465 682.5 l 1,28,29
 330 583.5 330 583.5 317.25 483.75 c 128,-1,30
 304.5 384 304.5 384 315 283.5 c 1,31,32
 330 169.5 330 169.5 315.75 54.75 c 128,-1,33
 301.5 -60 301.5 -60 139.5 -175.5 c 1,34,35
 114 -196.5 114 -196.5 93 -168 c 1,36,37
 75 -139.5 75 -139.5 100.5 -121.5 c 0,0,1
EndSplineSet
EndChar
StartChar: asciitilde
Encoding: 126 126 170
Width: 446
Flags: W
LayerCount: 2
Back
Fore
SplineSet
19 389 m 0,0,1
 43 421 43 421 66 445 c 128,-1,2
 89 469 89 469 116 478 c 0,3,4
 175 497 175 497 238 413 c 1,5,6
 260 381 260 381 285 375 c 0,7,8
 298 371 298 371 311 374 c 1,9,10
 323 378 323 378 338 388 c 0,11,12
 375 415 375 415 390 462 c 0,13,14
 396 484 396 484 418 479 c 1,15,16
 440 471 440 471 434 450 c 0,17,18
 415 387 415 387 366 351 c 0,19,20
 344 334 344 334 322 330 c 1,21,22
 295 323 295 323 271 331 c 0,23,24
 232 343 232 343 201 386 c 0,25,26
 158 444 158 444 130 434 c 1,27,28
 113 429 113 429 94.5 408.5 c 128,-1,29
 76 388 76 388 55 361 c 1,30,31
 41 341 41 341 23 356 c 256,32,33
 5 371 5 371 19 389 c 0,0,1
EndSplineSet
EndChar
StartChar: exclamdown
Encoding: 161 161 203
Width: 301
VWidth: 3000
Flags: W
LayerCount: 2
Back
Fore
SplineSet
226.5 738 m 256,0,1
 226.5 700.5 226.5 700.5 204.75 674.25 c 128,-1,2
 183 648 183 648 151.5 648 c 256,3,4
 120 648 120 648 97.5 674.25 c 128,-1,5
 75 700.5 75 700.5 75 738 c 256,6,7
 75 775.5 75 775.5 97.5 801 c 128,-1,8
 120 826.5 120 826.5 151.5 826.5 c 256,9,10
 183 826.5 183 826.5 204.75 801 c 128,-1,11
 226.5 775.5 226.5 775.5 226.5 738 c 256,0,1
124.5 -667.5 m 2,12,-1
 124.5 498 l 2,13,14
 124.5 531 124.5 531 159 531 c 0,15,16
 192 531 192 531 192 498 c 2,17,-1
 192 -667.5 l 2,18,19
 192 -702 192 -702 159 -702 c 0,20,21
 124.5 -702 124.5 -702 124.5 -667.5 c 2,12,-1
EndSplineSet
EndChar
StartChar: cent
Encoding: 162 162 205
Width: 762
VWidth: 3000
Flags: W
LayerCount: 2
Back
Fore
SplineSet
414 1096.5 m 2,0,-1
 414 949.5 l 1,1,2
 499.5 945 499.5 945 565.5 900 c 0,3,4
 636 853.5 636 853.5 675 757.5 c 0,5,6
 687 724.5 687 724.5 655.5 714 c 256,7,8
 624 703.5 624 703.5 612 733.5 c 0,9,10
 583.5 807 583.5 807 528 846 c 1,11,12
 480 877.5 480 877.5 414 882 c 1,13,-1
 414 241.5 l 1,14,15
 480 247.5 480 247.5 528 279 c 0,16,17
 583.5 316.5 583.5 316.5 612 391.5 c 0,18,19
 624 423 624 423 655.5 409.5 c 1,20,21
 685.5 399 685.5 399 675 367.5 c 1,22,23
 636 271.5 636 271.5 565.5 223.5 c 1,24,25
 501 181.5 501 181.5 414 175.5 c 1,26,-1
 414 16.5 l 2,27,28
 414 -16.5 414 -16.5 379.5 -16.5 c 0,29,30
 346.5 -16.5 346.5 -16.5 346.5 16.5 c 2,31,-1
 346.5 177 l 1,32,33
 226.5 190.5 226.5 190.5 156 279 c 0,34,35
 75 379.5 75 379.5 75 562.5 c 256,36,37
 75 745.5 75 745.5 156 846 c 0,38,39
 226.5 934.5 226.5 934.5 346.5 948 c 1,40,-1
 346.5 1096.5 l 2,41,42
 346.5 1129.5 346.5 1129.5 379.5 1129.5 c 0,43,44
 414 1129.5 414 1129.5 414 1096.5 c 2,0,-1
208.5 805.5 m 0,45,46
 142.5 720 142.5 720 142.5 562.5 c 0,47,48
 142.5 403.5 142.5 403.5 208.5 321 c 1,49,50
 258 256.5 258 256.5 346.5 244.5 c 1,51,-1
 346.5 880.5 l 1,52,53
 258 868.5 258 868.5 208.5 805.5 c 0,45,46
EndSplineSet
EndChar
StartChar: sterling
Encoding: 163 163 247
Width: 679
Flags: W
LayerCount: 2
Back
Fore
SplineSet
509 334 m 2,0,-1
 236 335 l 1,1,-1
 236 23 l 1,2,-1
 616 23 l 2,3,4
 638 23 638 23 638 0 c 0,5,6
 638 -22 638 -22 616 -22 c 2,7,-1
 73 -22 l 2,8,9
 50 -22 50 -22 50 0 c 0,10,11
 50 23 50 23 73 23 c 2,12,-1
 191 23 l 1,13,-1
 191 335 l 1,14,-1
 129 335 l 2,15,16
 105 335 105 335 106 359 c 0,17,18
 106 381 106 381 129 381 c 2,19,-1
 191 381 l 1,20,-1
 191 743 l 2,21,22
 191 864 191 864 245 932 c 0,23,24
 300 1001 300 1001 402 1001 c 0,25,26
 502 1001 502 1001 558 932 c 0,27,28
 612 865 612 865 612 743 c 0,29,30
 612 721 612 721 590 721 c 0,31,32
 567 721 567 721 567 743 c 0,33,34
 567 849 567 849 523 904 c 1,35,36
 482 957 482 957 402 957 c 256,37,38
 322 957 322 957 280 904 c 0,39,40
 236 849 236 849 236 743 c 2,41,-1
 236 381 l 1,42,-1
 509 381 l 1,43,44
 531 380 531 380 531 356 c 0,45,46
 531 333 531 333 509 334 c 2,0,-1
EndSplineSet
EndChar
StartChar: currency
Encoding: 164 164 251
Width: 823
VWidth: 3000
Flags: W
LayerCount: 2
Back
Fore
SplineSet
556.5 879 m 1,0,1
 496.5 939 496.5 939 412.5 939 c 0,2,3
 327 939 327 939 268.5 879 c 1,4,-1
 268.5 879 l 1,5,-1
 268.5 879 l 1,6,7
 208.5 817.5 208.5 817.5 208.5 735 c 0,8,9
 208.5 649.5 208.5 649.5 268.5 591 c 1,10,-1
 268.5 591 l 1,11,-1
 268.5 591 l 1,12,13
 327 531 327 531 412.5 531 c 0,14,15
 496.5 531 496.5 531 556.5 591 c 1,16,-1
 556.5 591 l 1,17,-1
 556.5 591 l 1,18,19
 616.5 649.5 616.5 649.5 616.5 735 c 0,20,21
 616.5 817.5 616.5 817.5 556.5 879 c 1,22,-1
 556.5 879 l 1,0,1
627 900 m 1,23,24
 684 828 684 828 684 735 c 0,25,26
 684 639 684 639 627 568.5 c 1,27,-1
 726 468 l 2,28,29
 748.5 445.5 748.5 445.5 726 421.5 c 1,30,31
 700.5 399 700.5 399 678 421.5 c 2,32,-1
 579 520.5 l 1,33,34
 507 463.5 507 463.5 412.5 463.5 c 0,35,36
 316.5 463.5 316.5 463.5 246 520.5 c 1,37,-1
 147 421.5 l 2,38,39
 123 397.5 123 397.5 100.5 421.5 c 1,40,41
 75 445.5 75 445.5 100.5 468 c 1,42,-1
 198 568.5 l 1,43,44
 141 639 141 639 141 735 c 0,45,46
 141 828 141 828 198 900 c 1,47,-1
 100.5 1000.5 l 1,48,49
 75 1023 75 1023 100.5 1047 c 1,50,51
 123 1071 123 1071 147 1047 c 2,52,-1
 246 949.5 l 1,53,54
 319.5 1006.5 319.5 1006.5 412.5 1006.5 c 0,55,56
 504 1006.5 504 1006.5 579 949.5 c 1,57,-1
 678 1047 l 2,58,59
 700.5 1071 700.5 1071 726 1047 c 1,60,61
 748.5 1023 748.5 1023 726 1000.5 c 2,62,-1
 627 900 l 1,23,24
EndSplineSet
EndChar

StartChar: yen
Encoding: 165 165 177
Width: 639
Flags: W
LayerCount: 2
Fore
SplineSet
461 404 m 2,0,-1
 341 404 l 1,1,-1
 341 286 l 1,2,-1
 462 286 l 2,3,4
 484 286 484 286 485 262 c 0,5,6
 485 239 485 239 461 239 c 2,7,-1
 341 239 l 1,8,-1
 341 0 l 2,9,10
 341 -22 341 -22 318 -22 c 0,11,12
 296 -22 296 -22 296 0 c 2,13,-1
 296 239 l 1,14,-1
 179 240 l 2,15,16
 155 240 155 240 156 264 c 1,17,18
 155 286 155 286 179 286 c 2,19,-1
 296 286 l 1,20,-1
 296 405 l 1,21,-1
 177 406 l 2,22,23
 154 406 154 406 155 429 c 0,24,25
 155 452 155 452 177 452 c 2,26,-1
 296 452 l 1,27,-1
 296 485 l 1,28,-1
 58 969 l 1,29,30
 50 989 50 989 68 998 c 0,31,32
 87 1008 87 1008 98 989 c 1,33,-1
 318 539 l 1,34,-1
 539 989 l 1,35,36
 550 1008 550 1008 569 998 c 1,37,38
 589 989 589 989 579 969 c 2,39,-1
 341 485 l 1,40,-1
 341 452 l 1,41,-1
 462 452 l 1,42,43
 484 451 484 451 485 428 c 1,44,45
 485 404 485 404 461 404 c 2,0,-1
EndSplineSet
EndChar
StartChar: brokenbar
Encoding: 166 166 195
Width: 223
VWidth: 3000
Flags: W
LayerCount: 2
Back
Fore
SplineSet
114 -744 m 0,0,1
 81 -744 81 -744 81 -711 c 2,2,-1
 81 354 l 1,3,-1
 148.5 354 l 1,4,-1
 148.5 -711 l 2,5,6
 148.5 -744 148.5 -744 114 -744 c 0,0,1
148.5 1582.5 m 2,7,-1
 148.5 657 l 1,8,-1
 81 657 l 1,9,-1
 81 1582.5 l 2,10,11
 81 1615.5 81 1615.5 114 1615.5 c 0,12,13
 148.5 1615.5 148.5 1615.5 148.5 1582.5 c 2,7,-1
EndSplineSet
EndChar
StartChar: section
Encoding: 167 167 194
Width: 786
VWidth: 3000
Flags: W
LayerCount: 2
Back
Fore
SplineSet
94.5 1261.5 m 0,0,1
 108 1366.5 108 1366.5 201 1435.5 c 1,2,3
 286.5 1497 286.5 1497 411 1497 c 0,4,5
 522 1497 522 1497 589.5 1444.5 c 0,6,7
 630 1414.5 630 1414.5 660 1374 c 128,-1,8
 690 1333.5 690 1333.5 712.5 1281 c 1,9,10
 723 1252.5 723 1252.5 700.5 1233 c 1,11,12
 684 1221 684 1221 672 1225.5 c 128,-1,13
 660 1230 660 1230 652.5 1245 c 0,14,15
 634.5 1288.5 634.5 1288.5 609.75 1323 c 128,-1,16
 585 1357.5 585 1357.5 558 1378.5 c 0,17,18
 492 1428 492 1428 411 1428 c 0,19,20
 310.5 1428 310.5 1428 232.5 1372.5 c 1,21,22
 204 1348.5 204 1348.5 185.25 1316.25 c 128,-1,23
 166.5 1284 166.5 1284 163.5 1249.5 c 1,24,25
 147 1141.5 147 1141.5 225 1090.5 c 0,26,27
 307.5 1036.5 307.5 1036.5 399 999 c 0,28,29
 531 943.5 531 943.5 628.5 871.5 c 1,30,31
 714 804 714 804 714 673.5 c 0,32,33
 714 660 714 660 713.25 645.75 c 128,-1,34
 712.5 631.5 712.5 631.5 711 615 c 0,35,36
 706.5 573 706.5 573 688.5 537 c 128,-1,37
 670.5 501 670.5 501 640.5 471 c 1,38,-1
 633 462 l 1,39,40
 670.5 427.5 670.5 427.5 692.25 375.75 c 128,-1,41
 714 324 714 324 714 264 c 0,42,43
 714 249 714 249 714 234 c 128,-1,44
 714 219 714 219 711 204 c 0,45,46
 702 151.5 702 151.5 675.75 106.5 c 128,-1,47
 649.5 61.5 649.5 61.5 603 27 c 0,48,49
 520.5 -33 520.5 -33 391.5 -33 c 0,50,51
 282 -33 282 -33 208.5 18 c 1,52,53
 126 79.5 126 79.5 87 181.5 c 0,54,55
 76.5 213 76.5 213 102 232.5 c 1,56,57
 117 241.5 117 241.5 128.25 236.25 c 128,-1,58
 139.5 231 139.5 231 147 219 c 1,59,60
 166.5 174 166.5 174 189.75 138.75 c 128,-1,61
 213 103.5 213 103.5 243 84 c 1,62,63
 303 33 303 33 391.5 33 c 0,64,65
 442.5 33 442.5 33 487.5 48.75 c 128,-1,66
 532.5 64.5 532.5 64.5 571.5 90 c 1,67,68
 601.5 115.5 601.5 115.5 620.25 147.75 c 128,-1,69
 639 180 639 180 642 219 c 1,70,71
 660 358.5 660 358.5 570 417 c 0,72,73
 522 447 522 447 474 473.25 c 128,-1,74
 426 499.5 426 499.5 378 520.5 c 0,75,76
 316.5 546 316.5 546 264 576 c 128,-1,77
 211.5 606 211.5 606 168 636 c 0,78,79
 91.5 691.5 91.5 691.5 91.5 801 c 0,80,81
 91.5 811.5 91.5 811.5 92.25 823.5 c 128,-1,82
 93 835.5 93 835.5 94.5 849 c 0,83,84
 100.5 897 100.5 897 121.5 938.25 c 128,-1,85
 142.5 979.5 142.5 979.5 181.5 1012.5 c 1,86,-1
 196.5 1027.5 l 1,87,-1
 168 1048.5 l 2,88,89
 132 1075.5 132 1075.5 111.75 1116.75 c 128,-1,90
 91.5 1158 91.5 1158 91.5 1212 c 0,91,92
 91.5 1224 91.5 1224 92.25 1236 c 128,-1,93
 93 1248 93 1248 94.5 1261.5 c 0,0,1
571.5 501 m 1,94,95
 634.5 549 634.5 549 642 630 c 1,96,97
 660 766.5 660 766.5 570 826.5 c 0,98,99
 522 858 522 858 474 884.25 c 128,-1,100
 426 910.5 426 910.5 378 931.5 c 0,101,102
 349.5 945 349.5 945 318 962.25 c 128,-1,103
 286.5 979.5 286.5 979.5 261 993 c 1,104,-1
 232.5 963 l 1,105,106
 202.5 936 202.5 936 184.5 904.5 c 128,-1,107
 166.5 873 166.5 873 163.5 837 c 1,108,109
 156 784.5 156 784.5 172.5 744 c 128,-1,110
 189 703.5 189 703.5 225 678 c 1,111,112
 307.5 625.5 307.5 625.5 399 589.5 c 1,113,114
 448.5 565.5 448.5 565.5 490.5 543 c 128,-1,115
 532.5 520.5 532.5 520.5 568.5 499.5 c 1,116,-1
 568.5 498 l 1,117,-1
 571.5 501 l 1,94,95
EndSplineSet
EndChar
StartChar: dieresis
Encoding: 168 168 63
Width: 450
VWidth: 3000
Flags: W
LayerCount: 2
Back
Fore
SplineSet
268.5 1119 m 256,0,1
 268.5 1156.5 268.5 1156.5 290.25 1182.75 c 128,-1,2
 312 1209 312 1209 343.5 1209 c 256,3,4
 375 1209 375 1209 397.5 1182.75 c 128,-1,5
 420 1156.5 420 1156.5 420 1119 c 256,6,7
 420 1081.5 420 1081.5 397.5 1056 c 128,-1,8
 375 1030.5 375 1030.5 343.5 1030.5 c 256,9,10
 312 1030.5 312 1030.5 290.25 1056 c 128,-1,11
 268.5 1081.5 268.5 1081.5 268.5 1119 c 256,0,1
36 1119 m 256,12,13
 36 1156.5 36 1156.5 57.75 1182.75 c 128,-1,14
 79.5 1209 79.5 1209 111 1209 c 256,15,16
 142.5 1209 142.5 1209 165 1182.75 c 128,-1,17
 187.5 1156.5 187.5 1156.5 187.5 1119 c 256,18,19
 187.5 1081.5 187.5 1081.5 165 1056 c 128,-1,20
 142.5 1030.5 142.5 1030.5 111 1030.5 c 256,21,22
 79.5 1030.5 79.5 1030.5 57.75 1056 c 128,-1,23
 36 1081.5 36 1081.5 36 1119 c 256,12,13
EndSplineSet
EndChar
StartChar: copyright
Encoding: 169 169 243
Width: 1684
VWidth: 3000
Flags: W
LayerCount: 2
Back
Fore
SplineSet
1150.5 375 m 0,0,1
 1104 255 1104 255 1027.5 195 c 0,2,3
 946.5 130.5 946.5 130.5 835.5 130.5 c 0,4,5
 633 130.5 633 130.5 549 307.5 c 128,-1,6
 465 484.5 465 484.5 465 735 c 0,7,8
 465 1018.5 465 1018.5 559.5 1174.5 c 1,9,10
 655.5 1339.5 655.5 1339.5 835.5 1339.5 c 0,11,12
 943.5 1339.5 943.5 1339.5 1027.5 1275 c 1,13,14
 1104 1213.5 1104 1213.5 1150.5 1093.5 c 0,15,16
 1164 1062 1164 1062 1131 1051.5 c 1,17,18
 1099.5 1039.5 1099.5 1039.5 1087.5 1069.5 c 0,19,20
 1048.5 1170 1048.5 1170 985.5 1222.5 c 1,21,22
 921 1272 921 1272 835.5 1272 c 0,23,24
 691.5 1272 691.5 1272 616.5 1141.5 c 0,25,26
 532.5 997.5 532.5 997.5 532.5 735 c 0,27,28
 532.5 511.5 532.5 511.5 601.5 354.75 c 128,-1,29
 670.5 198 670.5 198 835.5 198 c 0,30,31
 924 198 924 198 985.5 247.5 c 0,32,33
 1048.5 297 1048.5 297 1087.5 399 c 0,34,35
 1099.5 430.5 1099.5 430.5 1131 418.5 c 0,36,37
 1162.5 405 1162.5 405 1150.5 375 c 0,0,1
841.5 1501.5 m 0,38,39
 1161 1501.5 1161 1501.5 1384.5 1278 c 0,40,41
 1609.5 1053 1609.5 1053 1609.5 735 c 0,42,43
 1609.5 415.5 1609.5 415.5 1384.5 192 c 0,44,45
 1161 -31.5 1161 -31.5 841.5 -31.5 c 0,46,47
 523.5 -31.5 523.5 -31.5 298.5 192 c 1,48,49
 75 417 75 417 75 735 c 0,50,51
 75 1051.5 75 1051.5 298.5 1278 c 1,52,53
 523.5 1501.5 523.5 1501.5 841.5 1501.5 c 0,38,39
1336.5 1230 m 0,54,55
 1131 1434 1131 1434 841.5 1434 c 256,56,57
 552 1434 552 1434 348 1230 c 0,58,59
 142.5 1024.5 142.5 1024.5 142.5 735 c 256,60,61
 142.5 445.5 142.5 445.5 348 240 c 1,62,63
 550.5 34.5 550.5 34.5 841.5 34.5 c 0,64,65
 1131 34.5 1131 34.5 1336.5 240 c 256,66,67
 1542 445.5 1542 445.5 1542 735 c 256,68,69
 1542 1024.5 1542 1024.5 1336.5 1230 c 0,54,55
EndSplineSet
EndChar

StartChar: guillemotleft
Encoding: 171 171 173
Width: 508
Flags: W
LayerCount: 2
Fore
SplineSet
420 -13 m 2,0,-1
 228 237 l 1,1,-1
 420 485 l 2,2,3
 434 503 434 503 452 490 c 1,4,5
 467 475 467 475 455 460 c 2,6,-1
 283 237 l 1,7,-1
 455 15 l 2,8,9
 467 -2 467 -2 452 -17 c 1,10,11
 434 -30 434 -30 420 -13 c 2,0,-1
242 -13 m 2,12,-1
 50 237 l 1,13,-1
 242 485 l 2,14,15
 256 503 256 503 274 490 c 1,16,17
 289 475 289 475 277 460 c 2,18,-1
 105 237 l 1,19,-1
 277 15 l 2,20,21
 289 -2 289 -2 274 -17 c 1,22,23
 256 -30 256 -30 242 -13 c 2,12,-1
EndSplineSet
EndChar
StartChar: logicalnot
Encoding: 172 172 237
Width: 951
VWidth: 3000
Flags: W
LayerCount: 2
Back
Fore
SplineSet
757.5 298.5 m 0,0,1
 724.5 298.5 724.5 298.5 724.5 333 c 2,2,-1
 724.5 501 l 1,3,-1
 193.5 502.5 l 2,4,5
 157.5 502.5 157.5 502.5 159 538.5 c 0,6,7
 159 571.5 159 571.5 193.5 571.5 c 2,8,-1
 757.5 571.5 l 1,9,10
 790.5 570 790.5 570 795 535.5 c 1,11,-1
 793.5 333 l 2,12,13
 793.5 297 793.5 297 757.5 298.5 c 0,0,1
EndSplineSet
EndChar

StartChar: uni00AD
Encoding: 173 173 236
Width: 634
Flags: W
LayerCount: 2
Fore
SplineSet
509 334 m 2,0,-1
 129 335 l 2,1,2
 105 335 105 335 106 359 c 0,3,4
 106 381 106 381 129 381 c 2,5,-1
 509 381 l 1,6,7
 531 380 531 380 531 356 c 0,8,9
 531 333 531 333 509 334 c 2,0,-1
EndSplineSet
EndChar
StartChar: registered
Encoding: 174 174 240
Width: 939
VWidth: 3000
Flags: W
LayerCount: 2
Back
Fore
SplineSet
483 1057.5 m 2,0,-1
 466.5 1057.5 l 1,1,-1
 649.5 852 l 2,2,3
 672 828 672 828 648 805.5 c 0,4,5
 622.5 781.5 622.5 781.5 600 807 c 2,6,-1
 427.5 1003.5 l 1,7,-1
 427.5 829.5 l 2,8,9
 427.5 796.5 427.5 796.5 393 796.5 c 0,10,11
 360 796.5 360 796.5 360 829.5 c 2,12,-1
 360 1090.5 l 1,13,-1
 360 1353 l 2,14,15
 360 1386 360 1386 393 1386 c 2,16,17
 393 1386 393 1386 393.75 1386 c 128,-1,18
 394.5 1386 394.5 1386 396 1386 c 2,19,-1
 481.5 1386 l 1,20,21
 481.5 1386 481.5 1386 481.5 1386 c 129,-1,22
 481.5 1386 481.5 1386 483 1386 c 0,23,24
 562.5 1386 562.5 1386 610.5 1344 c 1,25,26
 658.5 1297.5 658.5 1297.5 658.5 1222.5 c 0,27,28
 658.5 1144.5 658.5 1144.5 610.5 1099.5 c 1,29,30
 562.5 1057.5 562.5 1057.5 483 1057.5 c 2,0,-1
484.5 1501.5 m 256,31,32
 657 1501.5 657 1501.5 777 1380 c 1,33,34
 898.5 1260 898.5 1260 898.5 1087.5 c 256,35,36
 898.5 915 898.5 915 777 795 c 1,37,38
 657 673.5 657 673.5 484.5 673.5 c 256,39,40
 312 673.5 312 673.5 192 795 c 1,41,42
 70.5 915 70.5 915 70.5 1087.5 c 256,43,44
 70.5 1260 70.5 1260 192 1380 c 1,45,46
 312 1501.5 312 1501.5 484.5 1501.5 c 256,31,32
730.5 1333.5 m 1,47,48
 627 1434 627 1434 484.5 1434 c 0,49,50
 340.5 1434 340.5 1434 238.5 1333.5 c 1,51,52
 136.5 1230 136.5 1230 136.5 1087.5 c 256,53,54
 136.5 945 136.5 945 238.5 841.5 c 1,55,56
 340.5 741 340.5 741 484.5 741 c 0,57,58
 627 741 627 741 730.5 841.5 c 1,59,60
 831 943.5 831 943.5 831 1087.5 c 256,61,62
 831 1231.5 831 1231.5 730.5 1333.5 c 1,47,48
427.5 1318.5 m 1,63,-1
 427.5 1125 l 1,64,-1
 483 1125 l 2,65,66
 535.5 1125 535.5 1125 565.5 1149 c 1,67,68
 591 1171.5 591 1171.5 591 1222.5 c 0,69,70
 591 1270.5 591 1270.5 565.5 1294.5 c 1,71,72
 535.5 1318.5 535.5 1318.5 483 1318.5 c 0,73,74
 481.5 1318.5 481.5 1318.5 481.5 1318.5 c 129,-1,75
 481.5 1318.5 481.5 1318.5 481.5 1318.5 c 1,76,-1
 427.5 1318.5 l 1,63,-1
EndSplineSet
EndChar

StartChar: macron
Encoding: 175 175 248
Width: 522
Flags: W
LayerCount: 2
Fore
SplineSet
454 723 m 2,0,-1
 74 724 l 2,1,2
 50 724 50 724 51 748 c 0,3,4
 51 770 51 770 74 770 c 2,5,-1
 454 770 l 1,6,7
 476 769 476 769 476 745 c 0,8,9
 476 722 476 722 454 723 c 2,0,-1
EndSplineSet
EndChar
StartChar: degree
Encoding: 176 176 235
Width: 589
VWidth: 3000
Flags: W
LayerCount: 2
Back
Fore
SplineSet
136.5 1267.5 m 0,0,1
 136.5 1233 136.5 1233 149.25 1203.75 c 128,-1,2
 162 1174.5 162 1174.5 184.5 1152.75 c 128,-1,3
 207 1131 207 1131 236.25 1118.25 c 128,-1,4
 265.5 1105.5 265.5 1105.5 298.5 1105.5 c 256,5,6
 331.5 1105.5 331.5 1105.5 361.5 1118.25 c 128,-1,7
 391.5 1131 391.5 1131 414 1152.75 c 128,-1,8
 436.5 1174.5 436.5 1174.5 449.25 1203.75 c 128,-1,9
 462 1233 462 1233 462 1267.5 c 0,10,11
 462 1300.5 462 1300.5 449.25 1330.5 c 128,-1,12
 436.5 1360.5 436.5 1360.5 414 1383 c 128,-1,13
 391.5 1405.5 391.5 1405.5 361.5 1418.25 c 128,-1,14
 331.5 1431 331.5 1431 298.5 1431 c 256,15,16
 265.5 1431 265.5 1431 236.25 1418.25 c 128,-1,17
 207 1405.5 207 1405.5 184.5 1383 c 128,-1,18
 162 1360.5 162 1360.5 149.25 1330.5 c 128,-1,19
 136.5 1300.5 136.5 1300.5 136.5 1267.5 c 0,0,1
69 1267.5 m 256,20,21
 69 1315.5 69 1315.5 87 1357.5 c 128,-1,22
 105 1399.5 105 1399.5 135.75 1431 c 128,-1,23
 166.5 1462.5 166.5 1462.5 208.5 1480.5 c 128,-1,24
 250.5 1498.5 250.5 1498.5 298.5 1498.5 c 256,25,26
 346.5 1498.5 346.5 1498.5 388.5 1480.5 c 128,-1,27
 430.5 1462.5 430.5 1462.5 462 1431 c 128,-1,28
 493.5 1399.5 493.5 1399.5 511.5 1357.5 c 128,-1,29
 529.5 1315.5 529.5 1315.5 529.5 1267.5 c 256,30,31
 529.5 1219.5 529.5 1219.5 511.5 1177.5 c 128,-1,32
 493.5 1135.5 493.5 1135.5 462 1104.75 c 128,-1,33
 430.5 1074 430.5 1074 388.5 1056 c 128,-1,34
 346.5 1038 346.5 1038 298.5 1038 c 256,35,36
 250.5 1038 250.5 1038 208.5 1056 c 128,-1,37
 166.5 1074 166.5 1074 135.75 1104.75 c 128,-1,38
 105 1135.5 105 1135.5 87 1177.5 c 128,-1,39
 69 1219.5 69 1219.5 69 1267.5 c 256,20,21
EndSplineSet
EndChar
StartChar: plusminus
Encoding: 177 177 246
Width: 951
VWidth: 3000
Flags: W
LayerCount: 2
Back
Fore
SplineSet
763.5 193.5 m 2,0,-1
 193.5 195 l 2,1,2
 157.5 195 157.5 195 159 231 c 0,3,4
 159 264 159 264 193.5 264 c 2,5,-1
 763.5 264 l 1,6,7
 796.5 262.5 796.5 262.5 796.5 226.5 c 0,8,9
 796.5 192 796.5 192 763.5 193.5 c 2,0,-1
763.5 630 m 1,10,-1
 510 630 l 1,11,-1
 510 381 l 2,12,13
 510 345 510 345 474 346.5 c 0,14,15
 441 346.5 441 346.5 441 381 c 2,16,-1
 441 630 l 1,17,-1
 193.5 631.5 l 2,18,19
 157.5 631.5 157.5 631.5 159 667.5 c 0,20,21
 159 700.5 159 700.5 193.5 700.5 c 2,22,-1
 441 700.5 l 1,23,-1
 441 951 l 1,24,25
 442.5 984 442.5 984 478.5 984 c 0,26,27
 513 984 513 984 511.5 951 c 2,28,-1
 510 700.5 l 1,29,-1
 763.5 700.5 l 1,30,31
 796.5 699 796.5 699 796.5 663 c 0,32,33
 796.5 628.5 796.5 628.5 763.5 630 c 1,10,-1
EndSplineSet
EndChar
StartChar: twosuperior
Encoding: 178 178 197
Width: 573
VWidth: 3000
Flags: W
LayerCount: 2
Back
Fore
SplineSet
30 1180.5 m 0,0,1
 30 1311 30 1311 102 1401 c 1,2,-1
 100.5 1401 l 1,3,4
 174 1497 174 1497 283.5 1497 c 256,5,6
 393 1497 393 1497 466.5 1401 c 0,7,8
 537 1308 537 1308 537 1180.5 c 0,9,10
 537 1110 537 1110 513 1048.5 c 0,11,12
 486 979.5 486 979.5 445.5 937.5 c 2,13,-1
 154.5 636 l 1,14,-1
 499.5 636 l 2,15,16
 537 636 537 636 537 600 c 0,17,18
 537 562.5 537 562.5 499.5 562.5 c 2,19,-1
 66 562.5 l 2,20,21
 30 562.5 30 562.5 30 600 c 0,22,23
 30 613.5 30 613.5 42 625.5 c 1,24,-1
 40.5 625.5 l 1,25,26
 129 715.5 129 715.5 216 806.25 c 128,-1,27
 303 897 303 897 391.5 988.5 c 0,28,29
 409.5 1005 409.5 1005 422.25 1028.25 c 128,-1,30
 435 1051.5 435 1051.5 444 1072.5 c 1,31,32
 463.5 1128 463.5 1128 463.5 1180.5 c 0,33,34
 463.5 1278 463.5 1278 406.5 1356 c 1,35,36
 354 1423.5 354 1423.5 283.5 1423.5 c 0,37,38
 210 1423.5 210 1423.5 160.5 1356 c 0,39,40
 103.5 1281 103.5 1281 103.5 1180.5 c 0,41,42
 103.5 1143 103.5 1143 66 1143 c 0,43,44
 30 1143 30 1143 30 1180.5 c 0,0,1
EndSplineSet
EndChar
StartChar: threesuperior
Encoding: 179 179 198
Width: 573
VWidth: 3000
Flags: W
LayerCount: 2
Back
Fore
SplineSet
30 1245 m 0,0,1
 30 1350 30 1350 105 1425 c 0,2,3
 178.5 1498.5 178.5 1498.5 283.5 1498.5 c 0,4,5
 384 1498.5 384 1498.5 462 1425 c 1,6,7
 537 1347 537 1347 537 1245 c 256,8,9
 537 1143 537 1143 462 1068 c 0,10,11
 447 1054.5 447 1054.5 440.25 1047.75 c 128,-1,12
 433.5 1041 433.5 1041 417 1032 c 1,13,14
 439.5 1015.5 439.5 1015.5 462 993 c 0,15,16
 537 918 537 918 537 816 c 256,17,18
 537 714 537 714 462 639 c 256,19,20
 387 564 387 564 283.5 564 c 256,21,22
 180 564 180 564 105 639 c 0,23,24
 30 712.5 30 712.5 30 816 c 0,25,26
 30 853.5 30 853.5 66 853.5 c 0,27,28
 103.5 853.5 103.5 853.5 103.5 816 c 0,29,30
 103.5 741 103.5 741 156 688.5 c 1,31,-1
 156 690 l 1,32,33
 211.5 637.5 211.5 637.5 283.5 637.5 c 0,34,35
 357 637.5 357 637.5 411 688.5 c 1,36,37
 463.5 744 463.5 744 463.5 816 c 0,38,39
 463.5 891 463.5 891 411 940.5 c 1,40,41
 358.5 993 358.5 993 283.5 993 c 0,42,43
 246 993 246 993 246 1032 c 0,44,45
 246 1068 246 1068 283.5 1068 c 0,46,47
 357 1068 357 1068 411 1119 c 1,48,49
 463.5 1171.5 463.5 1171.5 463.5 1245 c 0,50,51
 463.5 1321.5 463.5 1321.5 411 1371 c 1,52,53
 357 1425 357 1425 283.5 1425 c 256,54,55
 210 1425 210 1425 156 1371 c 1,56,57
 103.5 1323 103.5 1323 103.5 1245 c 0,58,59
 103.5 1209 103.5 1209 66 1209 c 0,60,61
 30 1209 30 1209 30 1245 c 0,0,1
EndSplineSet
EndChar

StartChar: acute
Encoding: 180 180 67
Width: 300
Flags: W
LayerCount: 2
Fore
SplineSet
245 777 m 2,0,-1
 79 677 l 2,1,2
 60 666 60 666 48 686 c 0,3,4
 37 704 37 704 56 716 c 2,5,-1
 221 815 l 2,6,7
 241 827 241 827 253 808 c 1,8,9
 264 788 264 788 245 777 c 2,0,-1
EndSplineSet
EndChar

StartChar: mu
Encoding: 181 181 191
Width: 521
Flags: W
LayerCount: 2
Fore
SplineSet
95 236 m 2,0,1
 95 130 95 130 139 75 c 1,2,3
 180 22 180 22 260 22 c 256,4,5
 340 22 340 22 382 75 c 0,6,7
 426 130 426 130 426 236 c 2,8,-1
 426 472 l 2,9,10
 426 495 426 495 448 495 c 0,11,12
 471 495 471 495 471 472 c 2,13,-1
 471 0 l 2,14,15
 471 -22 471 -22 448 -22 c 0,16,17
 426 -22 426 -22 426 0 c 2,18,-1
 426 60 l 1,19,20
 424 56 424 56 417 47 c 0,21,22
 362 -22 362 -22 260 -22 c 0,23,24
 160 -22 160 -22 104 47 c 0,25,26
 99 52 99 52 95 59 c 1,27,-1
 95 -477 l 2,28,29
 95 -499 95 -499 72 -499 c 0,30,31
 50 -499 50 -499 50 -477 c 2,32,-1
 50 472 l 2,33,34
 50 495 50 495 72 495 c 0,35,36
 95 495 95 495 95 472 c 2,37,-1
 95 236 l 2,0,1
EndSplineSet
EndChar
StartChar: paragraph
Encoding: 182 182 190
Width: 816
VWidth: 3000
Flags: W
LayerCount: 2
Back
Fore
SplineSet
771 1501.5 m 2,0,1
 804 1501.5 804 1501.5 804 1467 c 0,2,3
 804 1434 804 1434 771 1434 c 2,4,-1
 616.5 1434 l 1,5,-1
 616.5 0 l 2,6,7
 616.5 -33 616.5 -33 582 -33 c 0,8,9
 549 -33 549 -33 549 0 c 2,10,-1
 549 1434 l 1,11,-1
 298.5 1434 l 1,12,-1
 298.5 0 l 2,13,14
 298.5 -33 298.5 -33 264 -33 c 0,15,16
 231 -33 231 -33 231 0 c 2,17,-1
 231 894 l 1,18,19
 147 903 147 903 94.5 973.5 c 1,20,21
 37.5 1053 37.5 1053 37.5 1195.5 c 0,22,23
 37.5 1339.5 37.5 1339.5 94.5 1417.5 c 256,24,25
 151.5 1495.5 151.5 1495.5 249 1500 c 1,26,-1
 771 1501.5 l 2,0,1
EndSplineSet
EndChar
StartChar: periodcentered
Encoding: 183 183 180
Width: 303
VWidth: 3000
Flags: W
LayerCount: 2
Back
Fore
SplineSet
78 670.5 m 256,0,1
 78 708 78 708 99.75 734.25 c 128,-1,2
 121.5 760.5 121.5 760.5 153 760.5 c 256,3,4
 184.5 760.5 184.5 760.5 207 734.25 c 128,-1,5
 229.5 708 229.5 708 229.5 670.5 c 256,6,7
 229.5 633 229.5 633 207 607.5 c 128,-1,8
 184.5 582 184.5 582 153 582 c 256,9,10
 121.5 582 121.5 582 99.75 607.5 c 128,-1,11
 78 633 78 633 78 670.5 c 256,0,1
EndSplineSet
EndChar
StartChar: cedilla
Encoding: 184 184 154
Width: 246
VWidth: 3000
Flags: W
LayerCount: 2
Back
Fore
SplineSet
135 46.5 m 1,0,1
 129 24 129 24 126 6 c 1,2,3
 114 -31.5 114 -31.5 106.5 -66 c 1,4,5
 114 -58.5 114 -58.5 126 -52.5 c 0,6,7
 180 -21 180 -21 205.5 -58.5 c 1,8,9
 253.5 -121.5 253.5 -121.5 211.5 -237 c 0,10,11
 180 -325.5 180 -325.5 84 -466.5 c 0,12,13
 63 -495 63 -495 34.5 -477 c 1,14,15
 9 -456 9 -456 24 -429 c 1,16,17
 117 -294 117 -294 147 -211.5 c 0,18,19
 174 -138 174 -138 139.5 -126 c 1,20,21
 99 -142.5 99 -142.5 75.75 -144 c 128,-1,22
 52.5 -145.5 52.5 -145.5 28.5 -118.5 c 1,23,24
 16.5 -96 16.5 -96 30 -58.5 c 128,-1,25
 43.5 -21 43.5 -21 58.5 24 c 0,26,27
 61.5 34.5 61.5 34.5 63 46.5 c 1,28,-1
 135 46.5 l 1,0,1
EndSplineSet
EndChar
StartChar: onesuperior
Encoding: 185 185 199
Width: 127
Flags: W
LayerCount: 2
Back
Fore
SplineSet
88 402 m 2,0,1
 88 378 88 378 62 378 c 0,2,3
 38 378 38 378 38 402 c 2,4,-1
 38 976 l 2,5,6
 38 1001 38 1001 62 1001 c 0,7,8
 88 1001 88 1001 88 976 c 2,9,-1
 88 402 l 2,0,1
EndSplineSet
EndChar
StartChar: guillemotright
Encoding: 187 187 174
Width: 762
VWidth: 3000
Flags: W
LayerCount: 2
Back
Fore
SplineSet
145.5 729 m 2,0,-1
 433.5 354 l 1,1,-1
 145.5 -18 l 2,2,3
 124.5 -45 124.5 -45 97.5 -25.5 c 1,4,5
 75 -3 75 -3 93 19.5 c 2,6,-1
 351 354 l 1,7,-1
 93 687 l 2,8,9
 75 712.5 75 712.5 97.5 735 c 1,10,11
 124.5 754.5 124.5 754.5 145.5 729 c 2,0,-1
412.5 729 m 2,12,-1
 700.5 354 l 1,13,-1
 412.5 -18 l 2,14,15
 391.5 -45 391.5 -45 364.5 -25.5 c 1,16,17
 342 -3 342 -3 360 19.5 c 2,18,-1
 618 354 l 1,19,-1
 360 687 l 2,20,21
 342 712.5 342 712.5 364.5 735 c 1,22,23
 391.5 754.5 391.5 754.5 412.5 729 c 2,12,-1
EndSplineSet
EndChar
StartChar: onequarter
Encoding: 188 188 201
Width: 1206
VWidth: 3000
Flags: W
LayerCount: 2
Back
Fore
SplineSet
931.5 469.5 m 1,0,-1
 1093.5 469.5 l 2,1,2
 1131 469.5 1131 469.5 1131 432 c 0,3,4
 1131 396 1131 396 1093.5 396 c 2,5,-1
 931.5 396 l 1,6,-1
 931.5 18 l 2,7,8
 931.5 -19.5 931.5 -19.5 895.5 -19.5 c 256,9,10
 859.5 -19.5 859.5 -19.5 859.5 18 c 2,11,-1
 859.5 396 l 1,12,-1
 664.5 396 l 1,13,14
 637.5 399 637.5 399 631.5 415.5 c 1,15,-1
 628.5 415.5 l 1,16,-1
 661.5 880.5 l 1,17,18
 666 915 666 915 700.5 915 c 1,19,20
 739.5 910.5 739.5 910.5 735 874.5 c 1,21,22
 727.5 768 727.5 768 720 672 c 128,-1,23
 712.5 576 712.5 576 705 469.5 c 1,24,-1
 859.5 469.5 l 1,25,-1
 859.5 877.5 l 2,26,27
 859.5 915 859.5 915 895.5 915 c 256,28,29
 931.5 915 931.5 915 931.5 877.5 c 2,30,-1
 931.5 469.5 l 1,0,-1
843 1452 m 2,31,-1
 150 21 l 2,32,33
 136.5 -9 136.5 -9 105 6 c 0,34,35
 75 19.5 75 19.5 90 49.5 c 2,36,-1
 781.5 1482 l 2,37,38
 796.5 1512 796.5 1512 826.5 1497 c 256,39,40
 856.5 1482 856.5 1482 843 1452 c 2,31,-1
169.5 603 m 2,41,42
 169.5 567 169.5 567 130.5 567 c 0,43,44
 94.5 567 94.5 567 94.5 603 c 2,45,-1
 94.5 1464 l 2,46,47
 94.5 1501.5 94.5 1501.5 130.5 1501.5 c 0,48,49
 169.5 1501.5 169.5 1501.5 169.5 1464 c 2,50,-1
 169.5 603 l 2,41,42
EndSplineSet
EndChar
StartChar: onehalf
Encoding: 189 189 202
Width: 1161
VWidth: 3000
Flags: W
LayerCount: 2
Back
Fore
SplineSet
843 1452 m 2,0,-1
 150 21 l 2,1,2
 136.5 -9 136.5 -9 105 6 c 0,3,4
 75 19.5 75 19.5 90 49.5 c 2,5,-1
 781.5 1482 l 2,6,7
 796.5 1512 796.5 1512 826.5 1497 c 256,8,9
 856.5 1482 856.5 1482 843 1452 c 2,0,-1
181.5 603 m 2,10,11
 181.5 567 181.5 567 142.5 567 c 0,12,13
 106.5 567 106.5 567 106.5 603 c 2,14,-1
 106.5 1464 l 2,15,16
 106.5 1501.5 106.5 1501.5 142.5 1501.5 c 0,17,18
 181.5 1501.5 181.5 1501.5 181.5 1464 c 2,19,-1
 181.5 603 l 2,10,11
579 598.5 m 0,20,21
 579 729 579 729 651 819 c 1,22,-1
 649.5 819 l 1,23,24
 723 915 723 915 832.5 915 c 256,25,26
 942 915 942 915 1015.5 819 c 0,27,28
 1086 726 1086 726 1086 598.5 c 0,29,30
 1086 528 1086 528 1062 466.5 c 0,31,32
 1035 397.5 1035 397.5 994.5 355.5 c 2,33,-1
 703.5 54 l 1,34,-1
 1048.5 54 l 2,35,36
 1086 54 1086 54 1086 18 c 0,37,38
 1086 -19.5 1086 -19.5 1048.5 -19.5 c 2,39,-1
 615 -19.5 l 2,40,41
 579 -19.5 579 -19.5 579 18 c 0,42,43
 579 31.5 579 31.5 591 43.5 c 1,44,-1
 589.5 43.5 l 1,45,46
 678 133.5 678 133.5 765 224.25 c 128,-1,47
 852 315 852 315 940.5 406.5 c 0,48,49
 958.5 423 958.5 423 971.25 446.25 c 128,-1,50
 984 469.5 984 469.5 993 490.5 c 1,51,52
 1012.5 546 1012.5 546 1012.5 598.5 c 0,53,54
 1012.5 696 1012.5 696 955.5 774 c 1,55,56
 903 841.5 903 841.5 832.5 841.5 c 0,57,58
 759 841.5 759 841.5 709.5 774 c 0,59,60
 652.5 699 652.5 699 652.5 598.5 c 0,61,62
 652.5 561 652.5 561 615 561 c 0,63,64
 579 561 579 561 579 598.5 c 0,20,21
EndSplineSet
EndChar

StartChar: threequarters
Encoding: 190 190 200
Width: 973
Flags: W
LayerCount: 2
Fore
SplineSet
50 832 m 0,0,1
 50 900 50 900 100 952 c 1,2,3
 149 1001 149 1001 219 1001 c 0,4,5
 286 1001 286 1001 338 952 c 1,6,7
 388 900 388 900 388 832 c 256,8,9
 388 764 388 764 338 714 c 0,10,11
 328 705 328 705 323.5 700.5 c 128,-1,12
 319 696 319 696 308 690 c 1,13,14
 323 679 323 679 338 664 c 0,15,16
 388 614 388 614 388 546 c 256,17,18
 388 478 388 478 338 428 c 256,19,20
 288 378 288 378 219 378 c 256,21,22
 150 378 150 378 100 428 c 256,23,24
 50 478 50 478 50 546 c 0,25,26
 50 571 50 571 74 571 c 0,27,28
 99 571 99 571 99 546 c 0,29,30
 99 496 99 496 134 461 c 1,31,-1
 134 462 l 1,32,33
 171 427 171 427 219 427 c 0,34,35
 268 427 268 427 304 461 c 1,36,37
 339 498 339 498 339 546 c 0,38,39
 339 596 339 596 304 629 c 1,40,41
 269 664 269 664 219 664 c 0,42,43
 194 664 194 664 194 690 c 0,44,45
 194 714 194 714 219 714 c 0,46,47
 268 714 268 714 304 748 c 1,48,49
 339 783 339 783 339 832 c 0,50,51
 339 883 339 883 304 916 c 1,52,53
 268 952 268 952 219 952 c 256,54,55
 170 952 170 952 134 916 c 1,56,57
 99 884 99 884 99 832 c 0,58,59
 99 808 99 808 74 808 c 0,60,61
 50 808 50 808 50 832 c 0,0,1
790 313 m 1,62,-1
 898 313 l 2,63,64
 923 313 923 313 923 288 c 0,65,66
 923 264 923 264 898 264 c 2,67,-1
 790 264 l 1,68,-1
 790 12 l 2,69,70
 790 -13 790 -13 766 -13 c 256,71,72
 742 -13 742 -13 742 12 c 2,73,-1
 742 264 l 1,74,-1
 612 264 l 1,75,76
 594 266 594 266 590 277 c 1,77,-1
 588 277 l 1,78,-1
 610 587 l 1,79,80
 613 610 613 610 636 610 c 1,81,82
 662 607 662 607 659 583 c 1,83,84
 654 512 654 512 649 448 c 128,-1,85
 644 384 644 384 639 313 c 1,86,-1
 742 313 l 1,87,-1
 742 585 l 2,88,89
 742 610 742 610 766 610 c 256,90,91
 790 610 790 610 790 585 c 2,92,-1
 790 313 l 1,62,-1
731 968 m 2,93,-1
 269 14 l 2,94,95
 260 -6 260 -6 239 4 c 0,96,97
 219 13 219 13 229 33 c 2,98,-1
 690 988 l 2,99,100
 700 1008 700 1008 720 998 c 256,101,102
 740 988 740 988 731 968 c 2,93,-1
EndSplineSet
EndChar
StartChar: questiondown
Encoding: 191 191 204
Width: 964
VWidth: 3000
Flags: W
LayerCount: 2
Back
Fore
SplineSet
877.5 -403.5 m 0,0,1
 825 -549 825 -549 726 -625.5 c 0,2,3
 628.5 -702 628.5 -702 489 -702 c 0,4,5
 330 -702 330 -702 216 -615 c 0,6,7
 90 -520.5 90 -520.5 82.5 -355.5 c 128,-1,8
 75 -190.5 75 -190.5 136.5 -103.5 c 128,-1,9
 198 -16.5 198 -16.5 276 49.5 c 0,10,11
 352.5 114 352.5 114 414.75 203.25 c 128,-1,12
 477 292.5 477 292.5 463.5 502.5 c 0,13,14
 462 537 462 537 495 537 c 1,15,16
 529.5 540 529.5 540 531 505.5 c 0,17,18
 546 271.5 546 271.5 475.5 171 c 128,-1,19
 405 70.5 405 70.5 319.5 -1.5 c 0,20,21
 252 -60 252 -60 197.25 -135 c 128,-1,22
 142.5 -210 142.5 -210 151.5 -378 c 1,23,24
 166.5 -493.5 166.5 -493.5 256.5 -561 c 1,25,26
 351 -634.5 351 -634.5 489 -634.5 c 0,27,28
 604.5 -634.5 604.5 -634.5 685.5 -573 c 1,29,30
 766.5 -508.5 766.5 -508.5 816 -379.5 c 0,31,32
 828 -346.5 828 -346.5 859.5 -361.5 c 1,33,34
 889.5 -370.5 889.5 -370.5 877.5 -403.5 c 0,0,1
562.5 738 m 256,35,36
 562.5 700.5 562.5 700.5 540.75 674.25 c 128,-1,37
 519 648 519 648 487.5 648 c 256,38,39
 456 648 456 648 433.5 674.25 c 128,-1,40
 411 700.5 411 700.5 411 738 c 256,41,42
 411 775.5 411 775.5 433.5 801 c 128,-1,43
 456 826.5 456 826.5 487.5 826.5 c 256,44,45
 519 826.5 519 826.5 540.75 801 c 128,-1,46
 562.5 775.5 562.5 775.5 562.5 738 c 256,35,36
EndSplineSet
EndChar
StartChar: AE
Encoding: 198 198 110
Width: 912
Flags: W
LayerCount: 2
Back
Fore
SplineSet
21 -15 m 0,0,1
 1 -6 1 -6 11 14 c 2,2,-1
 479 988 l 2,3,4
 486 1003 486 1003 500 1001 c 1,5,-1
 502 1001 l 1,6,-1
 857 1001 l 2,7,8
 879 1001 879 1001 879 979 c 0,9,10
 879 956 879 956 857 956 c 2,11,-1
 525 956 l 1,12,-1
 525 495 l 1,13,-1
 857 495 l 2,14,15
 879 495 879 495 879 472 c 0,16,17
 879 450 879 450 857 450 c 2,18,-1
 525 450 l 1,19,-1
 525 22 l 1,20,-1
 857 22 l 2,21,22
 879 22 879 22 879 0 c 256,23,24
 879 -22 879 -22 857 -22 c 2,25,-1
 502 -22 l 2,26,27
 480 -22 480 -22 480 0 c 2,28,-1
 480 450 l 1,29,-1
 269 450 l 1,30,-1
 51 -5 l 2,31,32
 42 -25 42 -25 21 -15 c 0,0,1
480 495 m 1,33,-1
 480 885 l 1,34,-1
 291 495 l 1,35,-1
 480 495 l 1,33,-1
EndSplineSet
EndChar
StartChar: Eth
Encoding: 208 208 166
Width: 931
VWidth: 3000
Flags: W
LayerCount: 2
Back
Fore
SplineSet
390 1501.5 m 2,0,1
 618 1501.5 618 1501.5 738 1296 c 0,2,3
 801 1189.5 801 1189.5 828.75 1044.75 c 128,-1,4
 856.5 900 856.5 900 856.5 735 c 0,5,6
 856.5 567 856.5 567 828.75 421.5 c 128,-1,7
 801 276 801 276 738 172.5 c 1,8,9
 618 -33 618 -33 390 -33 c 2,10,-1
 108 -33 l 2,11,12
 75 -33 75 -33 75 0 c 2,13,-1
 75 682.5 l 1,14,-1
 49.5 682.5 l 2,15,16
 13.5 682.5 13.5 682.5 15 718.5 c 0,17,18
 15 751.5 15 751.5 49.5 751.5 c 2,19,-1
 75 751.5 l 1,20,-1
 75 1468.5 l 2,21,22
 75 1501.5 75 1501.5 108 1501.5 c 2,23,-1
 390 1501.5 l 2,0,1
619.5 681 m 2,24,-1
 142.5 682.5 l 1,25,-1
 142.5 33 l 1,26,-1
 390 33 l 2,27,28
 579 33 579 33 681 207 c 0,29,30
 738 303 738 303 763.5 438.75 c 128,-1,31
 789 574.5 789 574.5 789 735 c 0,32,33
 789 891 789 891 763.5 1028.25 c 128,-1,34
 738 1165.5 738 1165.5 681 1263 c 0,35,36
 579 1434 579 1434 390 1434 c 2,37,-1
 142.5 1434 l 1,38,-1
 142.5 751.5 l 1,39,-1
 619.5 751.5 l 1,40,41
 652.5 750 652.5 750 652.5 714 c 0,42,43
 652.5 679.5 652.5 679.5 619.5 681 c 2,24,-1
EndSplineSet
EndChar
StartChar: multiply
Encoding: 215 215 158
Width: 417
Flags: W
LayerCount: 2
Back
Fore
SplineSet
359 476 m 1,0,-1
 240 356 l 1,1,-1
 357 239 l 2,2,3
 374 222 374 222 356 206 c 1,4,5
 341 190 341 190 325 206 c 2,6,-1
 207 324 l 1,7,-1
 90 208 l 2,8,9
 73 191 73 191 57 209 c 1,10,11
 41 224 41 224 57 240 c 2,12,-1
 174 357 l 1,13,-1
 56 475 l 2,14,15
 41 491 41 491 58 508 c 0,16,17
 74 525 74 525 89 508 c 1,18,-1
 207 390 l 1,19,-1
 326 509 l 2,20,21
 342 524 342 524 359 507 c 0,22,23
 376 491 376 491 359 476 c 1,0,-1
EndSplineSet
EndChar
StartChar: Thorn
Encoding: 222 222 165
Width: 865
VWidth: 3000
Flags: W
LayerCount: 2
Back
Fore
SplineSet
139.5 345 m 1,0,-1
 139.5 0 l 2,1,2
 139.5 -33 139.5 -33 105 -33 c 0,3,4
 72 -33 72 -33 72 0 c 2,5,-1
 70.5 1473 l 2,6,7
 70.5 1506 70.5 1506 105 1506 c 0,8,9
 138 1506 138 1506 138 1473 c 2,10,-1
 138 1146 l 1,11,-1
 358.5 1146 l 2,12,13
 562.5 1146 562.5 1146 676.5 1042.5 c 1,14,15
 790.5 934.5 790.5 934.5 790.5 745.5 c 0,16,17
 790.5 553.5 790.5 553.5 676.5 448.5 c 0,18,19
 562.5 345 562.5 345 358.5 345 c 2,20,-1
 139.5 345 l 1,0,-1
139.5 1080 m 1,21,-1
 139.5 412.5 l 1,22,-1
 358.5 412.5 l 2,23,24
 537 412.5 537 412.5 630 498 c 256,25,26
 723 583.5 723 583.5 723 745.5 c 256,27,28
 723 907.5 723 907.5 630 993 c 256,29,30
 537 1078.5 537 1078.5 358.5 1078.5 c 0,31,32
 355.5 1078.5 355.5 1078.5 355.5 1080 c 1,33,-1
 139.5 1080 l 1,21,-1
EndSplineSet
EndChar
StartChar: germandbls
Encoding: 223 223 178
Width: 762
VWidth: 3000
Flags: W
LayerCount: 2
Back
Fore
SplineSet
142.5 1074 m 1,0,-1
 142.5 0 l 2,1,2
 142.5 -33 142.5 -33 108 -33 c 0,3,4
 75 -33 75 -33 75 0 c 2,5,-1
 75 1074 l 1,6,7
 78 1291.5 78 1291.5 159 1392.75 c 128,-1,8
 240 1494 240 1494 390 1494 c 0,9,10
 541.5 1494 541.5 1494 615 1389.75 c 128,-1,11
 688.5 1285.5 688.5 1285.5 688.5 1134 c 0,12,13
 688.5 1009.5 688.5 1009.5 636.75 917.25 c 128,-1,14
 585 825 585 825 528 799.5 c 1,15,16
 588 774 588 774 622.5 733.5 c 1,17,18
 721.5 633 721.5 633 721.5 393 c 0,19,20
 721.5 172.5 721.5 172.5 652.5 71.25 c 128,-1,21
 583.5 -30 583.5 -30 465 -33 c 1,22,23
 388.5 -33 388.5 -33 328.5 15.75 c 128,-1,24
 268.5 64.5 268.5 64.5 240 160.5 c 1,25,26
 228 193.5 228 193.5 259.5 204 c 128,-1,27
 291 214.5 291 214.5 303 184.5 c 1,28,29
 321 111 321 111 363.75 72.75 c 128,-1,30
 406.5 34.5 406.5 34.5 465 34.5 c 0,31,32
 532.5 34.5 532.5 34.5 593.25 116.25 c 128,-1,33
 654 198 654 198 654 393 c 0,34,35
 654 609 654 609 570 691.5 c 1,36,37
 492 771 492 771 372 771 c 0,38,39
 334.5 771 334.5 771 331.5 803.25 c 128,-1,40
 328.5 835.5 328.5 835.5 372 837 c 0,41,42
 510 838.5 510 838.5 565.5 935.25 c 128,-1,43
 621 1032 621 1032 621 1134 c 0,44,45
 621 1263 621 1263 565.5 1344.75 c 128,-1,46
 510 1426.5 510 1426.5 390 1426.5 c 256,47,48
 270 1426.5 270 1426.5 207 1345.5 c 128,-1,49
 144 1264.5 144 1264.5 142.5 1074 c 1,0,-1
EndSplineSet
EndChar

StartChar: aring
Encoding: 229 229 131
Width: 521
Flags: W
LayerCount: 2
Fore
SplineSet
321 716 m 0,0,1
 321 740 321 740 304 756.5 c 128,-1,2
 287 773 287 773 263 773 c 0,3,4
 240 773 240 773 223 756.5 c 128,-1,5
 206 740 206 740 206 716 c 0,6,7
 206 693 206 693 223 676.5 c 128,-1,8
 240 660 240 660 263 660 c 0,9,10
 287 660 287 660 304 676.5 c 128,-1,11
 321 693 321 693 321 716 c 0,0,1
167 716 m 0,12,13
 167 736 167 736 174.5 754 c 128,-1,14
 182 772 182 772 195 785.5 c 128,-1,15
 208 799 208 799 225.5 806.5 c 128,-1,16
 243 814 243 814 263 814 c 256,17,18
 283 814 283 814 300.5 806.5 c 128,-1,19
 318 799 318 799 331 785.5 c 128,-1,20
 344 772 344 772 351.5 754 c 128,-1,21
 359 736 359 736 359 716 c 0,22,23
 359 675 359 675 331 647 c 128,-1,24
 303 619 303 619 263 619 c 256,25,26
 223 619 223 619 195 647 c 128,-1,27
 167 675 167 675 167 716 c 0,12,13
471 472 m 2,28,-1
 471 236 l 1,29,-1
 471 0 l 2,30,31
 471 -22 471 -22 448 -22 c 0,32,33
 426 -22 426 -22 426 0 c 2,34,-1
 426 60 l 1,35,36
 424 56 424 56 417 47 c 0,37,38
 362 -22 362 -22 260 -22 c 0,39,40
 160 -22 160 -22 104 47 c 0,41,42
 50 114 50 114 50 236 c 256,43,44
 50 358 50 358 104 425 c 0,45,46
 160 495 160 495 260 495 c 0,47,48
 361 495 361 495 417 425 c 0,49,50
 424 417 424 417 426 413 c 1,51,-1
 426 472 l 2,52,53
 426 495 426 495 448 495 c 0,54,55
 471 495 471 495 471 472 c 2,28,-1
382 398 m 1,56,57
 340 450 340 450 260 450 c 256,58,59
 180 450 180 450 139 398 c 0,60,61
 95 341 95 341 95 236 c 0,62,63
 95 130 95 130 139 75 c 1,64,65
 180 22 180 22 260 22 c 256,66,67
 340 22 340 22 382 75 c 0,68,69
 426 130 426 130 426 236 c 0,70,71
 426 341 426 341 382 398 c 1,56,57
EndSplineSet
EndChar
StartChar: ae
Encoding: 230 230 61
Width: 1332
VWidth: 3000
Flags: W
LayerCount: 2
Back
Fore
SplineSet
106.5 549 m 1,0,1
 145.5 645 145.5 645 216 693 c 1,2,3
 289.5 741 289.5 741 391.5 741 c 0,4,5
 541.5 741 541.5 741 625.5 637.5 c 0,6,7
 655.5 600 655.5 600 672 556.5 c 1,8,9
 691.5 601.5 691.5 601.5 720 637.5 c 0,10,11
 804 742.5 804 742.5 954 742.5 c 0,12,13
 1105.5 742.5 1105.5 742.5 1189.5 637.5 c 0,14,15
 1270.5 534 1270.5 534 1270.5 354 c 0,16,17
 1270.5 321 1270.5 321 1236 321 c 2,18,-1
 706.5 321 l 1,19,20
 714 186 714 186 772.5 112.5 c 0,21,22
 834 33 834 33 954 33 c 0,23,24
 1036.5 33 1036.5 33 1092 70.5 c 256,25,26
 1147.5 108 1147.5 108 1176 183 c 0,27,28
 1188 214.5 1188 214.5 1219.5 201 c 1,29,30
 1249.5 190.5 1249.5 190.5 1239 159 c 1,31,32
 1200 63 1200 63 1129.5 15 c 1,33,34
 1056 -33 1056 -33 954 -33 c 0,35,36
 804 -33 804 -33 720 70.5 c 0,37,38
 690 106.5 690 106.5 672 150 c 1,39,40
 652.5 105 652.5 105 625.5 70.5 c 0,41,42
 541.5 -34.5 541.5 -34.5 373.5 -34.5 c 1,43,44
 103.5 -24 103.5 -24 56.25 180 c 128,-1,45
 9 384 9 384 279 388.5 c 1,46,-1
 639 387 l 1,47,48
 631.5 522 631.5 522 573 595.5 c 0,49,50
 511.5 675 511.5 675 391.5 675 c 0,51,52
 309 675 309 675 253.5 637.5 c 256,53,54
 198 600 198 600 169.5 525 c 0,55,56
 157.5 493.5 157.5 493.5 126 507 c 1,57,58
 96 517.5 96 517.5 106.5 549 c 1,0,1
573 111 m 0,59,60
 631.5 186 631.5 186 636 324 c 1,61,-1
 279 327 l 1,62,63
 96 331.5 96 331.5 118.5 189.75 c 128,-1,64
 141 48 141 48 373.5 33 c 1,65,66
 511.5 33 511.5 33 573 111 c 0,59,60
772.5 597 m 0,67,68
 714 522 714 522 706.5 387 c 1,69,-1
 1203 387 l 1,70,71
 1194 522 1194 522 1137 597 c 1,72,73
 1074 675 1074 675 954 675 c 256,74,75
 834 675 834 675 772.5 597 c 0,67,68
EndSplineSet
EndChar
StartChar: igrave
Encoding: 236 236 83
Width: 217
VWidth: 3000
Flags: W
LayerCount: 2
Back
Fore
SplineSet
142.5 708 m 2,0,-1
 142.5 0 l 2,1,2
 142.5 -33 142.5 -33 108 -33 c 0,3,4
 75 -33 75 -33 75 0 c 2,5,-1
 75 708 l 2,6,7
 75 742.5 75 742.5 108 742.5 c 0,8,9
 142.5 742.5 142.5 742.5 142.5 708 c 2,0,-1
-33 1165.5 m 1,10,11
 -61.5 1182 -61.5 1182 -45 1212 c 1,12,13
 -27 1240.5 -27 1240.5 3 1222.5 c 2,14,-1
 250.5 1074 l 2,15,16
 279 1056 279 1056 262.5 1029 c 0,17,18
 244.5 999 244.5 999 216 1015.5 c 2,19,-1
 -33 1165.5 l 1,20,-1
 -33 1165.5 l 1,10,11
EndSplineSet
EndChar
StartChar: iacute
Encoding: 237 237 82
Width: 217
VWidth: 3000
Flags: W
LayerCount: 2
Back
Fore
SplineSet
142.5 708 m 2,0,-1
 142.5 0 l 2,1,2
 142.5 -33 142.5 -33 108 -33 c 0,3,4
 75 -33 75 -33 75 0 c 2,5,-1
 75 708 l 2,6,7
 75 742.5 75 742.5 108 742.5 c 0,8,9
 142.5 742.5 142.5 742.5 142.5 708 c 2,0,-1
250.5 1165.5 m 2,10,-1
 1.5 1015.5 l 2,11,12
 -27 999 -27 999 -45 1029 c 0,13,14
 -61.5 1056 -61.5 1056 -33 1074 c 2,15,-1
 214.5 1222.5 l 2,16,17
 244.5 1240.5 244.5 1240.5 262.5 1212 c 1,18,19
 279 1182 279 1182 250.5 1165.5 c 2,10,-1
EndSplineSet
EndChar
StartChar: icircumflex
Encoding: 238 238 81
Width: 217
VWidth: 3000
Flags: W
LayerCount: 2
Back
Fore
SplineSet
142.5 708 m 2,0,-1
 142.5 0 l 2,1,2
 142.5 -33 142.5 -33 108 -33 c 0,3,4
 75 -33 75 -33 75 0 c 2,5,-1
 75 708 l 2,6,7
 75 742.5 75 742.5 108 742.5 c 0,8,9
 142.5 742.5 142.5 742.5 142.5 708 c 2,0,-1
-61.5 1057.5 m 2,10,-1
 109.5 1189.5 l 1,11,-1
 277.5 1059 l 2,12,13
 304.5 1038 304.5 1038 285 1011 c 1,14,15
 262.5 988.5 262.5 988.5 240 1006.5 c 2,16,-1
 109.5 1107 l 1,17,-1
 -19.5 1005 l 1,18,19
 -45 987 -45 987 -67.5 1009.5 c 1,20,21
 -87 1036.5 -87 1036.5 -61.5 1057.5 c 2,10,-1
EndSplineSet
EndChar
StartChar: idieresis
Encoding: 239 239 80
Width: 217
VWidth: 3000
Flags: W
LayerCount: 2
Back
Fore
SplineSet
142.5 708 m 2,0,-1
 142.5 0 l 2,1,2
 142.5 -33 142.5 -33 108 -33 c 0,3,4
 75 -33 75 -33 75 0 c 2,5,-1
 75 708 l 2,6,7
 75 742.5 75 742.5 108 742.5 c 0,8,9
 142.5 742.5 142.5 742.5 142.5 708 c 2,0,-1
150 1119 m 256,10,11
 150 1156.5 150 1156.5 171.75 1182.75 c 128,-1,12
 193.5 1209 193.5 1209 225 1209 c 256,13,14
 256.5 1209 256.5 1209 279 1182.75 c 128,-1,15
 301.5 1156.5 301.5 1156.5 301.5 1119 c 256,16,17
 301.5 1081.5 301.5 1081.5 279 1056 c 128,-1,18
 256.5 1030.5 256.5 1030.5 225 1030.5 c 256,19,20
 193.5 1030.5 193.5 1030.5 171.75 1056 c 128,-1,21
 150 1081.5 150 1081.5 150 1119 c 256,10,11
-82.5 1119 m 256,22,23
 -82.5 1156.5 -82.5 1156.5 -60.75 1182.75 c 128,-1,24
 -39 1209 -39 1209 -7.5 1209 c 256,25,26
 24 1209 24 1209 46.5 1182.75 c 128,-1,27
 69 1156.5 69 1156.5 69 1119 c 256,28,29
 69 1081.5 69 1081.5 46.5 1056 c 128,-1,30
 24 1030.5 24 1030.5 -7.5 1030.5 c 256,31,32
 -39 1030.5 -39 1030.5 -60.75 1056 c 128,-1,33
 -82.5 1081.5 -82.5 1081.5 -82.5 1119 c 256,22,23
EndSplineSet
EndChar
StartChar: eth
Encoding: 240 240 167
Width: 783
VWidth: 3000
Flags: W
LayerCount: 2
Back
Fore
SplineSet
259.5 816 m 2,0,1
 235.5 792 235.5 792 211.5 816 c 1,2,3
 189 841.5 189 841.5 214.5 865.5 c 2,4,-1
 292.5 940.5 l 1,5,-1
 199.5 1057.5 l 1,6,7
 175.5 1081.5 175.5 1081.5 201 1105.5 c 0,8,9
 226.5 1128 226.5 1128 249 1102.5 c 1,10,-1
 342 987 l 1,11,-1
 423 1065 l 2,12,13
 447 1087.5 447 1087.5 469.5 1065 c 0,14,15
 493.5 1039.5 493.5 1039.5 469.5 1015.5 c 2,16,-1
 384 934.5 l 1,17,-1
 625.5 637.5 l 1,18,19
 706.5 534 706.5 534 706.5 354 c 0,20,21
 706.5 172.5 706.5 172.5 625.5 70.5 c 0,22,23
 543 -33 543 -33 390 -33 c 0,24,25
 240 -33 240 -33 156 70.5 c 0,26,27
 75 171 75 171 75 354 c 256,28,29
 75 537 75 537 156 637.5 c 0,30,31
 240 742.5 240 742.5 390 742.5 c 0,32,33
 426 742.5 426 742.5 457.5 736.5 c 1,34,-1
 336 888 l 1,35,-1
 259.5 816 l 2,0,1
390 675 m 0,36,37
 270 675 270 675 208.5 597 c 0,38,39
 142.5 511.5 142.5 511.5 142.5 354 c 0,40,41
 142.5 195 142.5 195 208.5 112.5 c 1,42,43
 270 33 270 33 390 33 c 256,44,45
 510 33 510 33 573 112.5 c 0,46,47
 639 195 639 195 639 354 c 0,48,49
 639 511.5 639 511.5 573 597 c 1,50,-1
 555 616.5 l 1,51,52
 493.5 675 493.5 675 390 675 c 0,36,37
EndSplineSet
EndChar
StartChar: divide
Encoding: 247 247 164
Width: 951
VWidth: 3000
Flags: W
LayerCount: 2
Back
Fore
SplineSet
763.5 501 m 2,0,-1
 193.5 502.5 l 2,1,2
 157.5 502.5 157.5 502.5 159 538.5 c 0,3,4
 159 571.5 159 571.5 193.5 571.5 c 2,5,-1
 763.5 571.5 l 1,6,7
 796.5 570 796.5 570 796.5 534 c 0,8,9
 796.5 499.5 796.5 499.5 763.5 501 c 2,0,-1
400.5 832.5 m 256,10,11
 400.5 870 400.5 870 422.25 896.25 c 128,-1,12
 444 922.5 444 922.5 475.5 922.5 c 256,13,14
 507 922.5 507 922.5 529.5 896.25 c 128,-1,15
 552 870 552 870 552 832.5 c 256,16,17
 552 795 552 795 529.5 769.5 c 128,-1,18
 507 744 507 744 475.5 744 c 256,19,20
 444 744 444 744 422.25 769.5 c 128,-1,21
 400.5 795 400.5 795 400.5 832.5 c 256,10,11
400.5 223.5 m 256,22,23
 400.5 261 400.5 261 422.25 287.25 c 128,-1,24
 444 313.5 444 313.5 475.5 313.5 c 256,25,26
 507 313.5 507 313.5 529.5 287.25 c 128,-1,27
 552 261 552 261 552 223.5 c 256,28,29
 552 186 552 186 529.5 160.5 c 128,-1,30
 507 135 507 135 475.5 135 c 256,31,32
 444 135 444 135 422.25 160.5 c 128,-1,33
 400.5 186 400.5 186 400.5 223.5 c 256,22,23
EndSplineSet
EndChar
StartChar: oslash
Encoding: 248 248 75
Width: 783
VWidth: 3000
Flags: W
LayerCount: 2
Back
Fore
SplineSet
156 637.5 m 0,0,1
 240 742.5 240 742.5 390 742.5 c 0,2,3
 534 742.5 534 742.5 618 646.5 c 1,4,-1
 702 733.5 l 1,5,6
 726 756 726 756 750 733.5 c 1,7,8
 772.5 709.5 772.5 709.5 750 685.5 c 2,9,-1
 655.5 589.5 l 1,10,11
 706.5 495 706.5 495 706.5 354 c 0,12,13
 706.5 172.5 706.5 172.5 625.5 70.5 c 0,14,15
 543 -33 543 -33 390 -33 c 0,16,17
 240 -33 240 -33 156 70.5 c 0,18,19
 154.5 72 154.5 72 153 73.5 c 1,20,-1
 79.5 -1.5 l 2,21,22
 57 -25.5 57 -25.5 31.5 -1.5 c 0,23,24
 7.5 21 7.5 21 31.5 45 c 2,25,-1
 117 132 l 1,26,27
 75 222 75 222 75 354 c 0,28,29
 75 537 75 537 156 637.5 c 0,0,1
208.5 112.5 m 0,30,31
 270 33 270 33 390 33 c 256,32,33
 510 33 510 33 573 112.5 c 0,34,35
 639 195 639 195 639 354 c 0,36,37
 639 463.5 639 463.5 606 538.5 c 1,38,-1
 199.5 123 l 1,39,40
 204 117 204 117 208.5 112.5 c 0,30,31
390 675 m 0,41,42
 270 675 270 675 208.5 597 c 0,43,44
 142.5 511.5 142.5 511.5 142.5 354 c 0,45,46
 142.5 253.5 142.5 253.5 168 184.5 c 1,47,-1
 571.5 598.5 l 1,48,49
 508.5 675 508.5 675 390 675 c 0,41,42
EndSplineSet
EndChar
StartChar: thorn
Encoding: 254 254 168
Width: 781
VWidth: 3000
Flags: W
LayerCount: 2
Back
Fore
SplineSet
142.5 1447.5 m 2,0,-1
 142.5 619.5 l 1,1,2
 145.5 625.5 145.5 625.5 156 637.5 c 0,3,4
 240 742.5 240 742.5 390 742.5 c 0,5,6
 541.5 742.5 541.5 742.5 625.5 637.5 c 0,7,8
 706.5 534 706.5 534 706.5 354 c 0,9,10
 706.5 172.5 706.5 172.5 625.5 70.5 c 0,11,12
 543 -33 543 -33 390 -33 c 0,13,14
 240 -33 240 -33 156 70.5 c 0,15,16
 145.5 84 145.5 84 142.5 90 c 1,17,-1
 142.5 -697.5 l 2,18,19
 142.5 -730.5 142.5 -730.5 108 -730.5 c 0,20,21
 75 -730.5 75 -730.5 75 -697.5 c 2,22,-1
 75 354 l 1,23,-1
 75 1447.5 l 2,24,25
 75 1482 75 1482 108 1482 c 0,26,27
 142.5 1482 142.5 1482 142.5 1447.5 c 2,0,-1
390 675 m 256,28,29
 270 675 270 675 208.5 597 c 0,30,31
 142.5 511.5 142.5 511.5 142.5 354 c 0,32,33
 142.5 195 142.5 195 208.5 112.5 c 1,34,35
 270 33 270 33 390 33 c 256,36,37
 510 33 510 33 573 112.5 c 0,38,39
 639 195 639 195 639 354 c 0,40,41
 639 511.5 639 511.5 573 597 c 1,42,43
 510 675 510 675 390 675 c 256,28,29
EndSplineSet
EndChar
StartChar: Amacron
Encoding: 256 256 256
Width: 1185
VWidth: 3000
Flags: W
LayerCount: 2
Back
Fore
SplineSet
367.5 675 m 1,0,-1
 144 -9 l 2,1,2
 135 -40.5 135 -40.5 102 -30 c 0,3,4
 75 -21 75 -21 81 10.5 c 1,5,-1
 558 1477.5 l 1,6,-1
 558 1477.5 l 1,7,-1
 558 1479 l 1,8,-1
 558 1479 l 1,9,10
 564 1494 564 1494 580.5 1500 c 0,11,12
 610.5 1509 610.5 1509 622.5 1479 c 1,13,-1
 1099.5 10.5 l 2,14,15
 1110 -19.5 1110 -19.5 1078.5 -30 c 256,16,17
 1047 -40.5 1047 -40.5 1035 -9 c 1,18,-1
 813 675 l 1,19,-1
 367.5 675 l 1,0,-1
589.5 1359 m 1,20,-1
 390 742.5 l 1,21,-1
 792 742.5 l 1,22,-1
 589.5 1359 l 1,20,-1
879 1834.5 m 2,23,-1
 309 1836 l 2,24,25
 273 1836 273 1836 274.5 1872 c 0,26,27
 274.5 1905 274.5 1905 309 1905 c 2,28,-1
 879 1905 l 1,29,30
 912 1903.5 912 1903.5 912 1867.5 c 0,31,32
 912 1833 912 1833 879 1834.5 c 2,23,-1
EndSplineSet
EndChar
StartChar: amacron
Encoding: 257 257 324
Width: 781
VWidth: 3000
Flags: W
LayerCount: 2
Back
Fore
SplineSet
706.5 708 m 2,0,-1
 706.5 0 l 2,1,2
 706.5 -33 706.5 -33 672 -33 c 0,3,4
 639 -33 639 -33 639 0 c 2,5,-1
 639 90 l 1,6,7
 636 84 636 84 625.5 70.5 c 0,8,9
 543 -33 543 -33 390 -33 c 0,10,11
 240 -33 240 -33 156 70.5 c 0,12,13
 75 171 75 171 75 354 c 256,14,15
 75 537 75 537 156 637.5 c 0,16,17
 240 742.5 240 742.5 390 742.5 c 0,18,19
 541.5 742.5 541.5 742.5 625.5 637.5 c 0,20,21
 636 625.5 636 625.5 639 619.5 c 1,22,-1
 639 708 l 2,23,24
 639 742.5 639 742.5 672 742.5 c 0,25,26
 706.5 742.5 706.5 742.5 706.5 708 c 2,0,-1
573 597 m 1,27,28
 510 675 510 675 390 675 c 256,29,30
 270 675 270 675 208.5 597 c 0,31,32
 142.5 511.5 142.5 511.5 142.5 354 c 0,33,34
 142.5 195 142.5 195 208.5 112.5 c 1,35,36
 270 33 270 33 390 33 c 256,37,38
 510 33 510 33 573 112.5 c 0,39,40
 639 195 639 195 639 354 c 0,41,42
 639 511.5 639 511.5 573 597 c 1,27,28
678 1084.5 m 2,43,-1
 108 1086 l 2,44,45
 72 1086 72 1086 73.5 1122 c 0,46,47
 73.5 1155 73.5 1155 108 1155 c 2,48,-1
 678 1155 l 1,49,50
 711 1153.5 711 1153.5 711 1117.5 c 0,51,52
 711 1083 711 1083 678 1084.5 c 2,43,-1
EndSplineSet
EndChar
StartChar: Abreve
Encoding: 258 258 264
Width: 790
Flags: W
LayerCount: 2
Back
Fore
SplineSet
245 450 m 1,0,-1
 96 -6 l 2,1,2
 90 -27 90 -27 68 -20 c 0,3,4
 50 -14 50 -14 54 7 c 1,5,-1
 372 985 l 1,6,-1
 372 986 l 1,7,8
 376 996 376 996 387 1000 c 0,9,10
 407 1006 407 1006 415 986 c 1,11,-1
 733 7 l 2,12,13
 740 -13 740 -13 719 -20 c 256,14,15
 698 -27 698 -27 690 -6 c 1,16,-1
 542 450 l 1,17,-1
 245 450 l 1,0,-1
393 906 m 1,18,-1
 260 495 l 1,19,-1
 528 495 l 1,20,-1
 393 906 l 1,18,-1
323 1220 m 0,21,22
 361 1182 361 1182 395 1182 c 256,23,24
 429 1182 429 1182 465 1219 c 0,25,26
 481 1235 481 1235 498 1220 c 1,27,28
 514 1204 514 1204 498 1188 c 0,29,30
 448 1137 448 1137 395 1137 c 1,31,32
 343 1138 343 1138 291 1188 c 0,33,34
 275 1203 275 1203 291 1220 c 1,35,36
 307 1235 307 1235 323 1220 c 0,21,22
EndSplineSet
EndChar
StartChar: abreve
Encoding: 259 259 323
Width: 781
VWidth: 3000
Flags: W
LayerCount: 2
Back
Fore
SplineSet
706.5 708 m 2,0,-1
 706.5 0 l 2,1,2
 706.5 -33 706.5 -33 672 -33 c 0,3,4
 639 -33 639 -33 639 0 c 2,5,-1
 639 90 l 1,6,7
 636 84 636 84 625.5 70.5 c 0,8,9
 543 -33 543 -33 390 -33 c 0,10,11
 240 -33 240 -33 156 70.5 c 0,12,13
 75 171 75 171 75 354 c 256,14,15
 75 537 75 537 156 637.5 c 0,16,17
 240 742.5 240 742.5 390 742.5 c 0,18,19
 541.5 742.5 541.5 742.5 625.5 637.5 c 0,20,21
 636 625.5 636 625.5 639 619.5 c 1,22,-1
 639 708 l 2,23,24
 639 742.5 639 742.5 672 742.5 c 0,25,26
 706.5 742.5 706.5 742.5 706.5 708 c 2,0,-1
573 597 m 1,27,28
 510 675 510 675 390 675 c 256,29,30
 270 675 270 675 208.5 597 c 0,31,32
 142.5 511.5 142.5 511.5 142.5 354 c 0,33,34
 142.5 195 142.5 195 208.5 112.5 c 1,35,36
 270 33 270 33 390 33 c 256,37,38
 510 33 510 33 573 112.5 c 0,39,40
 639 195 639 195 639 354 c 0,41,42
 639 511.5 639 511.5 573 597 c 1,27,28
283.5 1080 m 0,43,44
 340.5 1023 340.5 1023 391.5 1023 c 256,45,46
 442.5 1023 442.5 1023 496.5 1078.5 c 0,47,48
 520.5 1102.5 520.5 1102.5 546 1080 c 1,49,50
 570 1056 570 1056 546 1032 c 0,51,52
 471 955.5 471 955.5 391.5 955.5 c 1,53,54
 313.5 957 313.5 957 235.5 1032 c 0,55,56
 211.5 1054.5 211.5 1054.5 235.5 1080 c 1,57,58
 259.5 1102.5 259.5 1102.5 283.5 1080 c 0,43,44
EndSplineSet
EndChar
StartChar: Aogonek
Encoding: 260 260 263
Width: 1200
VWidth: 3000
Flags: W
LayerCount: 2
Back
Fore
SplineSet
1069.5 -33 m 1,0,1
 1015.5 -67.5 1015.5 -67.5 1011 -123 c 1,2,3
 1011 -144 1011 -144 1017.75 -157.5 c 128,-1,4
 1024.5 -171 1024.5 -171 1042.5 -181.5 c 128,-1,5
 1060.5 -192 1060.5 -192 1093.5 -181.5 c 1,6,7
 1125 -169.5 1125 -169.5 1135.5 -201 c 256,8,9
 1146 -232.5 1146 -232.5 1116 -243 c 0,10,11
 1048.5 -265.5 1048.5 -265.5 1008.75 -239.25 c 128,-1,12
 969 -213 969 -213 955.5 -181.5 c 128,-1,13
 942 -150 942 -150 945 -118.5 c 0,14,15
 949.5 -33 949.5 -33 1026 18 c 1,16,-1
 813 675 l 1,17,-1
 367.5 675 l 1,18,-1
 144 -9 l 2,19,20
 135 -40.5 135 -40.5 102 -30 c 0,21,22
 75 -21 75 -21 81 10.5 c 1,23,-1
 558 1477.5 l 1,24,-1
 558 1479 l 1,25,26
 564 1494 564 1494 580.5 1500 c 0,27,28
 610.5 1509 610.5 1509 622.5 1479 c 1,29,-1
 1099.5 10.5 l 2,30,31
 1110 -19.5 1110 -19.5 1078.5 -30 c 0,32,33
 1074 -31.5 1074 -31.5 1071 -31.5 c 1,34,-1
 1069.5 -33 l 1,0,1
589.5 1359 m 1,35,-1
 390 742.5 l 1,36,-1
 792 742.5 l 1,37,-1
 589.5 1359 l 1,35,-1
EndSplineSet
EndChar
StartChar: aogonek
Encoding: 261 261 325
Width: 781
VWidth: 3000
Flags: W
LayerCount: 2
Back
Fore
SplineSet
690 -33 m 0,0,1
 636 -67.5 636 -67.5 631.5 -123 c 1,2,3
 631.5 -144 631.5 -144 639 -156 c 1,4,5
 645 -171 645 -171 663 -181.5 c 128,-1,6
 681 -192 681 -192 714 -181.5 c 1,7,8
 745.5 -169.5 745.5 -169.5 756 -201 c 256,9,10
 766.5 -232.5 766.5 -232.5 736.5 -243 c 0,11,12
 669 -265.5 669 -265.5 629.25 -239.25 c 128,-1,13
 589.5 -213 589.5 -213 577.5 -183 c 0,14,15
 562.5 -150 562.5 -150 565.5 -118.5 c 1,16,17
 568.5 -37.5 568.5 -37.5 639 13.5 c 1,18,-1
 639 90 l 1,19,20
 636 84 636 84 625.5 70.5 c 0,21,22
 543 -33 543 -33 390 -33 c 0,23,24
 240 -33 240 -33 156 70.5 c 0,25,26
 75 171 75 171 75 354 c 256,27,28
 75 537 75 537 156 637.5 c 0,29,30
 240 742.5 240 742.5 390 742.5 c 0,31,32
 541.5 742.5 541.5 742.5 625.5 637.5 c 0,33,34
 636 625.5 636 625.5 639 619.5 c 1,35,-1
 639 708 l 2,36,37
 639 742.5 639 742.5 672 742.5 c 0,38,39
 706.5 742.5 706.5 742.5 706.5 708 c 2,40,-1
 706.5 -4.5 l 1,41,42
 708 -21 708 -21 690 -33 c 0,0,1
573 597 m 1,43,44
 510 675 510 675 390 675 c 256,45,46
 270 675 270 675 208.5 597 c 0,47,48
 142.5 511.5 142.5 511.5 142.5 354 c 0,49,50
 142.5 195 142.5 195 208.5 112.5 c 1,51,52
 270 33 270 33 390 33 c 256,53,54
 510 33 510 33 573 112.5 c 0,55,56
 639 195 639 195 639 354 c 0,57,58
 639 511.5 639 511.5 573 597 c 1,43,44
EndSplineSet
EndChar
StartChar: Cacute
Encoding: 262 262 253
Width: 1026
VWidth: 3000
Flags: W
LayerCount: 2
Back
Fore
SplineSet
937.5 274.5 m 1,0,1
 879 121.5 879 121.5 781.5 46.5 c 0,2,3
 679.5 -33 679.5 -33 541.5 -33 c 0,4,5
 313.5 -33 313.5 -33 193.5 172.5 c 1,6,7
 130.5 276 130.5 276 102.75 421.5 c 128,-1,8
 75 567 75 567 75 735 c 0,9,10
 75 900 75 900 102.75 1044.75 c 128,-1,11
 130.5 1189.5 130.5 1189.5 193.5 1296 c 0,12,13
 313.5 1501.5 313.5 1501.5 541.5 1501.5 c 0,14,15
 679.5 1501.5 679.5 1501.5 781.5 1422 c 0,16,17
 880.5 1344 880.5 1344 937.5 1194 c 0,18,19
 951 1161 951 1161 919.5 1150.5 c 0,20,21
 886.5 1138.5 886.5 1138.5 876 1170 c 1,22,23
 823.5 1303.5 823.5 1303.5 741 1369.5 c 0,24,25
 658.5 1434 658.5 1434 541.5 1434 c 0,26,27
 351 1434 351 1434 250.5 1263 c 0,28,29
 193.5 1165.5 193.5 1165.5 168 1028.25 c 128,-1,30
 142.5 891 142.5 891 142.5 735 c 0,31,32
 142.5 574.5 142.5 574.5 168 438.75 c 128,-1,33
 193.5 303 193.5 303 250.5 207 c 0,34,35
 351 33 351 33 541.5 33 c 0,36,37
 657 33 657 33 741 99 c 0,38,39
 825 163.5 825 163.5 876 298.5 c 0,40,41
 886.5 328.5 886.5 328.5 919.5 318 c 1,42,43
 951 304.5 951 304.5 937.5 274.5 c 1,0,1
654 1915.5 m 2,44,-1
 405 1765.5 l 2,45,46
 376.5 1749 376.5 1749 358.5 1779 c 0,47,48
 342 1806 342 1806 370.5 1824 c 2,49,-1
 618 1972.5 l 2,50,51
 648 1990.5 648 1990.5 666 1962 c 1,52,53
 682.5 1932 682.5 1932 654 1915.5 c 2,44,-1
EndSplineSet
EndChar
StartChar: cacute
Encoding: 263 263 327
Width: 762
VWidth: 3000
Flags: W
LayerCount: 2
Back
Fore
SplineSet
675 159 m 1,0,1
 636 63 636 63 565.5 15 c 1,2,3
 492 -33 492 -33 390 -33 c 0,4,5
 240 -33 240 -33 156 70.5 c 0,6,7
 75 171 75 171 75 354 c 256,8,9
 75 537 75 537 156 637.5 c 0,10,11
 240 742.5 240 742.5 390 742.5 c 0,12,13
 490.5 742.5 490.5 742.5 565.5 691.5 c 0,14,15
 636 645 636 645 675 549 c 0,16,17
 687 516 687 516 655.5 505.5 c 256,18,19
 624 495 624 495 612 525 c 0,20,21
 583.5 598.5 583.5 598.5 528 637.5 c 0,22,23
 472.5 675 472.5 675 390 675 c 0,24,25
 270 675 270 675 208.5 597 c 0,26,27
 142.5 511.5 142.5 511.5 142.5 354 c 0,28,29
 142.5 195 142.5 195 208.5 112.5 c 1,30,31
 270 33 270 33 390 33 c 0,32,33
 472.5 33 472.5 33 528 70.5 c 256,34,35
 583.5 108 583.5 108 612 183 c 0,36,37
 624 214.5 624 214.5 655.5 201 c 1,38,39
 685.5 190.5 685.5 190.5 675 159 c 1,0,1
522 1165.5 m 2,40,-1
 273 1015.5 l 2,41,42
 244.5 999 244.5 999 226.5 1029 c 0,43,44
 210 1056 210 1056 238.5 1074 c 2,45,-1
 486 1222.5 l 2,46,47
 516 1240.5 516 1240.5 534 1212 c 1,48,49
 550.5 1182 550.5 1182 522 1165.5 c 2,40,-1
EndSplineSet
EndChar
StartChar: Ccircumflex
Encoding: 264 264 255
Width: 1026
VWidth: 3000
Flags: W
LayerCount: 2
Back
Fore
SplineSet
937.5 274.5 m 1,0,1
 879 121.5 879 121.5 781.5 46.5 c 0,2,3
 679.5 -33 679.5 -33 541.5 -33 c 0,4,5
 313.5 -33 313.5 -33 193.5 172.5 c 1,6,7
 130.5 276 130.5 276 102.75 421.5 c 128,-1,8
 75 567 75 567 75 735 c 0,9,10
 75 900 75 900 102.75 1044.75 c 128,-1,11
 130.5 1189.5 130.5 1189.5 193.5 1296 c 0,12,13
 313.5 1501.5 313.5 1501.5 541.5 1501.5 c 0,14,15
 679.5 1501.5 679.5 1501.5 781.5 1422 c 0,16,17
 880.5 1344 880.5 1344 937.5 1194 c 0,18,19
 951 1161 951 1161 919.5 1150.5 c 0,20,21
 886.5 1138.5 886.5 1138.5 876 1170 c 1,22,23
 823.5 1303.5 823.5 1303.5 741 1369.5 c 0,24,25
 658.5 1434 658.5 1434 541.5 1434 c 0,26,27
 351 1434 351 1434 250.5 1263 c 0,28,29
 193.5 1165.5 193.5 1165.5 168 1028.25 c 128,-1,30
 142.5 891 142.5 891 142.5 735 c 0,31,32
 142.5 574.5 142.5 574.5 168 438.75 c 128,-1,33
 193.5 303 193.5 303 250.5 207 c 0,34,35
 351 33 351 33 541.5 33 c 0,36,37
 657 33 657 33 741 99 c 0,38,39
 825 163.5 825 163.5 876 298.5 c 0,40,41
 886.5 328.5 886.5 328.5 919.5 318 c 1,42,43
 951 304.5 951 304.5 937.5 274.5 c 1,0,1
342 1807.5 m 2,44,-1
 513 1939.5 l 1,45,-1
 681 1809 l 2,46,47
 708 1788 708 1788 688.5 1761 c 1,48,49
 666 1738.5 666 1738.5 643.5 1756.5 c 2,50,-1
 513 1857 l 1,51,-1
 384 1755 l 1,52,53
 358.5 1737 358.5 1737 336 1759.5 c 1,54,55
 316.5 1786.5 316.5 1786.5 342 1807.5 c 2,44,-1
EndSplineSet
EndChar
StartChar: ccircumflex
Encoding: 265 265 329
Width: 762
VWidth: 3000
Flags: W
LayerCount: 2
Back
Fore
SplineSet
675 159 m 1,0,1
 636 63 636 63 565.5 15 c 1,2,3
 492 -33 492 -33 390 -33 c 0,4,5
 240 -33 240 -33 156 70.5 c 0,6,7
 75 171 75 171 75 354 c 256,8,9
 75 537 75 537 156 637.5 c 0,10,11
 240 742.5 240 742.5 390 742.5 c 0,12,13
 490.5 742.5 490.5 742.5 565.5 691.5 c 0,14,15
 636 645 636 645 675 549 c 0,16,17
 687 516 687 516 655.5 505.5 c 256,18,19
 624 495 624 495 612 525 c 0,20,21
 583.5 598.5 583.5 598.5 528 637.5 c 0,22,23
 472.5 675 472.5 675 390 675 c 0,24,25
 270 675 270 675 208.5 597 c 0,26,27
 142.5 511.5 142.5 511.5 142.5 354 c 0,28,29
 142.5 195 142.5 195 208.5 112.5 c 1,30,31
 270 33 270 33 390 33 c 0,32,33
 472.5 33 472.5 33 528 70.5 c 256,34,35
 583.5 108 583.5 108 612 183 c 0,36,37
 624 214.5 624 214.5 655.5 201 c 1,38,39
 685.5 190.5 685.5 190.5 675 159 c 1,0,1
210 1057.5 m 2,40,-1
 381 1189.5 l 1,41,-1
 549 1059 l 2,42,43
 576 1038 576 1038 556.5 1011 c 1,44,45
 534 988.5 534 988.5 511.5 1006.5 c 2,46,-1
 381 1107 l 1,47,-1
 252 1005 l 1,48,49
 226.5 987 226.5 987 204 1009.5 c 1,50,51
 184.5 1036.5 184.5 1036.5 210 1057.5 c 2,40,-1
EndSplineSet
EndChar
StartChar: Cdotaccent
Encoding: 266 266 265
Width: 1026
VWidth: 3000
Flags: W
LayerCount: 2
Back
Fore
SplineSet
937.5 274.5 m 1,0,1
 879 121.5 879 121.5 781.5 46.5 c 0,2,3
 679.5 -33 679.5 -33 541.5 -33 c 0,4,5
 313.5 -33 313.5 -33 193.5 172.5 c 1,6,7
 130.5 276 130.5 276 102.75 421.5 c 128,-1,8
 75 567 75 567 75 735 c 0,9,10
 75 900 75 900 102.75 1044.75 c 128,-1,11
 130.5 1189.5 130.5 1189.5 193.5 1296 c 0,12,13
 313.5 1501.5 313.5 1501.5 541.5 1501.5 c 0,14,15
 679.5 1501.5 679.5 1501.5 781.5 1422 c 0,16,17
 880.5 1344 880.5 1344 937.5 1194 c 0,18,19
 951 1161 951 1161 919.5 1150.5 c 0,20,21
 886.5 1138.5 886.5 1138.5 876 1170 c 1,22,23
 823.5 1303.5 823.5 1303.5 741 1369.5 c 0,24,25
 658.5 1434 658.5 1434 541.5 1434 c 0,26,27
 351 1434 351 1434 250.5 1263 c 0,28,29
 193.5 1165.5 193.5 1165.5 168 1028.25 c 128,-1,30
 142.5 891 142.5 891 142.5 735 c 0,31,32
 142.5 574.5 142.5 574.5 168 438.75 c 128,-1,33
 193.5 303 193.5 303 250.5 207 c 0,34,35
 351 33 351 33 541.5 33 c 0,36,37
 657 33 657 33 741 99 c 0,38,39
 825 163.5 825 163.5 876 298.5 c 0,40,41
 886.5 328.5 886.5 328.5 919.5 318 c 1,42,43
 951 304.5 951 304.5 937.5 274.5 c 1,0,1
436.5 1869 m 256,44,45
 436.5 1906.5 436.5 1906.5 458.25 1932.75 c 128,-1,46
 480 1959 480 1959 511.5 1959 c 256,47,48
 543 1959 543 1959 565.5 1932.75 c 128,-1,49
 588 1906.5 588 1906.5 588 1869 c 256,50,51
 588 1831.5 588 1831.5 565.5 1806 c 128,-1,52
 543 1780.5 543 1780.5 511.5 1780.5 c 256,53,54
 480 1780.5 480 1780.5 458.25 1806 c 128,-1,55
 436.5 1831.5 436.5 1831.5 436.5 1869 c 256,44,45
EndSplineSet
EndChar
StartChar: cdotaccent
Encoding: 267 267 330
Width: 508
Flags: W
LayerCount: 2
Back
Fore
SplineSet
450 106 m 1,0,1
 424 42 424 42 377 10 c 1,2,3
 328 -22 328 -22 260 -22 c 0,4,5
 160 -22 160 -22 104 47 c 0,6,7
 50 114 50 114 50 236 c 256,8,9
 50 358 50 358 104 425 c 0,10,11
 160 495 160 495 260 495 c 0,12,13
 327 495 327 495 377 461 c 0,14,15
 424 430 424 430 450 366 c 0,16,17
 458 344 458 344 437 337 c 256,18,19
 416 330 416 330 408 350 c 0,20,21
 389 399 389 399 352 425 c 0,22,23
 315 450 315 450 260 450 c 0,24,25
 180 450 180 450 139 398 c 0,26,27
 95 341 95 341 95 236 c 0,28,29
 95 130 95 130 139 75 c 1,30,31
 180 22 180 22 260 22 c 0,32,33
 315 22 315 22 352 47 c 256,34,35
 389 72 389 72 408 122 c 0,36,37
 416 143 416 143 437 134 c 1,38,39
 457 127 457 127 450 106 c 1,0,1
203 746 m 256,40,41
 203 771 203 771 217.5 788.5 c 128,-1,42
 232 806 232 806 253 806 c 256,43,44
 274 806 274 806 289 788.5 c 128,-1,45
 304 771 304 771 304 746 c 256,46,47
 304 721 304 721 289 704 c 128,-1,48
 274 687 274 687 253 687 c 256,49,50
 232 687 232 687 217.5 704 c 128,-1,51
 203 721 203 721 203 746 c 256,40,41
EndSplineSet
EndChar

StartChar: Ccaron
Encoding: 268 268 254
Width: 684
Flags: W
LayerCount: 2
Fore
SplineSet
625 183 m 1,0,1
 586 81 586 81 521 31 c 0,2,3
 453 -22 453 -22 361 -22 c 0,4,5
 209 -22 209 -22 129 115 c 1,6,7
 87 184 87 184 68.5 281 c 128,-1,8
 50 378 50 378 50 490 c 0,9,10
 50 600 50 600 68.5 696.5 c 128,-1,11
 87 793 87 793 129 864 c 0,12,13
 209 1001 209 1001 361 1001 c 0,14,15
 453 1001 453 1001 521 948 c 0,16,17
 587 896 587 896 625 796 c 0,18,19
 634 774 634 774 613 767 c 0,20,21
 591 759 591 759 584 780 c 1,22,23
 549 869 549 869 494 913 c 0,24,25
 439 956 439 956 361 956 c 0,26,27
 234 956 234 956 167 842 c 0,28,29
 129 777 129 777 112 685.5 c 128,-1,30
 95 594 95 594 95 490 c 0,31,32
 95 383 95 383 112 292.5 c 128,-1,33
 129 202 129 202 167 138 c 0,34,35
 234 22 234 22 361 22 c 0,36,37
 438 22 438 22 494 66 c 0,38,39
 550 109 550 109 584 199 c 0,40,41
 591 219 591 219 613 212 c 1,42,43
 634 203 634 203 625 183 c 1,0,1
455 1246 m 2,44,-1
 341 1158 l 1,45,-1
 229 1245 l 2,46,47
 211 1259 211 1259 224 1277 c 1,48,49
 239 1292 239 1292 254 1280 c 2,50,-1
 341 1213 l 1,51,-1
 427 1281 l 1,52,53
 444 1293 444 1293 459 1278 c 1,54,55
 472 1260 472 1260 455 1246 c 2,44,-1
EndSplineSet
EndChar
StartChar: ccaron
Encoding: 269 269 328
Width: 762
VWidth: 3000
Flags: W
LayerCount: 2
Back
Fore
SplineSet
675 159 m 1,0,1
 636 63 636 63 565.5 15 c 1,2,3
 492 -33 492 -33 390 -33 c 0,4,5
 240 -33 240 -33 156 70.5 c 0,6,7
 75 171 75 171 75 354 c 256,8,9
 75 537 75 537 156 637.5 c 0,10,11
 240 742.5 240 742.5 390 742.5 c 0,12,13
 490.5 742.5 490.5 742.5 565.5 691.5 c 0,14,15
 636 645 636 645 675 549 c 0,16,17
 687 516 687 516 655.5 505.5 c 256,18,19
 624 495 624 495 612 525 c 0,20,21
 583.5 598.5 583.5 598.5 528 637.5 c 0,22,23
 472.5 675 472.5 675 390 675 c 0,24,25
 270 675 270 675 208.5 597 c 0,26,27
 142.5 511.5 142.5 511.5 142.5 354 c 0,28,29
 142.5 195 142.5 195 208.5 112.5 c 1,30,31
 270 33 270 33 390 33 c 0,32,33
 472.5 33 472.5 33 528 70.5 c 256,34,35
 583.5 108 583.5 108 612 183 c 0,36,37
 624 214.5 624 214.5 655.5 201 c 1,38,39
 685.5 190.5 685.5 190.5 675 159 c 1,0,1
550.5 1119 m 2,40,-1
 379.5 987 l 1,41,-1
 211.5 1117.5 l 2,42,43
 184.5 1138.5 184.5 1138.5 204 1165.5 c 1,44,45
 226.5 1188 226.5 1188 249 1170 c 2,46,-1
 379.5 1069.5 l 1,47,-1
 508.5 1171.5 l 1,48,49
 534 1189.5 534 1189.5 556.5 1167 c 1,50,51
 576 1140 576 1140 550.5 1119 c 2,40,-1
EndSplineSet
EndChar
StartChar: Dcaron
Encoding: 270 270 258
Width: 931
VWidth: 3000
Flags: W
LayerCount: 2
Back
Fore
SplineSet
390 1501.5 m 2,0,1
 618 1501.5 618 1501.5 738 1296 c 0,2,3
 801 1189.5 801 1189.5 828.75 1044.75 c 128,-1,4
 856.5 900 856.5 900 856.5 735 c 0,5,6
 856.5 567 856.5 567 828.75 421.5 c 128,-1,7
 801 276 801 276 738 172.5 c 1,8,9
 618 -33 618 -33 390 -33 c 2,10,-1
 108 -33 l 2,11,12
 75 -33 75 -33 75 0 c 2,13,-1
 75 1468.5 l 2,14,15
 75 1501.5 75 1501.5 108 1501.5 c 2,16,-1
 390 1501.5 l 2,0,1
390 33 m 2,17,18
 579 33 579 33 681 207 c 0,19,20
 738 303 738 303 763.5 438.75 c 128,-1,21
 789 574.5 789 574.5 789 735 c 0,22,23
 789 891 789 891 763.5 1028.25 c 128,-1,24
 738 1165.5 738 1165.5 681 1263 c 0,25,26
 579 1434 579 1434 390 1434 c 2,27,-1
 142.5 1434 l 1,28,-1
 142.5 33 l 1,29,-1
 390 33 l 2,17,18
520.5 1869 m 2,30,-1
 349.5 1737 l 1,31,-1
 181.5 1867.5 l 2,32,33
 154.5 1888.5 154.5 1888.5 174 1915.5 c 1,34,35
 196.5 1938 196.5 1938 219 1920 c 2,36,-1
 349.5 1819.5 l 1,37,-1
 478.5 1921.5 l 1,38,39
 504 1939.5 504 1939.5 526.5 1917 c 1,40,41
 546 1890 546 1890 520.5 1869 c 2,30,-1
EndSplineSet
EndChar
StartChar: dcaron
Encoding: 271 271 332
Width: 1060
VWidth: 3000
Flags: W
LayerCount: 2
Back
Fore
SplineSet
706.5 1.5 m 2,0,1
 706.5 -33 706.5 -33 673.5 -33 c 0,2,3
 639 -33 639 -33 639 1.5 c 2,4,-1
 639 91.5 l 1,5,6
 636 84 636 84 625.5 72 c 0,7,8
 541.5 -33 541.5 -33 390 -33 c 0,9,10
 240 -33 240 -33 156 72 c 0,11,12
 75 172.5 75 172.5 75 355.5 c 256,13,14
 75 538.5 75 538.5 156 639 c 0,15,16
 240 742.5 240 742.5 390 742.5 c 0,17,18
 543 742.5 543 742.5 625.5 639 c 0,19,20
 636 625.5 636 625.5 639 619.5 c 1,21,-1
 639 1465.5 l 2,22,23
 639 1498.5 639 1498.5 673.5 1498.5 c 0,24,25
 706.5 1498.5 706.5 1498.5 706.5 1465.5 c 2,26,-1
 706.5 1.5 l 2,0,1
573 114 m 0,27,28
 639 198 639 198 639 355.5 c 0,29,30
 639 514.5 639 514.5 573 597 c 0,31,32
 510 676.5 510 676.5 390 676.5 c 0,33,34
 271.5 676.5 271.5 676.5 208.5 597 c 0,35,36
 142.5 514.5 142.5 514.5 142.5 355.5 c 0,37,38
 142.5 198 142.5 198 208.5 114 c 0,39,40
 271.5 34.5 271.5 34.5 390 34.5 c 0,41,42
 510 34.5 510 34.5 573 114 c 0,27,28
852 1431 m 1,43,44
 835.5 1464 835.5 1464 890.25 1496.25 c 128,-1,45
 945 1528.5 945 1528.5 970.5 1491 c 1,46,47
 1020 1426.5 1020 1426.5 976.5 1312.5 c 1,48,49
 945 1222.5 945 1222.5 847.5 1081.5 c 0,50,51
 828 1051.5 828 1051.5 799.5 1071 c 1,52,53
 772.5 1092 772.5 1092 790.5 1119 c 0,54,55
 882 1254 882 1254 910.5 1335 c 1,56,57
 939 1410 939 1410 900.75 1407 c 128,-1,58
 862.5 1404 862.5 1404 852 1431 c 1,43,44
EndSplineSet
EndChar
StartChar: Dcroat
Encoding: 272 272 259
Width: 931
VWidth: 3000
Flags: W
LayerCount: 2
Back
Fore
SplineSet
390 1501.5 m 2,0,1
 618 1501.5 618 1501.5 738 1296 c 0,2,3
 801 1189.5 801 1189.5 828.75 1044.75 c 128,-1,4
 856.5 900 856.5 900 856.5 735 c 0,5,6
 856.5 567 856.5 567 828.75 421.5 c 128,-1,7
 801 276 801 276 738 172.5 c 1,8,9
 618 -33 618 -33 390 -33 c 2,10,-1
 108 -33 l 2,11,12
 75 -33 75 -33 75 0 c 2,13,-1
 75 1468.5 l 2,14,15
 75 1501.5 75 1501.5 108 1501.5 c 2,16,-1
 390 1501.5 l 2,0,1
390 33 m 2,17,18
 579 33 579 33 681 207 c 0,19,20
 738 303 738 303 763.5 438.75 c 128,-1,21
 789 574.5 789 574.5 789 735 c 0,22,23
 789 891 789 891 763.5 1028.25 c 128,-1,24
 738 1165.5 738 1165.5 681 1263 c 0,25,26
 579 1434 579 1434 390 1434 c 2,27,-1
 142.5 1434 l 1,28,-1
 142.5 33 l 1,29,-1
 390 33 l 2,17,18
586.5 711 m 2,30,-1
 16.5 712.5 l 2,31,32
 -19.5 712.5 -19.5 712.5 -18 748.5 c 0,33,34
 -18 781.5 -18 781.5 16.5 781.5 c 2,35,-1
 586.5 781.5 l 1,36,37
 619.5 780 619.5 780 619.5 744 c 0,38,39
 619.5 709.5 619.5 709.5 586.5 711 c 2,30,-1
EndSplineSet
EndChar
StartChar: dcroat
Encoding: 273 273 333
Width: 781
VWidth: 3000
Flags: W
LayerCount: 2
Back
Fore
SplineSet
786 1023 m 1,0,-1
 706.5 1023 l 1,1,-1
 706.5 1.5 l 2,2,3
 706.5 -33 706.5 -33 673.5 -33 c 0,4,5
 639 -33 639 -33 639 1.5 c 2,6,-1
 639 91.5 l 1,7,8
 636 84 636 84 625.5 72 c 0,9,10
 541.5 -33 541.5 -33 390 -33 c 0,11,12
 240 -33 240 -33 156 72 c 0,13,14
 75 172.5 75 172.5 75 355.5 c 256,15,16
 75 538.5 75 538.5 156 639 c 0,17,18
 240 742.5 240 742.5 390 742.5 c 0,19,20
 543 742.5 543 742.5 625.5 639 c 0,21,22
 636 625.5 636 625.5 639 619.5 c 1,23,-1
 639 1023 l 1,24,-1
 216 1024.5 l 2,25,26
 180 1024.5 180 1024.5 181.5 1060.5 c 0,27,28
 181.5 1093.5 181.5 1093.5 216 1093.5 c 2,29,-1
 639 1093.5 l 1,30,-1
 639 1465.5 l 2,31,32
 639 1498.5 639 1498.5 673.5 1498.5 c 0,33,34
 706.5 1498.5 706.5 1498.5 706.5 1465.5 c 2,35,-1
 706.5 1093.5 l 1,36,-1
 786 1093.5 l 1,37,38
 819 1092 819 1092 819 1056 c 0,39,40
 819 1021.5 819 1021.5 786 1023 c 1,0,-1
573 114 m 0,41,42
 639 198 639 198 639 355.5 c 0,43,44
 639 514.5 639 514.5 573 597 c 0,45,46
 510 676.5 510 676.5 390 676.5 c 0,47,48
 271.5 676.5 271.5 676.5 208.5 597 c 0,49,50
 142.5 514.5 142.5 514.5 142.5 355.5 c 0,51,52
 142.5 198 142.5 198 208.5 114 c 0,53,54
 271.5 34.5 271.5 34.5 390 34.5 c 0,55,56
 510 34.5 510 34.5 573 114 c 0,41,42
EndSplineSet
EndChar
StartChar: Emacron
Encoding: 274 274 269
Width: 549
Flags: W
LayerCount: 2
Back
Fore
SplineSet
95 450 m 1,0,-1
 95 22 l 1,1,-1
 477 22 l 2,2,3
 499 22 499 22 499 0 c 256,4,5
 499 -22 499 -22 477 -22 c 2,6,-1
 72 -22 l 2,7,8
 50 -22 50 -22 50 0 c 2,9,-1
 50 979 l 2,10,11
 50 1001 50 1001 72 1001 c 2,12,-1
 477 1001 l 2,13,14
 499 1001 499 1001 499 979 c 0,15,16
 499 956 499 956 477 956 c 2,17,-1
 95 956 l 1,18,-1
 95 495 l 1,19,-1
 477 495 l 2,20,21
 499 495 499 495 499 472 c 0,22,23
 499 450 499 450 477 450 c 2,24,-1
 95 450 l 1,0,-1
465 1223 m 2,25,-1
 85 1224 l 2,26,27
 61 1224 61 1224 62 1248 c 0,28,29
 62 1270 62 1270 85 1270 c 2,30,-1
 465 1270 l 1,31,32
 487 1269 487 1269 487 1245 c 0,33,34
 487 1222 487 1222 465 1223 c 2,25,-1
EndSplineSet
EndChar
StartChar: emacron
Encoding: 275 275 337
Width: 520
Flags: W
LayerCount: 2
Back
Fore
SplineSet
138 398 m 0,0,1
 99 348 99 348 94 258 c 1,2,-1
 425 258 l 1,3,4
 419 348 419 348 381 398 c 1,5,6
 339 450 339 450 259 450 c 256,7,8
 179 450 179 450 138 398 c 0,0,1
449 106 m 1,9,10
 423 42 423 42 376 10 c 1,11,12
 327 -22 327 -22 259 -22 c 0,13,14
 159 -22 159 -22 103 47 c 0,15,16
 71 86 71 86 60 136.5 c 128,-1,17
 49 187 49 187 49 236 c 0,18,19
 49 358 49 358 103 425 c 0,20,21
 159 495 159 495 259 495 c 0,22,23
 360 495 360 495 416 425 c 0,24,25
 470 356 470 356 470 236 c 0,26,27
 470 214 470 214 447 214 c 2,28,-1
 94 214 l 1,29,30
 99 124 99 124 138 75 c 0,31,32
 179 22 179 22 259 22 c 0,33,34
 314 22 314 22 351 47 c 256,35,36
 388 72 388 72 407 122 c 0,37,38
 415 143 415 143 436 134 c 1,39,40
 456 127 456 127 449 106 c 1,9,10
451 723 m 2,41,-1
 71 724 l 2,42,43
 47 724 47 724 48 748 c 0,44,45
 48 770 48 770 71 770 c 2,46,-1
 451 770 l 1,47,48
 473 769 473 769 473 745 c 0,49,50
 473 722 473 722 451 723 c 2,41,-1
EndSplineSet
EndChar
StartChar: Ebreve
Encoding: 276 276 266
Width: 823
VWidth: 3000
Flags: W
LayerCount: 2
Back
Fore
SplineSet
142.5 675 m 1,0,-1
 142.5 33 l 1,1,-1
 715.5 33 l 2,2,3
 748.5 33 748.5 33 748.5 0 c 256,4,5
 748.5 -33 748.5 -33 715.5 -33 c 2,6,-1
 108 -33 l 2,7,8
 75 -33 75 -33 75 0 c 2,9,-1
 75 1468.5 l 2,10,11
 75 1501.5 75 1501.5 108 1501.5 c 2,12,-1
 715.5 1501.5 l 2,13,14
 748.5 1501.5 748.5 1501.5 748.5 1468.5 c 0,15,16
 748.5 1434 748.5 1434 715.5 1434 c 2,17,-1
 142.5 1434 l 1,18,-1
 142.5 742.5 l 1,19,-1
 715.5 742.5 l 2,20,21
 748.5 742.5 748.5 742.5 748.5 708 c 0,22,23
 748.5 675 748.5 675 715.5 675 c 2,24,-1
 142.5 675 l 1,0,-1
304.5 1830 m 0,25,26
 361.5 1773 361.5 1773 412.5 1773 c 256,27,28
 463.5 1773 463.5 1773 517.5 1828.5 c 0,29,30
 541.5 1852.5 541.5 1852.5 567 1830 c 1,31,32
 591 1806 591 1806 567 1782 c 0,33,34
 492 1705.5 492 1705.5 412.5 1705.5 c 1,35,36
 334.5 1707 334.5 1707 256.5 1782 c 0,37,38
 232.5 1804.5 232.5 1804.5 256.5 1830 c 1,39,40
 280.5 1852.5 280.5 1852.5 304.5 1830 c 0,25,26
EndSplineSet
EndChar
StartChar: ebreve
Encoding: 277 277 334
Width: 780
VWidth: 3000
Flags: W
LayerCount: 2
Back
Fore
SplineSet
207 597 m 0,0,1
 148.5 522 148.5 522 141 387 c 1,2,-1
 637.5 387 l 1,3,4
 628.5 522 628.5 522 571.5 597 c 1,5,6
 508.5 675 508.5 675 388.5 675 c 256,7,8
 268.5 675 268.5 675 207 597 c 0,0,1
673.5 159 m 1,9,10
 634.5 63 634.5 63 564 15 c 1,11,12
 490.5 -33 490.5 -33 388.5 -33 c 0,13,14
 238.5 -33 238.5 -33 154.5 70.5 c 0,15,16
 106.5 129 106.5 129 90 204.75 c 128,-1,17
 73.5 280.5 73.5 280.5 73.5 354 c 0,18,19
 73.5 537 73.5 537 154.5 637.5 c 0,20,21
 238.5 742.5 238.5 742.5 388.5 742.5 c 0,22,23
 540 742.5 540 742.5 624 637.5 c 0,24,25
 705 534 705 534 705 354 c 0,26,27
 705 321 705 321 670.5 321 c 2,28,-1
 141 321 l 1,29,30
 148.5 186 148.5 186 207 112.5 c 0,31,32
 268.5 33 268.5 33 388.5 33 c 0,33,34
 471 33 471 33 526.5 70.5 c 256,35,36
 582 108 582 108 610.5 183 c 0,37,38
 622.5 214.5 622.5 214.5 654 201 c 1,39,40
 684 190.5 684 190.5 673.5 159 c 1,9,10
282 1080 m 0,41,42
 339 1023 339 1023 390 1023 c 256,43,44
 441 1023 441 1023 495 1078.5 c 0,45,46
 519 1102.5 519 1102.5 544.5 1080 c 1,47,48
 568.5 1056 568.5 1056 544.5 1032 c 0,49,50
 469.5 955.5 469.5 955.5 390 955.5 c 1,51,52
 312 957 312 957 234 1032 c 0,53,54
 210 1054.5 210 1054.5 234 1080 c 1,55,56
 258 1102.5 258 1102.5 282 1080 c 0,41,42
EndSplineSet
EndChar
StartChar: Edotaccent
Encoding: 278 278 268
Width: 549
Flags: W
LayerCount: 2
Back
Fore
SplineSet
95 450 m 1,0,-1
 95 22 l 1,1,-1
 477 22 l 2,2,3
 499 22 499 22 499 0 c 256,4,5
 499 -22 499 -22 477 -22 c 2,6,-1
 72 -22 l 2,7,8
 50 -22 50 -22 50 0 c 2,9,-1
 50 979 l 2,10,11
 50 1001 50 1001 72 1001 c 2,12,-1
 477 1001 l 2,13,14
 499 1001 499 1001 499 979 c 0,15,16
 499 956 499 956 477 956 c 2,17,-1
 95 956 l 1,18,-1
 95 495 l 1,19,-1
 477 495 l 2,20,21
 499 495 499 495 499 472 c 0,22,23
 499 450 499 450 477 450 c 2,24,-1
 95 450 l 1,0,-1
224 1246 m 256,25,26
 224 1271 224 1271 238.5 1288.5 c 128,-1,27
 253 1306 253 1306 274 1306 c 256,28,29
 295 1306 295 1306 310 1288.5 c 128,-1,30
 325 1271 325 1271 325 1246 c 256,31,32
 325 1221 325 1221 310 1204 c 128,-1,33
 295 1187 295 1187 274 1187 c 256,34,35
 253 1187 253 1187 238.5 1204 c 128,-1,36
 224 1221 224 1221 224 1246 c 256,25,26
EndSplineSet
EndChar
StartChar: edotaccent
Encoding: 279 279 336
Width: 780
VWidth: 3000
Flags: W
LayerCount: 2
Back
Fore
SplineSet
207 597 m 0,0,1
 148.5 522 148.5 522 141 387 c 1,2,-1
 637.5 387 l 1,3,4
 628.5 522 628.5 522 571.5 597 c 1,5,6
 508.5 675 508.5 675 388.5 675 c 256,7,8
 268.5 675 268.5 675 207 597 c 0,0,1
673.5 159 m 1,9,10
 634.5 63 634.5 63 564 15 c 1,11,12
 490.5 -33 490.5 -33 388.5 -33 c 0,13,14
 238.5 -33 238.5 -33 154.5 70.5 c 0,15,16
 106.5 129 106.5 129 90 204.75 c 128,-1,17
 73.5 280.5 73.5 280.5 73.5 354 c 0,18,19
 73.5 537 73.5 537 154.5 637.5 c 0,20,21
 238.5 742.5 238.5 742.5 388.5 742.5 c 0,22,23
 540 742.5 540 742.5 624 637.5 c 0,24,25
 705 534 705 534 705 354 c 0,26,27
 705 321 705 321 670.5 321 c 2,28,-1
 141 321 l 1,29,30
 148.5 186 148.5 186 207 112.5 c 0,31,32
 268.5 33 268.5 33 388.5 33 c 0,33,34
 471 33 471 33 526.5 70.5 c 256,35,36
 582 108 582 108 610.5 183 c 0,37,38
 622.5 214.5 622.5 214.5 654 201 c 1,39,40
 684 190.5 684 190.5 673.5 159 c 1,9,10
313.5 1119 m 256,41,42
 313.5 1156.5 313.5 1156.5 335.25 1182.75 c 128,-1,43
 357 1209 357 1209 388.5 1209 c 256,44,45
 420 1209 420 1209 442.5 1182.75 c 128,-1,46
 465 1156.5 465 1156.5 465 1119 c 256,47,48
 465 1081.5 465 1081.5 442.5 1056 c 128,-1,49
 420 1030.5 420 1030.5 388.5 1030.5 c 256,50,51
 357 1030.5 357 1030.5 335.25 1056 c 128,-1,52
 313.5 1081.5 313.5 1081.5 313.5 1119 c 256,41,42
EndSplineSet
EndChar
StartChar: Eogonek
Encoding: 280 280 270
Width: 823
VWidth: 3000
Flags: W
LayerCount: 2
Back
Fore
SplineSet
672 -33 m 1,0,1
 618 -67.5 618 -67.5 613.5 -123 c 1,2,3
 613.5 -144 613.5 -144 620.25 -157.5 c 128,-1,4
 627 -171 627 -171 645 -181.5 c 128,-1,5
 663 -192 663 -192 696 -181.5 c 1,6,7
 727.5 -169.5 727.5 -169.5 738 -201 c 256,8,9
 748.5 -232.5 748.5 -232.5 718.5 -243 c 0,10,11
 651 -265.5 651 -265.5 611.25 -239.25 c 128,-1,12
 571.5 -213 571.5 -213 558 -181.5 c 128,-1,13
 544.5 -150 544.5 -150 547.5 -118.5 c 1,14,15
 549 -70.5 549 -70.5 574.5 -33 c 1,16,-1
 108 -33 l 2,17,18
 75 -33 75 -33 75 0 c 2,19,-1
 75 1468.5 l 2,20,21
 75 1501.5 75 1501.5 108 1501.5 c 2,22,-1
 715.5 1501.5 l 2,23,24
 748.5 1501.5 748.5 1501.5 748.5 1468.5 c 0,25,26
 748.5 1434 748.5 1434 715.5 1434 c 2,27,-1
 142.5 1434 l 1,28,-1
 142.5 742.5 l 1,29,-1
 715.5 742.5 l 2,30,31
 748.5 742.5 748.5 742.5 748.5 708 c 0,32,33
 748.5 675 748.5 675 715.5 675 c 2,34,-1
 142.5 675 l 1,35,-1
 142.5 33 l 1,36,-1
 715.5 33 l 2,37,38
 748.5 33 748.5 33 748.5 0 c 256,39,40
 748.5 -33 748.5 -33 715.5 -33 c 2,41,-1
 672 -33 l 1,0,1
EndSplineSet
EndChar
StartChar: eogonek
Encoding: 281 281 338
Width: 780
VWidth: 3000
Flags: W
LayerCount: 2
Back
Fore
SplineSet
463.5 -33 m 0,0,1
 409.5 -67.5 409.5 -67.5 405 -123 c 1,2,3
 405 -144 405 -144 411.75 -157.5 c 128,-1,4
 418.5 -171 418.5 -171 436.5 -181.5 c 128,-1,5
 454.5 -192 454.5 -192 487.5 -181.5 c 1,6,7
 519 -169.5 519 -169.5 529.5 -201 c 256,8,9
 540 -232.5 540 -232.5 510 -243 c 0,10,11
 442.5 -265.5 442.5 -265.5 402.75 -239.25 c 128,-1,12
 363 -213 363 -213 349.5 -181.5 c 128,-1,13
 336 -150 336 -150 339 -118.5 c 1,14,15
 340.5 -70.5 340.5 -70.5 366 -33 c 1,16,17
 232.5 -25.5 232.5 -25.5 154.5 70.5 c 0,18,19
 106.5 129 106.5 129 90 204.75 c 128,-1,20
 73.5 280.5 73.5 280.5 73.5 354 c 0,21,22
 73.5 537 73.5 537 154.5 637.5 c 0,23,24
 238.5 742.5 238.5 742.5 388.5 742.5 c 0,25,26
 540 742.5 540 742.5 624 637.5 c 0,27,28
 705 534 705 534 705 354 c 0,29,30
 705 321 705 321 670.5 321 c 2,31,-1
 141 321 l 1,32,33
 148.5 186 148.5 186 207 112.5 c 0,34,35
 268.5 33 268.5 33 388.5 33 c 0,36,37
 471 33 471 33 526.5 70.5 c 256,38,39
 582 108 582 108 610.5 183 c 0,40,41
 622.5 214.5 622.5 214.5 654 201 c 1,42,43
 684 190.5 684 190.5 673.5 159 c 1,44,45
 634.5 63 634.5 63 564 15 c 1,46,47
 523.5 -10.5 523.5 -10.5 474 -22.5 c 1,48,49
 471 -28.5 471 -28.5 463.5 -33 c 0,0,1
207 597 m 0,50,51
 148.5 522 148.5 522 141 387 c 1,52,-1
 637.5 387 l 1,53,54
 628.5 522 628.5 522 571.5 597 c 1,55,56
 508.5 675 508.5 675 388.5 675 c 256,57,58
 268.5 675 268.5 675 207 597 c 0,50,51
EndSplineSet
EndChar
StartChar: Ecaron
Encoding: 282 282 267
Width: 549
Flags: W
LayerCount: 2
Back
Fore
SplineSet
95 450 m 1,0,-1
 95 22 l 1,1,-1
 477 22 l 2,2,3
 499 22 499 22 499 0 c 256,4,5
 499 -22 499 -22 477 -22 c 2,6,-1
 72 -22 l 2,7,8
 50 -22 50 -22 50 0 c 2,9,-1
 50 979 l 2,10,11
 50 1001 50 1001 72 1001 c 2,12,-1
 477 1001 l 2,13,14
 499 1001 499 1001 499 979 c 0,15,16
 499 956 499 956 477 956 c 2,17,-1
 95 956 l 1,18,-1
 95 495 l 1,19,-1
 477 495 l 2,20,21
 499 495 499 495 499 472 c 0,22,23
 499 450 499 450 477 450 c 2,24,-1
 95 450 l 1,0,-1
388 1246 m 2,25,-1
 274 1158 l 1,26,-1
 162 1245 l 2,27,28
 144 1259 144 1259 157 1277 c 1,29,30
 172 1292 172 1292 187 1280 c 2,31,-1
 274 1213 l 1,32,-1
 360 1281 l 1,33,34
 377 1293 377 1293 392 1278 c 1,35,36
 405 1260 405 1260 388 1246 c 2,25,-1
EndSplineSet
EndChar
StartChar: ecaron
Encoding: 283 283 335
Width: 520
Flags: W
LayerCount: 2
Back
Fore
SplineSet
138 398 m 0,0,1
 99 348 99 348 94 258 c 1,2,-1
 425 258 l 1,3,4
 419 348 419 348 381 398 c 1,5,6
 339 450 339 450 259 450 c 256,7,8
 179 450 179 450 138 398 c 0,0,1
449 106 m 1,9,10
 423 42 423 42 376 10 c 1,11,12
 327 -22 327 -22 259 -22 c 0,13,14
 159 -22 159 -22 103 47 c 0,15,16
 71 86 71 86 60 136.5 c 128,-1,17
 49 187 49 187 49 236 c 0,18,19
 49 358 49 358 103 425 c 0,20,21
 159 495 159 495 259 495 c 0,22,23
 360 495 360 495 416 425 c 0,24,25
 470 356 470 356 470 236 c 0,26,27
 470 214 470 214 447 214 c 2,28,-1
 94 214 l 1,29,30
 99 124 99 124 138 75 c 0,31,32
 179 22 179 22 259 22 c 0,33,34
 314 22 314 22 351 47 c 256,35,36
 388 72 388 72 407 122 c 0,37,38
 415 143 415 143 436 134 c 1,39,40
 456 127 456 127 449 106 c 1,9,10
373 746 m 2,41,-1
 259 658 l 1,42,-1
 147 745 l 2,43,44
 129 759 129 759 142 777 c 1,45,46
 157 792 157 792 172 780 c 2,47,-1
 259 713 l 1,48,-1
 345 781 l 1,49,50
 362 793 362 793 377 778 c 1,51,52
 390 760 390 760 373 746 c 2,41,-1
EndSplineSet
EndChar
StartChar: Gcircumflex
Encoding: 284 284 272
Width: 1144
VWidth: 3000
Flags: W
LayerCount: 2
Back
Fore
SplineSet
1038 675 m 2,0,-1
 940.5 675 l 1,1,-1
 940.5 0 l 2,2,3
 940.5 -33 940.5 -33 906 -33 c 0,4,5
 873 -33 873 -33 873 0 c 2,6,-1
 873 145.5 l 1,7,8
 832.5 84 832.5 84 781.5 46.5 c 1,9,10
 679.5 -33 679.5 -33 541.5 -33 c 0,11,12
 313.5 -33 313.5 -33 193.5 172.5 c 1,13,14
 130.5 276 130.5 276 102.75 421.5 c 128,-1,15
 75 567 75 567 75 735 c 0,16,17
 75 900 75 900 102.75 1044.75 c 128,-1,18
 130.5 1189.5 130.5 1189.5 193.5 1296 c 0,19,20
 313.5 1501.5 313.5 1501.5 541.5 1501.5 c 0,21,22
 679.5 1501.5 679.5 1501.5 781.5 1422 c 0,23,24
 880.5 1344 880.5 1344 937.5 1194 c 0,25,26
 951 1161 951 1161 919.5 1150.5 c 0,27,28
 886.5 1138.5 886.5 1138.5 876 1170 c 1,29,30
 823.5 1303.5 823.5 1303.5 741 1369.5 c 0,31,32
 658.5 1434 658.5 1434 541.5 1434 c 0,33,34
 351 1434 351 1434 250.5 1263 c 0,35,36
 193.5 1165.5 193.5 1165.5 168 1028.25 c 128,-1,37
 142.5 891 142.5 891 142.5 735 c 0,38,39
 142.5 574.5 142.5 574.5 168 438.75 c 128,-1,40
 193.5 303 193.5 303 250.5 207 c 0,41,42
 351 33 351 33 541.5 33 c 0,43,44
 657 33 657 33 741 99 c 0,45,46
 823.5 163.5 823.5 163.5 873 292.5 c 1,47,-1
 873 675 l 1,48,-1
 687 675 l 2,49,50
 655.5 675 655.5 675 655.5 708 c 0,51,52
 655.5 742.5 655.5 742.5 687 742.5 c 2,53,-1
 1038 742.5 l 2,54,55
 1069.5 742.5 1069.5 742.5 1069.5 708 c 0,56,57
 1069.5 675 1069.5 675 1038 675 c 2,0,-1
402 1807.5 m 2,58,-1
 573 1939.5 l 1,59,-1
 741 1809 l 2,60,61
 768 1788 768 1788 748.5 1761 c 1,62,63
 726 1738.5 726 1738.5 703.5 1756.5 c 2,64,-1
 573 1857 l 1,65,-1
 444 1755 l 1,66,67
 418.5 1737 418.5 1737 396 1759.5 c 1,68,69
 376.5 1786.5 376.5 1786.5 402 1807.5 c 2,58,-1
EndSplineSet
EndChar
StartChar: Gbreve
Encoding: 286 286 271
Width: 1144
VWidth: 3000
Flags: W
LayerCount: 2
Back
Fore
SplineSet
1038 675 m 2,0,-1
 940.5 675 l 1,1,-1
 940.5 0 l 2,2,3
 940.5 -33 940.5 -33 906 -33 c 0,4,5
 873 -33 873 -33 873 0 c 2,6,-1
 873 145.5 l 1,7,8
 832.5 84 832.5 84 781.5 46.5 c 1,9,10
 679.5 -33 679.5 -33 541.5 -33 c 0,11,12
 313.5 -33 313.5 -33 193.5 172.5 c 1,13,14
 130.5 276 130.5 276 102.75 421.5 c 128,-1,15
 75 567 75 567 75 735 c 0,16,17
 75 900 75 900 102.75 1044.75 c 128,-1,18
 130.5 1189.5 130.5 1189.5 193.5 1296 c 0,19,20
 313.5 1501.5 313.5 1501.5 541.5 1501.5 c 0,21,22
 679.5 1501.5 679.5 1501.5 781.5 1422 c 0,23,24
 880.5 1344 880.5 1344 937.5 1194 c 0,25,26
 951 1161 951 1161 919.5 1150.5 c 0,27,28
 886.5 1138.5 886.5 1138.5 876 1170 c 1,29,30
 823.5 1303.5 823.5 1303.5 741 1369.5 c 0,31,32
 658.5 1434 658.5 1434 541.5 1434 c 0,33,34
 351 1434 351 1434 250.5 1263 c 0,35,36
 193.5 1165.5 193.5 1165.5 168 1028.25 c 128,-1,37
 142.5 891 142.5 891 142.5 735 c 0,38,39
 142.5 574.5 142.5 574.5 168 438.75 c 128,-1,40
 193.5 303 193.5 303 250.5 207 c 0,41,42
 351 33 351 33 541.5 33 c 0,43,44
 657 33 657 33 741 99 c 0,45,46
 823.5 163.5 823.5 163.5 873 292.5 c 1,47,-1
 873 675 l 1,48,-1
 687 675 l 2,49,50
 655.5 675 655.5 675 655.5 708 c 0,51,52
 655.5 742.5 655.5 742.5 687 742.5 c 2,53,-1
 1038 742.5 l 2,54,55
 1069.5 742.5 1069.5 742.5 1069.5 708 c 0,56,57
 1069.5 675 1069.5 675 1038 675 c 2,0,-1
414 1851 m 0,58,59
 471 1794 471 1794 522 1794 c 256,60,61
 573 1794 573 1794 627 1849.5 c 0,62,63
 651 1873.5 651 1873.5 676.5 1851 c 1,64,65
 700.5 1827 700.5 1827 676.5 1803 c 0,66,67
 601.5 1726.5 601.5 1726.5 522 1726.5 c 1,68,69
 444 1728 444 1728 366 1803 c 0,70,71
 342 1825.5 342 1825.5 366 1851 c 1,72,73
 390 1873.5 390 1873.5 414 1851 c 0,58,59
EndSplineSet
EndChar
StartChar: gbreve
Encoding: 287 287 340
Width: 781
VWidth: 3000
Flags: W
LayerCount: 2
Back
Fore
SplineSet
169.5 -514.5 m 1,0,1
 196.5 -588 196.5 -588 253.5 -625.5 c 1,2,3
 307.5 -663 307.5 -663 390 -663 c 0,4,5
 510 -663 510 -663 573 -585 c 0,6,7
 639 -501 639 -501 639 -342 c 2,8,-1
 639 90 l 1,9,10
 636 84 636 84 625.5 70.5 c 0,11,12
 543 -33 543 -33 390 -33 c 0,13,14
 240 -33 240 -33 156 70.5 c 0,15,16
 75 171 75 171 75 354 c 256,17,18
 75 537 75 537 156 637.5 c 0,19,20
 240 742.5 240 742.5 390 742.5 c 0,21,22
 541.5 742.5 541.5 742.5 625.5 637.5 c 0,23,24
 636 625.5 636 625.5 639 619.5 c 1,25,-1
 639 708 l 2,26,27
 639 742.5 639 742.5 672 742.5 c 0,28,29
 706.5 742.5 706.5 742.5 706.5 708 c 2,30,-1
 706.5 -342 l 2,31,32
 706.5 -523.5 706.5 -523.5 625.5 -625.5 c 0,33,34
 541.5 -730.5 541.5 -730.5 390 -730.5 c 0,35,36
 289.5 -730.5 289.5 -730.5 216 -681 c 0,37,38
 144 -633 144 -633 106.5 -538.5 c 0,39,40
 93 -505.5 93 -505.5 126 -495 c 1,41,42
 156 -483 156 -483 169.5 -514.5 c 1,0,1
573 597 m 1,43,44
 510 675 510 675 390 675 c 256,45,46
 270 675 270 675 208.5 597 c 0,47,48
 142.5 511.5 142.5 511.5 142.5 354 c 0,49,50
 142.5 195 142.5 195 208.5 112.5 c 1,51,52
 270 33 270 33 390 33 c 256,53,54
 510 33 510 33 573 112.5 c 0,55,56
 639 195 639 195 639 354 c 0,57,58
 639 511.5 639 511.5 573 597 c 1,43,44
283.5 1080 m 0,59,60
 340.5 1023 340.5 1023 391.5 1023 c 256,61,62
 442.5 1023 442.5 1023 496.5 1078.5 c 0,63,64
 520.5 1102.5 520.5 1102.5 546 1080 c 1,65,66
 570 1056 570 1056 546 1032 c 0,67,68
 471 955.5 471 955.5 391.5 955.5 c 1,69,70
 313.5 957 313.5 957 235.5 1032 c 0,71,72
 211.5 1054.5 211.5 1054.5 235.5 1080 c 1,73,74
 259.5 1102.5 259.5 1102.5 283.5 1080 c 0,59,60
EndSplineSet
EndChar
StartChar: Gdotaccent
Encoding: 288 288 275
Width: 1144
VWidth: 3000
Flags: W
LayerCount: 2
Back
Fore
SplineSet
1038 675 m 2,0,-1
 940.5 675 l 1,1,-1
 940.5 0 l 2,2,3
 940.5 -33 940.5 -33 906 -33 c 0,4,5
 873 -33 873 -33 873 0 c 2,6,-1
 873 145.5 l 1,7,8
 832.5 84 832.5 84 781.5 46.5 c 1,9,10
 679.5 -33 679.5 -33 541.5 -33 c 0,11,12
 313.5 -33 313.5 -33 193.5 172.5 c 1,13,14
 130.5 276 130.5 276 102.75 421.5 c 128,-1,15
 75 567 75 567 75 735 c 0,16,17
 75 900 75 900 102.75 1044.75 c 128,-1,18
 130.5 1189.5 130.5 1189.5 193.5 1296 c 0,19,20
 313.5 1501.5 313.5 1501.5 541.5 1501.5 c 0,21,22
 679.5 1501.5 679.5 1501.5 781.5 1422 c 0,23,24
 880.5 1344 880.5 1344 937.5 1194 c 0,25,26
 951 1161 951 1161 919.5 1150.5 c 0,27,28
 886.5 1138.5 886.5 1138.5 876 1170 c 1,29,30
 823.5 1303.5 823.5 1303.5 741 1369.5 c 0,31,32
 658.5 1434 658.5 1434 541.5 1434 c 0,33,34
 351 1434 351 1434 250.5 1263 c 0,35,36
 193.5 1165.5 193.5 1165.5 168 1028.25 c 128,-1,37
 142.5 891 142.5 891 142.5 735 c 0,38,39
 142.5 574.5 142.5 574.5 168 438.75 c 128,-1,40
 193.5 303 193.5 303 250.5 207 c 0,41,42
 351 33 351 33 541.5 33 c 0,43,44
 657 33 657 33 741 99 c 0,45,46
 823.5 163.5 823.5 163.5 873 292.5 c 1,47,-1
 873 675 l 1,48,-1
 687 675 l 2,49,50
 655.5 675 655.5 675 655.5 708 c 0,51,52
 655.5 742.5 655.5 742.5 687 742.5 c 2,53,-1
 1038 742.5 l 2,54,55
 1069.5 742.5 1069.5 742.5 1069.5 708 c 0,56,57
 1069.5 675 1069.5 675 1038 675 c 2,0,-1
496.5 1869 m 256,58,59
 496.5 1906.5 496.5 1906.5 518.25 1932.75 c 128,-1,60
 540 1959 540 1959 571.5 1959 c 256,61,62
 603 1959 603 1959 625.5 1932.75 c 128,-1,63
 648 1906.5 648 1906.5 648 1869 c 256,64,65
 648 1831.5 648 1831.5 625.5 1806 c 128,-1,66
 603 1780.5 603 1780.5 571.5 1780.5 c 256,67,68
 540 1780.5 540 1780.5 518.25 1806 c 128,-1,69
 496.5 1831.5 496.5 1831.5 496.5 1869 c 256,58,59
EndSplineSet
EndChar
StartChar: gdotaccent
Encoding: 289 289 343
Width: 781
VWidth: 3000
Flags: W
LayerCount: 2
Back
Fore
SplineSet
169.5 -514.5 m 1,0,1
 196.5 -588 196.5 -588 253.5 -625.5 c 1,2,3
 307.5 -663 307.5 -663 390 -663 c 0,4,5
 510 -663 510 -663 573 -585 c 0,6,7
 639 -501 639 -501 639 -342 c 2,8,-1
 639 90 l 1,9,10
 636 84 636 84 625.5 70.5 c 0,11,12
 543 -33 543 -33 390 -33 c 0,13,14
 240 -33 240 -33 156 70.5 c 0,15,16
 75 171 75 171 75 354 c 256,17,18
 75 537 75 537 156 637.5 c 0,19,20
 240 742.5 240 742.5 390 742.5 c 0,21,22
 541.5 742.5 541.5 742.5 625.5 637.5 c 0,23,24
 636 625.5 636 625.5 639 619.5 c 1,25,-1
 639 708 l 2,26,27
 639 742.5 639 742.5 672 742.5 c 0,28,29
 706.5 742.5 706.5 742.5 706.5 708 c 2,30,-1
 706.5 -342 l 2,31,32
 706.5 -523.5 706.5 -523.5 625.5 -625.5 c 0,33,34
 541.5 -730.5 541.5 -730.5 390 -730.5 c 0,35,36
 289.5 -730.5 289.5 -730.5 216 -681 c 0,37,38
 144 -633 144 -633 106.5 -538.5 c 0,39,40
 93 -505.5 93 -505.5 126 -495 c 1,41,42
 156 -483 156 -483 169.5 -514.5 c 1,0,1
573 597 m 1,43,44
 510 675 510 675 390 675 c 256,45,46
 270 675 270 675 208.5 597 c 0,47,48
 142.5 511.5 142.5 511.5 142.5 354 c 0,49,50
 142.5 195 142.5 195 208.5 112.5 c 1,51,52
 270 33 270 33 390 33 c 256,53,54
 510 33 510 33 573 112.5 c 0,55,56
 639 195 639 195 639 354 c 0,57,58
 639 511.5 639 511.5 573 597 c 1,43,44
315 1119 m 256,59,60
 315 1156.5 315 1156.5 336.75 1182.75 c 128,-1,61
 358.5 1209 358.5 1209 390 1209 c 256,62,63
 421.5 1209 421.5 1209 444 1182.75 c 128,-1,64
 466.5 1156.5 466.5 1156.5 466.5 1119 c 256,65,66
 466.5 1081.5 466.5 1081.5 444 1056 c 128,-1,67
 421.5 1030.5 421.5 1030.5 390 1030.5 c 256,68,69
 358.5 1030.5 358.5 1030.5 336.75 1056 c 128,-1,70
 315 1081.5 315 1081.5 315 1119 c 256,59,60
EndSplineSet
EndChar
StartChar: Gcommaaccent
Encoding: 290 290 274
Width: 1144
VWidth: 3000
Flags: W
LayerCount: 2
Back
Fore
SplineSet
1038 675 m 2,0,-1
 940.5 675 l 1,1,-1
 940.5 0 l 2,2,3
 940.5 -33 940.5 -33 906 -33 c 0,4,5
 873 -33 873 -33 873 0 c 2,6,-1
 873 145.5 l 1,7,8
 832.5 84 832.5 84 781.5 46.5 c 1,9,10
 679.5 -33 679.5 -33 541.5 -33 c 0,11,12
 313.5 -33 313.5 -33 193.5 172.5 c 1,13,14
 130.5 276 130.5 276 102.75 421.5 c 128,-1,15
 75 567 75 567 75 735 c 0,16,17
 75 900 75 900 102.75 1044.75 c 128,-1,18
 130.5 1189.5 130.5 1189.5 193.5 1296 c 0,19,20
 313.5 1501.5 313.5 1501.5 541.5 1501.5 c 0,21,22
 679.5 1501.5 679.5 1501.5 781.5 1422 c 0,23,24
 880.5 1344 880.5 1344 937.5 1194 c 0,25,26
 951 1161 951 1161 919.5 1150.5 c 0,27,28
 886.5 1138.5 886.5 1138.5 876 1170 c 1,29,30
 823.5 1303.5 823.5 1303.5 741 1369.5 c 0,31,32
 658.5 1434 658.5 1434 541.5 1434 c 0,33,34
 351 1434 351 1434 250.5 1263 c 0,35,36
 193.5 1165.5 193.5 1165.5 168 1028.25 c 128,-1,37
 142.5 891 142.5 891 142.5 735 c 0,38,39
 142.5 574.5 142.5 574.5 168 438.75 c 128,-1,40
 193.5 303 193.5 303 250.5 207 c 0,41,42
 351 33 351 33 541.5 33 c 0,43,44
 657 33 657 33 741 99 c 0,45,46
 823.5 163.5 823.5 163.5 873 292.5 c 1,47,-1
 873 675 l 1,48,-1
 687 675 l 2,49,50
 655.5 675 655.5 675 655.5 708 c 0,51,52
 655.5 742.5 655.5 742.5 687 742.5 c 2,53,-1
 1038 742.5 l 2,54,55
 1069.5 742.5 1069.5 742.5 1069.5 708 c 0,56,57
 1069.5 675 1069.5 675 1038 675 c 2,0,-1
528 -190.5 m 0,58,59
 513 -156 513 -156 567 -124.5 c 128,-1,60
 621 -93 621 -93 646.5 -130.5 c 1,61,62
 696 -195 696 -195 652.5 -309 c 1,63,64
 621 -399 621 -399 523.5 -541.5 c 0,65,66
 504 -568.5 504 -568.5 475.5 -549 c 0,67,68
 448.5 -529.5 448.5 -529.5 466.5 -501 c 0,69,70
 558 -367.5 558 -367.5 588 -286.5 c 0,71,72
 615 -211.5 615 -211.5 576.75 -213.75 c 128,-1,73
 538.5 -216 538.5 -216 528 -190.5 c 0,58,59
EndSplineSet
EndChar
StartChar: gcommaaccent
Encoding: 291 291 342
Width: 781
VWidth: 3000
Flags: W
LayerCount: 2
Back
Fore
SplineSet
169.5 -514.5 m 1,0,1
 196.5 -588 196.5 -588 253.5 -625.5 c 1,2,3
 307.5 -663 307.5 -663 390 -663 c 0,4,5
 510 -663 510 -663 573 -585 c 0,6,7
 639 -501 639 -501 639 -342 c 2,8,-1
 639 90 l 1,9,10
 636 84 636 84 625.5 70.5 c 0,11,12
 543 -33 543 -33 390 -33 c 0,13,14
 240 -33 240 -33 156 70.5 c 0,15,16
 75 171 75 171 75 354 c 256,17,18
 75 537 75 537 156 637.5 c 0,19,20
 240 742.5 240 742.5 390 742.5 c 0,21,22
 541.5 742.5 541.5 742.5 625.5 637.5 c 0,23,24
 636 625.5 636 625.5 639 619.5 c 1,25,-1
 639 708 l 2,26,27
 639 742.5 639 742.5 672 742.5 c 0,28,29
 706.5 742.5 706.5 742.5 706.5 708 c 2,30,-1
 706.5 -342 l 2,31,32
 706.5 -523.5 706.5 -523.5 625.5 -625.5 c 0,33,34
 541.5 -730.5 541.5 -730.5 390 -730.5 c 0,35,36
 289.5 -730.5 289.5 -730.5 216 -681 c 0,37,38
 144 -633 144 -633 106.5 -538.5 c 0,39,40
 93 -505.5 93 -505.5 126 -495 c 1,41,42
 156 -483 156 -483 169.5 -514.5 c 1,0,1
573 597 m 1,43,44
 510 675 510 675 390 675 c 256,45,46
 270 675 270 675 208.5 597 c 0,47,48
 142.5 511.5 142.5 511.5 142.5 354 c 0,49,50
 142.5 195 142.5 195 208.5 112.5 c 1,51,52
 270 33 270 33 390 33 c 256,53,54
 510 33 510 33 573 112.5 c 0,55,56
 639 195 639 195 639 354 c 0,57,58
 639 511.5 639 511.5 573 597 c 1,43,44
433.5 909 m 1,59,60
 450 876 450 876 395.25 843.75 c 128,-1,61
 340.5 811.5 340.5 811.5 315 849 c 1,62,63
 267 913.5 267 913.5 310.5 1027.5 c 1,64,65
 342 1117.5 342 1117.5 438 1260 c 0,66,67
 457.5 1288.5 457.5 1288.5 486 1269 c 1,68,69
 513 1248 513 1248 496.5 1221 c 1,70,71
 403.5 1086 403.5 1086 375 1005 c 0,72,73
 348 930 348 930 385.5 933 c 128,-1,74
 423 936 423 936 433.5 909 c 1,59,60
EndSplineSet
EndChar
StartChar: Hcircumflex
Encoding: 292 292 277
Width: 936
VWidth: 3000
Flags: W
LayerCount: 2
Back
Fore
SplineSet
861 1468.5 m 2,0,-1
 861 0 l 2,1,2
 861 -33 861 -33 826.5 -33 c 0,3,4
 793.5 -33 793.5 -33 793.5 0 c 2,5,-1
 793.5 678 l 1,6,7
 789 675 789 675 781.5 675 c 2,8,-1
 142.5 675 l 1,9,-1
 142.5 0 l 2,10,11
 142.5 -33 142.5 -33 108 -33 c 0,12,13
 75 -33 75 -33 75 0 c 2,14,-1
 75 1468.5 l 2,15,16
 75 1501.5 75 1501.5 108 1501.5 c 0,17,18
 142.5 1501.5 142.5 1501.5 142.5 1468.5 c 2,19,-1
 142.5 742.5 l 1,20,-1
 781.5 742.5 l 2,21,22
 786 742.5 786 742.5 793.5 739.5 c 1,23,-1
 793.5 1468.5 l 2,24,25
 793.5 1501.5 793.5 1501.5 826.5 1501.5 c 0,26,27
 861 1501.5 861 1501.5 861 1468.5 c 2,0,-1
297 1807.5 m 2,28,-1
 468 1939.5 l 1,29,-1
 636 1809 l 2,30,31
 663 1788 663 1788 643.5 1761 c 1,32,33
 621 1738.5 621 1738.5 598.5 1756.5 c 2,34,-1
 468 1857 l 1,35,-1
 339 1755 l 1,36,37
 313.5 1737 313.5 1737 291 1759.5 c 1,38,39
 271.5 1786.5 271.5 1786.5 297 1807.5 c 2,28,-1
EndSplineSet
EndChar

StartChar: hcircumflex
Encoding: 293 293 345
Width: 521
Flags: W
LayerCount: 2
Fore
SplineSet
426 236 m 2,0,1
 426 341 426 341 382 398 c 1,2,3
 340 450 340 450 260 450 c 256,4,5
 180 450 180 450 139 398 c 0,6,7
 95 341 95 341 95 236 c 2,8,-1
 95 0 l 2,9,10
 95 -22 95 -22 72 -22 c 0,11,12
 50 -22 50 -22 50 0 c 2,13,-1
 50 979 l 2,14,15
 50 1001 50 1001 72 1001 c 0,16,17
 95 1001 95 1001 95 979 c 2,18,-1
 95 413 l 1,19,20
 97 417 97 417 104 425 c 0,21,22
 160 495 160 495 260 495 c 0,23,24
 361 495 361 495 417 425 c 0,25,26
 471 356 471 356 471 236 c 2,27,-1
 471 0 l 2,28,29
 471 -22 471 -22 448 -22 c 0,30,31
 426 -22 426 -22 426 0 c 2,32,-1
 426 236 l 2,0,1
147 1105 m 2,33,-1
 261 1193 l 1,34,-1
 373 1106 l 2,35,36
 391 1092 391 1092 378 1074 c 1,37,38
 363 1059 363 1059 348 1071 c 2,39,-1
 261 1138 l 1,40,-1
 175 1070 l 1,41,42
 158 1058 158 1058 143 1073 c 1,43,44
 130 1091 130 1091 147 1105 c 2,33,-1
EndSplineSet
EndChar
StartChar: Hbar
Encoding: 294 294 276
Width: 936
VWidth: 3000
Flags: W
LayerCount: 2
Back
Fore
SplineSet
892.5 1107 m 1,0,-1
 861 1107 l 1,1,-1
 861 0 l 2,2,3
 861 -33 861 -33 826.5 -33 c 0,4,5
 793.5 -33 793.5 -33 793.5 0 c 2,6,-1
 793.5 678 l 1,7,8
 789 675 789 675 781.5 675 c 2,9,-1
 142.5 675 l 1,10,-1
 142.5 0 l 2,11,12
 142.5 -33 142.5 -33 108 -33 c 0,13,14
 75 -33 75 -33 75 0 c 2,15,-1
 75 1108.5 l 1,16,-1
 42 1108.5 l 2,17,18
 6 1108.5 6 1108.5 7.5 1144.5 c 0,19,20
 7.5 1177.5 7.5 1177.5 42 1177.5 c 2,21,-1
 75 1177.5 l 1,22,-1
 75 1468.5 l 2,23,24
 75 1501.5 75 1501.5 108 1501.5 c 0,25,26
 142.5 1501.5 142.5 1501.5 142.5 1468.5 c 2,27,-1
 142.5 1177.5 l 1,28,-1
 793.5 1177.5 l 1,29,-1
 793.5 1468.5 l 2,30,31
 793.5 1501.5 793.5 1501.5 826.5 1501.5 c 0,32,33
 861 1501.5 861 1501.5 861 1468.5 c 2,34,-1
 861 1177.5 l 1,35,-1
 892.5 1177.5 l 1,36,37
 925.5 1176 925.5 1176 925.5 1140 c 0,38,39
 925.5 1105.5 925.5 1105.5 892.5 1107 c 1,0,-1
781.5 742.5 m 2,40,41
 786 742.5 786 742.5 793.5 739.5 c 1,42,-1
 793.5 1107 l 1,43,-1
 142.5 1108.5 l 1,44,-1
 142.5 742.5 l 1,45,-1
 781.5 742.5 l 2,40,41
EndSplineSet
EndChar
StartChar: hbar
Encoding: 295 295 344
Width: 781
VWidth: 3000
Flags: W
LayerCount: 2
Back
Fore
SplineSet
370.5 1084.5 m 2,0,-1
 142.5 1086 l 1,1,-1
 142.5 619.5 l 1,2,3
 145.5 625.5 145.5 625.5 156 637.5 c 0,4,5
 240 742.5 240 742.5 390 742.5 c 0,6,7
 541.5 742.5 541.5 742.5 625.5 637.5 c 0,8,9
 706.5 534 706.5 534 706.5 354 c 2,10,-1
 706.5 0 l 2,11,12
 706.5 -33 706.5 -33 672 -33 c 0,13,14
 639 -33 639 -33 639 0 c 2,15,-1
 639 354 l 2,16,17
 639 511.5 639 511.5 573 597 c 1,18,19
 510 675 510 675 390 675 c 256,20,21
 270 675 270 675 208.5 597 c 0,22,23
 142.5 511.5 142.5 511.5 142.5 354 c 2,24,-1
 142.5 0 l 2,25,26
 142.5 -33 142.5 -33 108 -33 c 0,27,28
 75 -33 75 -33 75 0 c 2,29,-1
 75 1086 l 1,30,-1
 24 1086 l 2,31,32
 -12 1086 -12 1086 -10.5 1122 c 0,33,34
 -10.5 1155 -10.5 1155 24 1155 c 2,35,-1
 75 1155 l 1,36,-1
 75 1468.5 l 2,37,38
 75 1501.5 75 1501.5 108 1501.5 c 0,39,40
 142.5 1501.5 142.5 1501.5 142.5 1468.5 c 2,41,-1
 142.5 1155 l 1,42,-1
 370.5 1155 l 1,43,44
 403.5 1153.5 403.5 1153.5 403.5 1117.5 c 0,45,46
 403.5 1083 403.5 1083 370.5 1084.5 c 2,0,-1
EndSplineSet
EndChar
StartChar: Itilde
Encoding: 296 296 282
Width: 640
VWidth: 3000
Flags: W
LayerCount: 2
Back
Fore
SplineSet
108 33 m 2,0,-1
 286.5 33 l 1,1,-1
 286.5 1434 l 1,2,-1
 108 1434 l 2,3,4
 75 1434 75 1434 75 1468.5 c 0,5,6
 75 1501.5 75 1501.5 108 1501.5 c 2,7,-1
 532.5 1501.5 l 2,8,9
 565.5 1501.5 565.5 1501.5 565.5 1468.5 c 0,10,11
 565.5 1434 565.5 1434 532.5 1434 c 2,12,-1
 354 1434 l 1,13,-1
 354 33 l 1,14,-1
 532.5 33 l 2,15,16
 565.5 33 565.5 33 565.5 0 c 256,17,18
 565.5 -33 565.5 -33 532.5 -33 c 2,19,-1
 108 -33 l 2,20,21
 75 -33 75 -33 75 0 c 256,22,23
 75 33 75 33 108 33 c 2,0,-1
15 1731 m 0,24,25
 51 1779 51 1779 85.5 1815 c 128,-1,26
 120 1851 120 1851 160.5 1864.5 c 0,27,28
 249 1893 249 1893 343.5 1767 c 1,29,30
 376.5 1719 376.5 1719 414 1710 c 0,31,32
 433.5 1704 433.5 1704 453 1708.5 c 1,33,34
 471 1714.5 471 1714.5 493.5 1729.5 c 0,35,36
 549 1770 549 1770 571.5 1840.5 c 0,37,38
 580.5 1873.5 580.5 1873.5 613.5 1866 c 1,39,40
 646.5 1854 646.5 1854 637.5 1822.5 c 0,41,42
 609 1728 609 1728 535.5 1674 c 0,43,44
 502.5 1648.5 502.5 1648.5 469.5 1642.5 c 1,45,46
 429 1632 429 1632 393 1644 c 0,47,48
 334.5 1662 334.5 1662 288 1726.5 c 0,49,50
 223.5 1813.5 223.5 1813.5 181.5 1798.5 c 1,51,52
 156 1791 156 1791 128.25 1760.25 c 128,-1,53
 100.5 1729.5 100.5 1729.5 69 1689 c 1,54,55
 48 1659 48 1659 21 1681.5 c 256,56,57
 -6 1704 -6 1704 15 1731 c 0,24,25
EndSplineSet
EndChar
StartChar: itilde
Encoding: 297 297 347
Width: 255
VWidth: 3000
Flags: W
LayerCount: 2
Back
Fore
SplineSet
160.5 708 m 2,0,-1
 160.5 0 l 2,1,2
 160.5 -33 160.5 -33 126 -33 c 0,3,4
 93 -33 93 -33 93 0 c 2,5,-1
 93 708 l 2,6,7
 93 742.5 93 742.5 126 742.5 c 0,8,9
 160.5 742.5 160.5 742.5 160.5 708 c 2,0,-1
-177 981 m 0,10,11
 -141 1029 -141 1029 -106.5 1065 c 128,-1,12
 -72 1101 -72 1101 -31.5 1114.5 c 0,13,14
 57 1143 57 1143 151.5 1017 c 1,15,16
 184.5 969 184.5 969 222 960 c 0,17,18
 241.5 954 241.5 954 261 958.5 c 1,19,20
 279 964.5 279 964.5 301.5 979.5 c 0,21,22
 357 1020 357 1020 379.5 1090.5 c 0,23,24
 388.5 1123.5 388.5 1123.5 421.5 1116 c 1,25,26
 454.5 1104 454.5 1104 445.5 1072.5 c 0,27,28
 417 978 417 978 343.5 924 c 0,29,30
 310.5 898.5 310.5 898.5 277.5 892.5 c 1,31,32
 237 882 237 882 201 894 c 0,33,34
 142.5 912 142.5 912 96 976.5 c 0,35,36
 31.5 1063.5 31.5 1063.5 -10.5 1048.5 c 1,37,38
 -36 1041 -36 1041 -63.75 1010.25 c 128,-1,39
 -91.5 979.5 -91.5 979.5 -123 939 c 1,40,41
 -144 909 -144 909 -171 931.5 c 256,42,43
 -198 954 -198 954 -177 981 c 0,10,11
EndSplineSet
EndChar
StartChar: Imacron
Encoding: 298 298 280
Width: 640
VWidth: 3000
Flags: W
LayerCount: 2
Back
Fore
SplineSet
108 33 m 2,0,-1
 286.5 33 l 1,1,-1
 286.5 1434 l 1,2,-1
 108 1434 l 2,3,4
 75 1434 75 1434 75 1468.5 c 0,5,6
 75 1501.5 75 1501.5 108 1501.5 c 2,7,-1
 532.5 1501.5 l 2,8,9
 565.5 1501.5 565.5 1501.5 565.5 1468.5 c 0,10,11
 565.5 1434 565.5 1434 532.5 1434 c 2,12,-1
 354 1434 l 1,13,-1
 354 33 l 1,14,-1
 532.5 33 l 2,15,16
 565.5 33 565.5 33 565.5 0 c 256,17,18
 565.5 -33 565.5 -33 532.5 -33 c 2,19,-1
 108 -33 l 2,20,21
 75 -33 75 -33 75 0 c 256,22,23
 75 33 75 33 108 33 c 2,0,-1
607.5 1834.5 m 2,24,-1
 37.5 1836 l 2,25,26
 1.5 1836 1.5 1836 3 1872 c 0,27,28
 3 1905 3 1905 37.5 1905 c 2,29,-1
 607.5 1905 l 1,30,31
 640.5 1903.5 640.5 1903.5 640.5 1867.5 c 0,32,33
 640.5 1833 640.5 1833 607.5 1834.5 c 2,24,-1
EndSplineSet
EndChar
StartChar: imacron
Encoding: 299 299 348
Width: 255
VWidth: 3000
Flags: W
LayerCount: 2
Back
Fore
SplineSet
160.5 708 m 2,0,-1
 160.5 0 l 2,1,2
 160.5 -33 160.5 -33 126 -33 c 0,3,4
 93 -33 93 -33 93 0 c 2,5,-1
 93 708 l 2,6,7
 93 742.5 93 742.5 126 742.5 c 0,8,9
 160.5 742.5 160.5 742.5 160.5 708 c 2,0,-1
264 1084.5 m 2,10,-1
 -4.5 1086 l 2,11,12
 -40.5 1086 -40.5 1086 -39 1122 c 0,13,14
 -39 1155 -39 1155 -4.5 1155 c 2,15,-1
 264 1155 l 1,16,17
 297 1153.5 297 1153.5 297 1117.5 c 0,18,19
 297 1083 297 1083 264 1084.5 c 2,10,-1
EndSplineSet
EndChar
StartChar: Ibreve
Encoding: 300 300 278
Width: 427
Flags: W
LayerCount: 2
Back
Fore
SplineSet
72 22 m 2,0,-1
 191 22 l 1,1,-1
 191 956 l 1,2,-1
 72 956 l 2,3,4
 50 956 50 956 50 979 c 0,5,6
 50 1001 50 1001 72 1001 c 2,7,-1
 355 1001 l 2,8,9
 377 1001 377 1001 377 979 c 0,10,11
 377 956 377 956 355 956 c 2,12,-1
 236 956 l 1,13,-1
 236 22 l 1,14,-1
 355 22 l 2,15,16
 377 22 377 22 377 0 c 256,17,18
 377 -22 377 -22 355 -22 c 2,19,-1
 72 -22 l 2,20,21
 50 -22 50 -22 50 0 c 256,22,23
 50 22 50 22 72 22 c 2,0,-1
142 1265 m 0,24,25
 180 1227 180 1227 214 1227 c 256,26,27
 248 1227 248 1227 284 1264 c 0,28,29
 300 1280 300 1280 317 1265 c 1,30,31
 333 1249 333 1249 317 1233 c 0,32,33
 267 1182 267 1182 214 1182 c 1,34,35
 162 1183 162 1183 110 1233 c 0,36,37
 94 1248 94 1248 110 1265 c 1,38,39
 126 1280 126 1280 142 1265 c 0,24,25
EndSplineSet
EndChar

StartChar: ibreve
Encoding: 301 301 349
Width: 170
Flags: W
LayerCount: 2
Fore
SplineSet
107 472 m 2,0,-1
 107 0 l 2,1,2
 107 -22 107 -22 84 -22 c 0,3,4
 62 -22 62 -22 62 0 c 2,5,-1
 62 472 l 2,6,7
 62 495 62 495 84 495 c 0,8,9
 107 495 107 495 107 472 c 2,0,-1
14 720 m 0,10,11
 52 682 52 682 86 682 c 256,12,13
 120 682 120 682 156 719 c 0,14,15
 172 735 172 735 189 720 c 1,16,17
 205 704 205 704 189 688 c 0,18,19
 139 637 139 637 86 637 c 1,20,21
 34 638 34 638 -18 688 c 0,22,23
 -34 703 -34 703 -18 720 c 1,24,25
 -2 735 -2 735 14 720 c 0,10,11
EndSplineSet
EndChar

StartChar: Iogonek
Encoding: 302 302 281
Width: 427
Flags: W
LayerCount: 2
Fore
SplineSet
326 -22 m 1,0,1
 290 -45 290 -45 287 -82 c 1,2,3
 287 -96 287 -96 291.5 -105 c 128,-1,4
 296 -114 296 -114 308 -121 c 128,-1,5
 320 -128 320 -128 342 -121 c 1,6,7
 363 -113 363 -113 370 -134 c 256,8,9
 377 -155 377 -155 357 -162 c 0,10,11
 312 -177 312 -177 285.5 -159.5 c 128,-1,12
 259 -142 259 -142 250 -121 c 128,-1,13
 241 -100 241 -100 243 -79 c 1,14,15
 244 -47 244 -47 261 -22 c 1,16,-1
 72 -22 l 2,17,18
 50 -22 50 -22 50 0 c 256,19,20
 50 22 50 22 72 22 c 2,21,-1
 191 22 l 1,22,-1
 191 956 l 1,23,-1
 72 956 l 2,24,25
 50 956 50 956 50 979 c 0,26,27
 50 1001 50 1001 72 1001 c 2,28,-1
 355 1001 l 2,29,30
 377 1001 377 1001 377 979 c 0,31,32
 377 956 377 956 355 956 c 2,33,-1
 236 956 l 1,34,-1
 236 22 l 1,35,-1
 355 22 l 2,36,37
 377 22 377 22 377 0 c 256,38,39
 377 -22 377 -22 355 -22 c 2,40,-1
 326 -22 l 1,0,1
EndSplineSet
EndChar
StartChar: iogonek
Encoding: 303 303 350
Width: 255
VWidth: 3000
Flags: W
LayerCount: 2
Back
Fore
SplineSet
153 -33 m 0,0,1
 99 -67.5 99 -67.5 94.5 -123 c 1,2,3
 94.5 -144 94.5 -144 101.25 -157.5 c 128,-1,4
 108 -171 108 -171 126 -181.5 c 128,-1,5
 144 -192 144 -192 177 -181.5 c 1,6,7
 208.5 -169.5 208.5 -169.5 219 -201 c 256,8,9
 229.5 -232.5 229.5 -232.5 199.5 -243 c 0,10,11
 132 -265.5 132 -265.5 92.25 -239.25 c 128,-1,12
 52.5 -213 52.5 -213 39 -181.5 c 128,-1,13
 25.5 -150 25.5 -150 28.5 -118.5 c 1,14,15
 31.5 -42 31.5 -42 93 6 c 1,16,-1
 93 708 l 2,17,18
 93 742.5 93 742.5 126 742.5 c 0,19,20
 160.5 742.5 160.5 742.5 160.5 708 c 2,21,-1
 160.5 13.5 l 1,22,-1
 162 12 l 1,23,24
 181.5 -15 181.5 -15 153 -33 c 0,0,1
54 1119 m 256,25,26
 54 1156.5 54 1156.5 75.75 1182.75 c 128,-1,27
 97.5 1209 97.5 1209 129 1209 c 256,28,29
 160.5 1209 160.5 1209 183 1182.75 c 128,-1,30
 205.5 1156.5 205.5 1156.5 205.5 1119 c 256,31,32
 205.5 1081.5 205.5 1081.5 183 1056 c 128,-1,33
 160.5 1030.5 160.5 1030.5 129 1030.5 c 256,34,35
 97.5 1030.5 97.5 1030.5 75.75 1056 c 128,-1,36
 54 1081.5 54 1081.5 54 1119 c 256,25,26
EndSplineSet
EndChar
StartChar: Idotaccent
Encoding: 304 304 279
Width: 640
VWidth: 3000
Flags: W
LayerCount: 2
Back
Fore
SplineSet
108 33 m 2,0,-1
 286.5 33 l 1,1,-1
 286.5 1434 l 1,2,-1
 108 1434 l 2,3,4
 75 1434 75 1434 75 1468.5 c 0,5,6
 75 1501.5 75 1501.5 108 1501.5 c 2,7,-1
 532.5 1501.5 l 2,8,9
 565.5 1501.5 565.5 1501.5 565.5 1468.5 c 0,10,11
 565.5 1434 565.5 1434 532.5 1434 c 2,12,-1
 354 1434 l 1,13,-1
 354 33 l 1,14,-1
 532.5 33 l 2,15,16
 565.5 33 565.5 33 565.5 0 c 256,17,18
 565.5 -33 565.5 -33 532.5 -33 c 2,19,-1
 108 -33 l 2,20,21
 75 -33 75 -33 75 0 c 256,22,23
 75 33 75 33 108 33 c 2,0,-1
244.5 1869 m 256,24,25
 244.5 1906.5 244.5 1906.5 266.25 1932.75 c 128,-1,26
 288 1959 288 1959 319.5 1959 c 256,27,28
 351 1959 351 1959 373.5 1932.75 c 128,-1,29
 396 1906.5 396 1906.5 396 1869 c 256,30,31
 396 1831.5 396 1831.5 373.5 1806 c 128,-1,32
 351 1780.5 351 1780.5 319.5 1780.5 c 256,33,34
 288 1780.5 288 1780.5 266.25 1806 c 128,-1,35
 244.5 1831.5 244.5 1831.5 244.5 1869 c 256,24,25
EndSplineSet
EndChar
StartChar: dotlessi
Encoding: 305 305 346
Width: 255
VWidth: 3000
Flags: W
LayerCount: 2
Back
Fore
SplineSet
160.5 708 m 2,0,-1
 160.5 0 l 2,1,2
 160.5 -33 160.5 -33 126 -33 c 0,3,4
 93 -33 93 -33 93 0 c 2,5,-1
 93 708 l 2,6,7
 93 742.5 93 742.5 126 742.5 c 0,8,9
 160.5 742.5 160.5 742.5 160.5 708 c 2,0,-1
EndSplineSet
EndChar
StartChar: IJ
Encoding: 306 306 283
Width: 1003
VWidth: 3000
Flags: W
LayerCount: 2
Back
Fore
SplineSet
108 33 m 2,0,-1
 286.5 33 l 1,1,-1
 286.5 1434 l 1,2,-1
 108 1434 l 2,3,4
 75 1434 75 1434 75 1468.5 c 0,5,6
 75 1501.5 75 1501.5 108 1501.5 c 2,7,-1
 532.5 1501.5 l 2,8,9
 565.5 1501.5 565.5 1501.5 565.5 1468.5 c 0,10,11
 565.5 1434 565.5 1434 532.5 1434 c 2,12,-1
 354 1434 l 1,13,-1
 354 33 l 1,14,-1
 532.5 33 l 2,15,16
 565.5 33 565.5 33 565.5 0 c 256,17,18
 565.5 -33 565.5 -33 532.5 -33 c 2,19,-1
 108 -33 l 2,20,21
 75 -33 75 -33 75 0 c 256,22,23
 75 33 75 33 108 33 c 2,0,-1
835.5 -208.5 m 2,24,-1
 835.5 1434 l 1,25,-1
 657 1434 l 2,26,27
 624 1434 624 1434 624 1468.5 c 0,28,29
 624 1501.5 624 1501.5 657 1501.5 c 2,30,-1
 1080 1501.5 l 2,31,32
 1114.5 1501.5 1114.5 1501.5 1114.5 1468.5 c 0,33,34
 1114.5 1434 1114.5 1434 1080 1434 c 2,35,-1
 903 1434 l 1,36,-1
 903 -208.5 l 2,37,38
 903 -390 903 -390 822 -492 c 0,39,40
 739.5 -595.5 739.5 -595.5 586.5 -595.5 c 0,41,42
 436.5 -595.5 436.5 -595.5 352.5 -492 c 0,43,44
 271.5 -391.5 271.5 -391.5 271.5 -208.5 c 0,45,46
 271.5 -175.5 271.5 -175.5 304.5 -175.5 c 0,47,48
 339 -175.5 339 -175.5 339 -208.5 c 0,49,50
 339 -367.5 339 -367.5 405 -450 c 1,51,52
 466.5 -529.5 466.5 -529.5 586.5 -529.5 c 256,53,54
 706.5 -529.5 706.5 -529.5 769.5 -450 c 0,55,56
 835.5 -367.5 835.5 -367.5 835.5 -208.5 c 2,24,-1
EndSplineSet
EndChar
StartChar: ij
Encoding: 307 307 351
Width: 489
VWidth: 3000
Flags: W
LayerCount: 2
Back
Fore
SplineSet
160.5 708 m 2,0,-1
 160.5 0 l 2,1,2
 160.5 -33 160.5 -33 126 -33 c 0,3,4
 93 -33 93 -33 93 0 c 2,5,-1
 93 708 l 2,6,7
 93 742.5 93 742.5 126 742.5 c 0,8,9
 160.5 742.5 160.5 742.5 160.5 708 c 2,0,-1
54 1119 m 256,10,11
 54 1156.5 54 1156.5 75.75 1182.75 c 128,-1,12
 97.5 1209 97.5 1209 129 1209 c 256,13,14
 160.5 1209 160.5 1209 183 1182.75 c 128,-1,15
 205.5 1156.5 205.5 1156.5 205.5 1119 c 256,16,17
 205.5 1081.5 205.5 1081.5 183 1056 c 128,-1,18
 160.5 1030.5 160.5 1030.5 129 1030.5 c 256,19,20
 97.5 1030.5 97.5 1030.5 75.75 1056 c 128,-1,21
 54 1081.5 54 1081.5 54 1119 c 256,10,11
22.5 -562.5 m 0,22,23
 42 -612 42 -612 78 -639 c 1,24,25
 115.5 -663 115.5 -663 171 -663 c 0,26,27
 253.5 -663 253.5 -663 294 -612 c 0,28,29
 339 -553.5 339 -553.5 339 -444 c 2,30,-1
 339 708 l 2,31,32
 339 742.5 339 742.5 372 742.5 c 256,33,34
 405 742.5 405 742.5 405 708 c 2,35,-1
 405 -444 l 2,36,37
 405 -574.5 405 -574.5 346.5 -652.5 c 0,38,39
 286.5 -730.5 286.5 -730.5 171 -730.5 c 0,40,41
 97.5 -730.5 97.5 -730.5 40.5 -693 c 0,42,43
 -12 -657 -12 -657 -40.5 -586.5 c 1,44,45
 -49.5 -555 -49.5 -555 -21 -544.5 c 1,46,47
 10.5 -529.5 10.5 -529.5 22.5 -562.5 c 0,22,23
300 1119 m 256,48,49
 300 1156.5 300 1156.5 321.75 1182.75 c 128,-1,50
 343.5 1209 343.5 1209 375 1209 c 256,51,52
 406.5 1209 406.5 1209 429 1182.75 c 128,-1,53
 451.5 1156.5 451.5 1156.5 451.5 1119 c 256,54,55
 451.5 1081.5 451.5 1081.5 429 1056 c 128,-1,56
 406.5 1030.5 406.5 1030.5 375 1030.5 c 256,57,58
 343.5 1030.5 343.5 1030.5 321.75 1056 c 128,-1,59
 300 1081.5 300 1081.5 300 1119 c 256,48,49
EndSplineSet
EndChar
StartChar: Jcircumflex
Encoding: 308 308 284
Width: 793
VWidth: 3000
Flags: W
LayerCount: 2
Back
Fore
SplineSet
639 354 m 2,0,-1
 639 1434 l 1,1,-1
 460.5 1434 l 2,2,3
 427.5 1434 427.5 1434 427.5 1468.5 c 0,4,5
 427.5 1501.5 427.5 1501.5 460.5 1501.5 c 2,6,-1
 883.5 1501.5 l 2,7,8
 918 1501.5 918 1501.5 918 1468.5 c 0,9,10
 918 1434 918 1434 883.5 1434 c 2,11,-1
 706.5 1434 l 1,12,-1
 706.5 354 l 2,13,14
 706.5 172.5 706.5 172.5 625.5 70.5 c 0,15,16
 543 -33 543 -33 390 -33 c 0,17,18
 240 -33 240 -33 156 70.5 c 0,19,20
 75 171 75 171 75 354 c 0,21,22
 75 387 75 387 108 387 c 0,23,24
 142.5 387 142.5 387 142.5 354 c 0,25,26
 142.5 195 142.5 195 208.5 112.5 c 1,27,28
 270 33 270 33 390 33 c 256,29,30
 510 33 510 33 573 112.5 c 0,31,32
 639 195 639 195 639 354 c 2,0,-1
501 1807.5 m 2,33,-1
 672 1939.5 l 1,34,-1
 840 1809 l 2,35,36
 867 1788 867 1788 847.5 1761 c 1,37,38
 825 1738.5 825 1738.5 802.5 1756.5 c 2,39,-1
 672 1857 l 1,40,-1
 543 1755 l 1,41,42
 517.5 1737 517.5 1737 495 1759.5 c 1,43,44
 475.5 1786.5 475.5 1786.5 501 1807.5 c 2,33,-1
EndSplineSet
EndChar

StartChar: jcircumflex
Encoding: 309 309 352
Width: 156
Flags: W
LayerCount: 2
Fore
SplineSet
-155 -375 m 0,0,1
 -142 -408 -142 -408 -118 -426 c 1,2,3
 -93 -442 -93 -442 -56 -442 c 0,4,5
 -1 -442 -1 -442 26 -408 c 0,6,7
 56 -369 56 -369 56 -296 c 2,8,-1
 56 472 l 2,9,10
 56 495 56 495 78 495 c 256,11,12
 100 495 100 495 100 472 c 2,13,-1
 100 -296 l 2,14,15
 100 -383 100 -383 61 -435 c 0,16,17
 21 -487 21 -487 -56 -487 c 0,18,19
 -105 -487 -105 -487 -143 -462 c 0,20,21
 -178 -438 -178 -438 -197 -391 c 1,22,23
 -203 -370 -203 -370 -184 -363 c 1,24,25
 -163 -353 -163 -353 -155 -375 c 0,0,1
-35 705 m 2,26,-1
 79 793 l 1,27,-1
 191 706 l 2,28,29
 209 692 209 692 196 674 c 1,30,31
 181 659 181 659 166 671 c 2,32,-1
 79 738 l 1,33,-1
 -7 670 l 1,34,35
 -24 658 -24 658 -39 673 c 1,36,37
 -52 691 -52 691 -35 705 c 2,26,-1
EndSplineSet
EndChar
StartChar: Kcommaaccent
Encoding: 310 310 285
Width: 931
VWidth: 3000
Flags: W
LayerCount: 2
Back
Fore
SplineSet
834 1446 m 2,0,-1
 154.5 735 l 1,1,-1
 834 22.5 l 2,2,3
 855 0 855 0 832.5 -22.5 c 0,4,5
 808.5 -46.5 808.5 -46.5 786 -21 c 2,6,-1
 142.5 651 l 1,7,-1
 142.5 0 l 2,8,9
 142.5 -33 142.5 -33 108 -33 c 0,10,11
 75 -33 75 -33 75 0 c 2,12,-1
 75 1468.5 l 2,13,14
 75 1501.5 75 1501.5 108 1501.5 c 0,15,16
 142.5 1501.5 142.5 1501.5 142.5 1468.5 c 2,17,-1
 142.5 817.5 l 1,18,-1
 786 1491 l 2,19,20
 808.5 1513.5 808.5 1513.5 832.5 1492.5 c 1,21,22
 856.5 1468.5 856.5 1468.5 834 1446 c 2,0,-1
375 46.5 m 0,23,24
 360 81 360 81 414 112.5 c 128,-1,25
 468 144 468 144 493.5 106.5 c 1,26,27
 543 42 543 42 499.5 -72 c 1,28,29
 468 -162 468 -162 370.5 -304.5 c 0,30,31
 351 -331.5 351 -331.5 322.5 -312 c 0,32,33
 295.5 -292.5 295.5 -292.5 313.5 -264 c 0,34,35
 405 -130.5 405 -130.5 435 -49.5 c 0,36,37
 462 25.5 462 25.5 423.75 23.25 c 128,-1,38
 385.5 21 385.5 21 375 46.5 c 0,23,24
EndSplineSet
EndChar
StartChar: kcommaaccent
Encoding: 311 311 354
Width: 733
VWidth: 3000
Flags: W
LayerCount: 2
Back
Fore
SplineSet
633 681 m 2,0,-1
 166.5 354 l 1,1,-1
 633 27 l 1,2,3
 657 7.5 657 7.5 642 -18 c 1,4,5
 621 -45 621 -45 594 -25.5 c 2,6,-1
 142.5 289.5 l 1,7,-1
 142.5 0 l 2,8,9
 142.5 -33 142.5 -33 108 -33 c 0,10,11
 75 -33 75 -33 75 0 c 2,12,-1
 75 1468.5 l 2,13,14
 75 1501.5 75 1501.5 108 1501.5 c 0,15,16
 142.5 1501.5 142.5 1501.5 142.5 1468.5 c 2,17,-1
 142.5 418.5 l 1,18,-1
 594 736.5 l 1,19,20
 621 753 621 753 642 727.5 c 1,21,22
 658.5 699 658.5 699 633 681 c 2,0,-1
225 40.5 m 0,23,24
 210 75 210 75 264 106.5 c 128,-1,25
 318 138 318 138 343.5 100.5 c 1,26,27
 393 36 393 36 349.5 -78 c 1,28,29
 318 -168 318 -168 220.5 -310.5 c 0,30,31
 201 -337.5 201 -337.5 172.5 -318 c 0,32,33
 145.5 -298.5 145.5 -298.5 163.5 -270 c 0,34,35
 255 -136.5 255 -136.5 285 -55.5 c 0,36,37
 312 19.5 312 19.5 273.75 17.25 c 128,-1,38
 235.5 15 235.5 15 225 40.5 c 0,23,24
EndSplineSet
EndChar
StartChar: kgreenlandic
Encoding: 312 312 355
Width: 733
VWidth: 3000
Flags: W
LayerCount: 2
Back
Fore
SplineSet
633 681 m 2,0,-1
 166.5 354 l 1,1,-1
 633 27 l 1,2,3
 657 7.5 657 7.5 642 -18 c 1,4,5
 621 -45 621 -45 594 -25.5 c 2,6,-1
 142.5 289.5 l 1,7,-1
 142.5 0 l 2,8,9
 142.5 -33 142.5 -33 108 -33 c 0,10,11
 75 -33 75 -33 75 0 c 2,12,-1
 75 712.5 l 2,13,14
 75 745.5 75 745.5 108 745.5 c 0,15,16
 142.5 745.5 142.5 745.5 142.5 712.5 c 2,17,-1
 142.5 418.5 l 1,18,-1
 594 736.5 l 1,19,20
 621 753 621 753 642 727.5 c 1,21,22
 658.5 699 658.5 699 633 681 c 2,0,-1
EndSplineSet
EndChar
StartChar: Lacute
Encoding: 313 313 286
Width: 823
VWidth: 3000
Flags: W
LayerCount: 2
Back
Fore
SplineSet
142.5 1468.5 m 2,0,-1
 142.5 33 l 1,1,-1
 715.5 33 l 2,2,3
 748.5 33 748.5 33 748.5 0 c 256,4,5
 748.5 -33 748.5 -33 715.5 -33 c 2,6,-1
 108 -33 l 2,7,8
 75 -33 75 -33 75 0 c 2,9,-1
 75 1468.5 l 2,10,11
 75 1501.5 75 1501.5 108 1501.5 c 0,12,13
 142.5 1501.5 142.5 1501.5 142.5 1468.5 c 2,0,-1
553.5 1915.5 m 2,14,-1
 304.5 1765.5 l 2,15,16
 276 1749 276 1749 258 1779 c 0,17,18
 241.5 1806 241.5 1806 270 1824 c 2,19,-1
 517.5 1972.5 l 2,20,21
 547.5 1990.5 547.5 1990.5 565.5 1962 c 1,22,23
 582 1932 582 1932 553.5 1915.5 c 2,14,-1
EndSplineSet
EndChar
StartChar: lacute
Encoding: 314 314 356
Width: 217
VWidth: 3000
Flags: W
LayerCount: 2
Back
Fore
SplineSet
142.5 1468.5 m 2,0,-1
 142.5 0 l 2,1,2
 142.5 -33 142.5 -33 108 -33 c 0,3,4
 75 -33 75 -33 75 0 c 2,5,-1
 75 1468.5 l 2,6,7
 75 1501.5 75 1501.5 108 1501.5 c 0,8,9
 142.5 1501.5 142.5 1501.5 142.5 1468.5 c 2,0,-1
375 1755 m 2,10,-1
 126 1605 l 2,11,12
 97.5 1588.5 97.5 1588.5 79.5 1618.5 c 0,13,14
 63 1645.5 63 1645.5 91.5 1663.5 c 2,15,-1
 339 1812 l 2,16,17
 369 1830 369 1830 387 1801.5 c 1,18,19
 403.5 1771.5 403.5 1771.5 375 1755 c 2,10,-1
EndSplineSet
EndChar
StartChar: Lcommaaccent
Encoding: 315 315 288
Width: 823
VWidth: 3000
Flags: W
LayerCount: 2
Back
Fore
SplineSet
142.5 1468.5 m 2,0,-1
 142.5 33 l 1,1,-1
 715.5 33 l 2,2,3
 748.5 33 748.5 33 748.5 0 c 256,4,5
 748.5 -33 748.5 -33 715.5 -33 c 2,6,-1
 108 -33 l 2,7,8
 75 -33 75 -33 75 0 c 2,9,-1
 75 1468.5 l 2,10,11
 75 1501.5 75 1501.5 108 1501.5 c 0,12,13
 142.5 1501.5 142.5 1501.5 142.5 1468.5 c 2,0,-1
367.5 -187.5 m 0,14,15
 352.5 -153 352.5 -153 406.5 -121.5 c 128,-1,16
 460.5 -90 460.5 -90 486 -127.5 c 1,17,18
 535.5 -192 535.5 -192 492 -306 c 1,19,20
 460.5 -396 460.5 -396 363 -538.5 c 0,21,22
 343.5 -565.5 343.5 -565.5 315 -546 c 0,23,24
 288 -526.5 288 -526.5 306 -498 c 0,25,26
 397.5 -364.5 397.5 -364.5 427.5 -283.5 c 0,27,28
 454.5 -208.5 454.5 -208.5 416.25 -210.75 c 128,-1,29
 378 -213 378 -213 367.5 -187.5 c 0,14,15
EndSplineSet
EndChar
StartChar: lcommaaccent
Encoding: 316 316 358
Width: 217
VWidth: 3000
Flags: W
LayerCount: 2
Back
Fore
SplineSet
142.5 1468.5 m 2,0,-1
 142.5 0 l 2,1,2
 142.5 -33 142.5 -33 108 -33 c 0,3,4
 75 -33 75 -33 75 0 c 2,5,-1
 75 1468.5 l 2,6,7
 75 1501.5 75 1501.5 108 1501.5 c 0,8,9
 142.5 1501.5 142.5 1501.5 142.5 1468.5 c 2,0,-1
64.5 -163.5 m 0,10,11
 49.5 -129 49.5 -129 103.5 -97.5 c 128,-1,12
 157.5 -66 157.5 -66 183 -103.5 c 1,13,14
 232.5 -168 232.5 -168 189 -282 c 1,15,16
 157.5 -372 157.5 -372 60 -514.5 c 0,17,18
 40.5 -541.5 40.5 -541.5 12 -522 c 0,19,20
 -15 -502.5 -15 -502.5 3 -474 c 0,21,22
 94.5 -340.5 94.5 -340.5 124.5 -259.5 c 0,23,24
 151.5 -184.5 151.5 -184.5 113.25 -186.75 c 128,-1,25
 75 -189 75 -189 64.5 -163.5 c 0,10,11
EndSplineSet
EndChar
